<svg width="191" height="37" xmlns="http://www.w3.org/2000/svg" xmlns:xlink="http://www.w3.org/1999/xlink" xml:space="preserve" overflow="hidden"><defs><clipPath id="clip0"><rect x="19" y="362" width="191" height="37"/></clipPath></defs><g clip-path="url(#clip0)" transform="translate(-19 -362)"><path d="M0.0347982 24.1102C0.0347982 23.8517 0.0347982 23.5932 0.0347982 23.3098 0.0347982 22.9519 0.0347982 22.6188 0.0347982 22.2907 0.0347982 22.2509 0.0149135 22.2112 0.00497117 22.1664 0.00497117 21.9576 0.00497117 21.7538 0.0149135 21.5252 0.029827 21.2716 0.029827 21.0429 0.029827 20.7944 0.029827 20.3072 0.029827 19.83 0.029827 19.3577 0.029827 19.3577 0.029827 19.3428 0.0447405 19.3478 0.059654 19.4025 0.0646252 19.4522 0.0646252 19.5069 0.0646252 21.0429 0.0646252 22.579 0.0646252 24.1151 0.0546828 24.1151 0.0447405 24.1151 0.0447405 24.1151Z" fill="#17184A" transform="matrix(1.02231 0 0 1 19.5239 362)"/><path d="M0.0248558 19.3627C0.0347982 19.835 0.0347982 20.3072 0.0248558 20.7994 0.0149135 20.8093 0 20.8093 0 20.8093L0 19.3726C0 19.3726 0.00994233 19.3627 0.0248558 19.3627Z" fill="#376C96" transform="matrix(1.02231 0 0 1 19.5239 362)"/><path d="M0 22.1813C0.00994233 22.2062 0.029827 22.2509 0.029827 22.2907 0.029827 22.6188 0.029827 22.9519 0.029827 23.2949 0.029827 23.3098 0.0149135 23.3098 0.00994233 23.3098 0 22.937 0 22.5641 0 22.1813Z" fill="#CADEEA" transform="matrix(1.02231 0 0 1 19.5239 362)"/><path d="M0 20.8242C0 20.8242 0.0149135 20.8093 0.0198847 20.8093 0.0248558 21.0429 0.0198847 21.2716 0.00994233 21.5102 0 21.2915 0 21.0628 0 20.8242Z" fill="#5080A6" transform="matrix(1.02231 0 0 1 19.5239 362)"/><path d="M19.1241 15.4106C19.129 15.6293 19.0296 15.8083 18.8954 15.9624 18.269 16.6783 17.6476 17.3891 17.0113 18.095 16.8821 18.2342 16.7131 18.3386 16.544 18.4629 16.1265 18.5226 15.7288 18.5872 15.3261 18.617 14.7196 18.6618 14.1131 18.6767 13.5017 18.6966 13.3923 18.6419 13.278 18.6021 13.1835 18.5375 13.0443 18.453 12.9201 18.3486 12.7858 18.2541 12.2987 17.9012 11.8115 17.5482 11.3293 17.1953 11.2895 17.1654 11.2448 17.1356 11.2 17.1108 11.2 17.1108 11.2 17.1108 11.2 17.1058 11.1702 17.0809 11.1404 17.066 11.1106 17.0461 11.1106 17.0461 11.1106 17.0461 11.1106 17.0362 11.0807 17.0113 11.0459 16.9964 11.0111 16.9815 10.9962 16.9815 10.9912 16.9716 10.9863 16.9467 10.9614 16.9268 10.9366 16.9219 10.9117 16.9119 10.9117 16.9119 10.9018 16.9069 10.9117 16.897 10.8968 16.8821 10.8769 16.8721 10.862 16.8672 10.862 16.8672 10.862 16.8672 10.862 16.8572 10.8322 16.8324 10.8023 16.8175 10.7725 16.7976 10.7725 16.7976 10.7725 16.7976 10.7725 16.7926 10.7427 16.7677 10.7129 16.7528 10.683 16.7379 10.683 16.7379 10.683 16.7379 10.683 16.728 10.6582 16.7081 10.6333 16.7031 10.6134 16.6932 10.6134 16.6932 10.6134 16.6932 10.6134 16.6832 10.5985 16.6633 10.5786 16.6584 10.5637 16.6484 10.5637 16.6484 10.5637 16.6484 10.5637 16.6435 10.5389 16.6236 10.519 16.6186 10.4941 16.6087 10.4941 16.6087 10.4842 16.6037 10.4941 16.5938 10.4792 16.5788 10.4593 16.5689 10.4444 16.5639 10.4444 16.5639 10.4444 16.5639 10.4444 16.554 10.3897 16.5142 10.34 16.4844 10.2853 16.4496 10.2853 16.4496 10.2804 16.4496 10.2853 16.4347 10.2505 16.3949 10.2108 16.3651 10.176 16.3402 10.176 16.3402 10.176 16.3402 10.176 16.3353 10.166 16.3203 10.1561 16.3154 10.1462 16.3104 10.1462 16.3104 10.1462 16.3104 10.1462 16.3005 10.1312 16.2806 10.1163 16.2756 10.1014 16.2657 10.1014 16.2657 10.0964 16.2607 10.1014 16.2507 10.0865 16.2259 10.0666 16.206 10.0517 16.1861 10.0517 16.1861 10.0517 16.1861 10.0517 16.1762 10.0268 16.1364 10.002 16.1115 9.97216 16.0817 9.97216 16.0817 9.97216 16.0718 9.97216 16.0618 9.81308 15.6791 9.83297 15.2863 9.83794 14.8936 9.83794 14.7495 9.86279 14.6103 9.86777 14.4661 9.87771 13.1885 9.89262 11.9059 9.89759 10.6284 9.89759 10.1462 9.89759 9.66395 9.89759 9.16683 9.89759 8.02843 9.89759 6.90495 9.89759 5.78147 9.89759 5.72181 9.88268 5.66216 9.87274 5.59256 9.87274 5.55776 9.87274 5.53291 9.87274 5.49811 9.87274 5.47325 9.87274 5.46331 9.88268 5.44343 9.95725 5.43349 10.0169 5.42354 10.0766 5.41857 10.3152 5.40366 10.5588 5.39869 10.7974 5.38377 11.3989 5.344 12.0004 5.30423 12.6019 5.26447 12.9399 5.24458 13.278 5.2247 13.6111 5.19984 14.1728 5.16007 14.7345 5.1203 15.2913 5.08053 15.6194 5.05568 15.9425 5.04076 16.2706 5.01591 16.7727 4.97614 17.2798 4.9314 17.7819 4.90157 18.105 4.88169 18.4281 4.88169 18.7512 4.86677 18.786 4.86677 18.8159 4.84689 18.8457 4.83197 19.0197 4.98111 19.0992 5.18493 19.139 5.42354 19.129 5.48817 19.1191 5.52794 19.1191 5.56771 19.1191 8.80394 19.1191 12.0402 19.1191 15.2714 19.1191 15.3211 19.134 15.3708 19.144 15.4206Z" fill="#0F68B3" transform="matrix(1.02231 0 0 1 19.5239 362)"/><path d="M13.5067 18.7065C14.1131 18.6767 14.7196 18.6618 15.3261 18.617 15.7238 18.5872 16.1215 18.5176 16.5341 18.4679 17.2599 19.0843 17.9757 19.6958 18.6866 20.3122 18.9948 20.5757 19.1241 20.9137 19.0992 21.3213 19.0793 21.6544 19.0793 21.9875 19.0595 22.3354 19.0346 22.3901 19.0147 22.4249 19.0147 22.4647 19.0147 22.8922 19.0147 23.3148 19.0147 23.7423 19.0147 23.7821 19.0296 23.8218 19.0396 23.8566 19.0396 23.8815 19.0396 23.9014 19.0296 23.9411 19.0048 23.9908 18.9849 24.0306 18.9849 24.0654 18.9749 24.7564 18.96 25.4474 18.9551 26.1434 18.9551 26.7101 18.9551 27.2718 18.9551 27.8485 18.965 27.8733 18.97 27.8882 18.9799 27.8982 18.9799 27.923 18.9799 27.9429 18.97 27.9827 18.9004 28.0573 18.8954 28.107 18.9799 28.1467 18.9799 28.1617 18.9799 28.1766 18.97 28.2014 18.9451 28.2412 18.9252 28.2661 18.9252 28.2959 18.9053 29.131 18.8855 29.9662 18.8656 30.8063 18.8656 30.8063 18.8656 30.8063 18.8556 30.8063 18.8208 30.8262 18.796 30.8411 18.7562 30.861 18.3734 30.9107 18.0056 30.9604 17.6278 31.0052 17.5731 31.0052 17.5234 31.0151 17.4637 31.0201 17.4289 31.0201 17.4041 31.025 17.3643 31.03 17.2897 31.035 17.2301 31.0449 17.1555 31.0549 17.1306 31.0549 17.1157 31.0549 17.0859 31.0549 16.8125 31.0797 16.554 31.1096 16.2905 31.1294 16.1115 31.1294 15.9425 31.1394 15.7735 31.1593 15.689 31.1692 15.6144 31.204 15.52 31.2289 15.4852 31.2289 15.4653 31.2338 15.4355 31.2289 15.2863 31.2438 15.1471 31.2686 14.998 31.2935 14.9632 31.2935 14.9384 31.2935 14.9085 31.2836 14.7445 31.2836 14.5904 31.2885 14.4412 31.2985 14.4263 31.2985 14.4114 31.3333 14.3866 31.3531 14.3617 31.3531 14.3468 31.3531 14.3269 31.3432 13.9789 31.3631 13.6409 31.3929 13.3028 31.4277 12.9598 31.4625 12.6168 31.5023 12.2688 31.542 11.9457 31.5768 11.6226 31.6067 11.2945 31.6415 11.2945 31.6415 11.2945 31.6713 11.2796 31.6912 10.8272 31.7359 10.3897 31.7807 9.94233 31.8155 9.76337 31.7922 9.67389 31.6895 9.67389 31.5073 9.67389 31.4774 9.67389 31.4476 9.67389 31.4178 9.66395 31.2587 9.65401 31.0996 9.64406 30.9256 9.64406 30.8908 9.64406 30.866 9.64406 30.8312 9.64406 30.8262 9.64903 30.8113 9.65898 30.8063 9.65898 30.7765 9.65898 30.7467 9.64903 30.7019 9.64903 30.3341 9.64903 29.9811 9.65898 29.6182 9.66892 29.4094 9.67389 29.2155 9.67886 29.0117 9.67886 29.0068 9.67886 28.9918 9.67886 28.9819 9.67886 28.967 9.67886 28.962 9.6888 28.9471 9.70869 28.8924 9.73354 28.8427 9.73354 28.793 9.74846 28.1716 9.7584 27.5502 9.76337 26.9288 9.77331 26.0837 9.77828 25.2386 9.79817 24.3935 9.81308 23.5832 9.73354 22.7729 9.87771 21.9726 9.87771 21.9726 9.87771 21.9726 9.88765 21.9726 9.93239 21.9079 9.96719 21.8483 10.002 21.7886 10.002 21.7886 10.002 21.7886 10.0119 21.7886 10.0318 21.7687 10.0368 21.7538 10.0517 21.729 10.0815 21.6942 10.1114 21.6693 10.1462 21.6445 10.1611 21.6345 10.166 21.6246 10.176 21.6047 10.1859 21.5898 10.1909 21.5848 10.2108 21.5848 10.2307 21.5699 10.2406 21.555 10.2605 21.545 10.2605 21.545 10.2605 21.545 10.2605 21.545 10.2853 21.5252 10.3003 21.5053 10.3201 21.4854 10.3201 21.4854 10.3201 21.4854 10.3301 21.4854 10.3549 21.4655 10.3699 21.4456 10.3848 21.4257 10.3848 21.4257 10.3848 21.4257 10.3897 21.4257 10.4047 21.4158 10.4096 21.4058 10.4146 21.3959 10.4146 21.3959 10.4146 21.3959 10.4146 21.3959 10.4295 21.386 10.4345 21.376 10.4394 21.3661 10.4394 21.3661 10.4394 21.3661 10.4444 21.3661 10.4593 21.3561 10.4643 21.3462 10.4693 21.3362 10.4693 21.3362 10.4693 21.3362 10.4792 21.3362 10.4991 21.3213 10.5041 21.3064 10.514 21.2915 10.514 21.2915 10.514 21.2915 10.5289 21.2915 10.5389 21.2816 10.5438 21.2716 10.5488 21.2617 10.5488 21.2617 10.5488 21.2617 10.5637 21.2617 10.5786 21.2517 10.5836 21.2418 10.5886 21.2368 10.5886 21.2368 10.5886 21.2368 10.5936 21.2368 10.6184 21.2169 10.6333 21.1971 10.6532 21.1772 10.6532 21.1772 10.6532 21.1772 10.6632 21.1772 10.688 21.1573 10.7029 21.1374 10.7228 21.1026 11.4834 20.4116 12.234 19.7206 12.9996 19.0445 13.1537 18.9103 13.3476 18.8208 13.5216 18.7115Z" fill="#1EA4DE" transform="matrix(1.02231 0 0 1 19.5239 362)"/><path d="M0.0646252 24.1151C0.0646252 22.579 0.0646252 19.5069 0.0646252 19.5069 0.0646252 19.5069 0.0646252 19.4025 0.0497117 19.3428 0.288328 18.9352 0.536886 18.5375 0.785444 18.1398 0.914695 17.936 1.04394 17.7321 1.18811 17.5234 1.23285 17.5234 1.2925 17.5234 1.2925 17.5234 1.2925 17.5234 2.02326 17.4339 2.38616 17.3842 2.9131 17.3046 3.95705 17.1505 3.95705 17.1505 3.95705 17.1505 4.48896 17.8067 4.74746 18.1348 4.91151 18.3436 5.20978 18.7811 5.20978 18.7811 5.20978 18.7811 5.25949 19.308 5.25949 19.5715 5.24458 21.9079 5.24955 26.5908 5.24955 26.5908 5.24955 26.5908 5.13024 26.6703 5.07059 26.7001 4.00179 27.2072 2.92802 27.7093 1.85922 28.2163 1.32233 28.4699 0.785444 28.7333 0.248558 28.9869 0.21376 29.0018 0.16902 29.0117 0.12925 29.0068 0.119308 27.5601 0.104394 26.1285 0.0944522 24.6818 0.0845098 24.483 0.0745675 24.2991 0.0646252 24.1151Z" fill="#1B3E70" transform="matrix(1.02231 0 0 1 19.5239 362)"/><path d="M9.84291 5.44343C9.84291 5.44343 9.84291 5.46828 9.83297 5.49314 9.43527 5.92563 9.05249 6.34321 8.66474 6.76576 7.83456 7.66554 6.9994 8.57029 6.16922 9.47504 5.81626 9.85782 5.46828 10.2505 5.11036 10.6333 5.10539 10.6333 5.09047 10.6284 5.0855 10.6184 4.54365 10.0368 4.00676 9.4651 3.46987 8.89342 2.43587 7.79479 1.40684 6.69119 0.372837 5.59256 0.313183 5.52794 0.228674 5.48817 0.154106 5.43846 0.208789 5.31915 0.238616 5.17498 0.323126 5.07556 0.646252 4.69775 0.989262 4.33983 1.3273 3.97196 2.32651 2.88328 3.32571 1.79459 4.32491 0.710877 4.46908 0.551799 4.63313 0.412607 4.80712 0.263472 4.84192 0.263472 4.85683 0.268443 4.87174 0.283356 4.90157 0.338039 4.92145 0.38278 4.95625 0.422549 5.31418 0.8103 5.66216 1.20799 6.03002 1.5858 6.65142 2.22708 7.28276 2.86339 7.90913 3.4997 8.32173 3.91728 8.73434 4.32989 9.14695 4.74746 9.37562 4.98111 9.60429 5.21475 9.83297 5.45337Z" fill="#28BAED" transform="matrix(1.02231 0 0 1 19.5239 362)"/><path d="M9.85285 5.43846C9.60926 5.20978 9.38556 4.97117 9.15192 4.73752 8.73931 4.31994 8.32173 3.90734 7.9141 3.48976 7.28773 2.85345 6.65639 2.22211 6.035 1.57586 5.66713 1.19805 5.31915 0.800358 4.96122 0.412607 4.92643 0.377809 4.90654 0.328097 4.87671 0.263472 4.87671 0.233645 4.87671 0.223702 4.87671 0.218731 4.87671 0.218731 4.87671 0.218731 4.88666 0.218731 4.91151 0.208789 4.92643 0.198847 4.94134 0.183933 4.94134 0.183933 4.94134 0.183933 4.95128 0.183933 5.19984 0.164048 5.43846 0.134221 5.67707 0.12925 6.01014 0.119308 6.34321 0.12925 6.67628 0.12925 6.75582 0.12925 6.83535 0.109366 6.92981 0.0994233 7.53132 0.0994233 8.11791 0.0994233 8.70451 0.0994233 8.75422 0.0994233 8.80891 0.0646252 8.85862 0.0447405 8.96301 0.0447405 9.06741 0.0447405 9.19666 0.0447405 9.2414 0.059654 9.26128 0.0646252 9.28117 0.0646252 9.95725 0.0646252 10.6333 0.0646252 11.3094 0.0646252 11.3492 0.0646252 11.384 0.0447405 11.4387 0.0347982 11.9557 0.0347982 12.4577 0.0347982 12.9648 0.0347982 12.9648 0.0198847 12.9648 0.00994233 12.9648-0.00497117L12.5224-0.00497117C12.9698-0.00497117 13.4172-0.029827 13.8546 0.0149135 14.0485 0.0347982 14.2672 0.164048 14.4114 0.303241 15.1819 1.06383 15.9326 1.84927 16.6981 2.63969 16.7131 2.66455 16.723 2.67449 16.7329 2.67946 16.7329 2.67946 16.7329 2.67946 16.7329 2.68443 16.7479 2.69437 16.7578 2.70431 16.7677 2.70929 16.7677 2.70929 16.7677 2.70929 16.7677 2.71426 16.7827 2.7242 16.7926 2.73414 16.8025 2.73911 16.8025 2.73911 16.8025 2.73911 16.8025 2.74408 16.8175 2.75403 16.8224 2.76397 16.8324 2.76894 16.8324 2.76894 16.8324 2.76894 16.8324 2.77391 16.8473 2.78385 16.8572 2.7938 16.8622 2.79877 16.8622 2.79877 16.8622 2.79877 16.8622 2.80374 16.8721 2.81865 16.8821 2.82362 16.892 2.82859 16.892 2.82859 16.892 2.82859 16.892 2.83356 16.9069 2.84351 16.9119 2.85345 16.9219 2.85842 16.9219 2.85842 16.9219 2.85842 16.9219 2.86339 16.9368 2.87333 16.9417 2.88328 16.9517 2.88825 16.9517 2.88825 16.9517 2.88825 16.9517 2.89322 16.9616 2.90316 16.9716 2.9131 16.9815 2.91807 16.9815 2.91807 16.9815 2.91807 16.9815 2.92305 16.9964 2.93299 17.0014 2.94293 17.0113 2.9479 17.0113 2.9479 17.0113 2.9479 17.0113 2.95287 17.0262 2.96282 17.0312 2.97276 17.0412 2.97773 17.0412 2.97773 17.0412 2.97773 17.0412 2.9827 17.0561 2.99264 17.066 3.00258 17.076 3.00756 17.0859 3.00756 17.0909 3.00756 17.1008 3.03738 17.1157 3.05727 17.1257 3.06721 17.1356 3.07218 17.1953 3.12686 17.2499 3.18155 17.3146 3.25114 17.3295 3.276 17.3394 3.28097 17.3494 3.28594 17.3494 3.28594 17.3494 3.28594 17.3494 3.29091 17.3643 3.30085 17.3693 3.3108 17.3792 3.31577 17.3991 3.33068 17.414 3.34559 17.4339 3.37542 17.4538 3.40028 17.4687 3.41022 17.4836 3.42016 17.4836 3.42016 17.4836 3.42016 17.4836 3.43508 17.4935 3.44999 17.5035 3.44999 17.5134 3.44999 17.5134 3.44999 17.5134 3.44999 17.5134 3.4649 17.5383 3.49473 17.5631 3.51461 17.593 3.5345 18.0006 3.94711 18.4132 4.36468 18.8258 4.78723 18.796 4.80712 18.7662 4.827 18.7314 4.83197 18.4082 4.84689 18.0851 4.84689 17.762 4.86677 17.2549 4.90157 16.7528 4.94631 16.2507 4.98111 15.9226 5.00596 15.5995 5.02585 15.2714 5.04573 14.7097 5.0855 14.1479 5.12527 13.5912 5.16504 13.2531 5.1899 12.9151 5.20978 12.582 5.22967 11.9805 5.26944 11.379 5.31418 10.7775 5.34898 10.5389 5.36389 10.2953 5.37383 10.0567 5.38377 9.99702 5.38377 9.93736 5.39869 9.86279 5.40863Z" fill="#218FCE" transform="matrix(1.02231 0 0 1 19.5239 362)"/><path d="M0.12925 29.0167C0.16902 29.0068 0.208789 29.0018 0.243587 28.9819 0.780473 28.7234 1.31239 28.4649 1.85425 28.2114 2.92305 27.7043 3.99682 27.2022 5.06562 26.6952 5.12527 26.6653 5.17996 26.6305 5.25452 26.5858 5.28435 26.5759 5.29429 26.5709 5.31915 26.5709 5.33406 26.5709 5.33903 26.5709 5.344 26.5709 5.344 26.5709 5.344 26.5709 5.344 26.5759 5.35892 26.5858 5.36886 26.5908 5.3788 26.5908 5.3788 26.5908 5.3788 26.5908 5.3788 26.6007 5.40366 26.6206 5.42354 26.6256 5.45337 26.6305 5.82124 26.8344 6.18413 27.0382 6.54205 27.242 7.57109 27.8236 8.60509 28.4102 9.63412 28.9968 9.63909 29.0018 9.64406 29.0068 9.64903 29.0068 9.64903 29.2056 9.64406 29.3995 9.62418 29.6182 9.60429 30.001 9.59435 30.3639 9.59435 30.7268 9.59435 30.7616 9.60926 30.7914 9.61921 30.8262 9.61921 30.8511 9.61921 30.8759 9.62418 30.9256 9.61424 31.1493 9.59932 31.3432 9.57944 31.552 9.5695 31.6564 9.56452 31.7558 9.55955 31.8602 9.1718 32.2231 8.78405 32.581 8.3963 32.934 7.93895 33.3416 7.48161 33.7492 7.02426 34.1569 6.74587 34.4054 6.46749 34.649 6.1891 34.9026 6.14436 34.9473 6.10956 35.007 6.05985 35.0567 6.01014 35.0567 5.97534 35.0567 5.94054 35.0616 5.80135 34.9722 5.64227 34.9026 5.52794 34.7882 5.13024 34.3955 4.74249 33.9829 4.3448 33.5603 4.32989 33.5355 4.31497 33.5255 4.30503 33.5156 4.30503 33.5156 4.31 33.5156 4.30503 33.5106 4.29012 33.5007 4.28017 33.4907 4.27023 33.4858 4.27023 33.4858 4.27023 33.4858 4.27023 33.4808 4.25532 33.4709 4.24538 33.4609 4.23543 33.456 4.23543 33.456 4.23543 33.456 4.23543 33.451 4.22549 33.4361 4.21555 33.4311 4.20561 33.4261 4.20561 33.4261 4.20561 33.4261 4.20561 33.4212 4.19069 33.4112 4.18572 33.4013 4.17578 33.3963 4.17578 33.3963 4.17578 33.3963 4.17578 33.3913 4.16087 33.3814 4.15589 33.3714 4.14595 33.3665 4.14595 33.3665 4.14595 33.3665 4.14595 33.3615 4.13104 33.3516 4.12607 33.3416 4.11613 33.3366 4.11613 33.3366 4.11613 33.3366 4.11613 33.3317 4.10121 33.3217 4.09624 33.3118 4.0863 33.3068 4.0863 33.3068 4.0863 33.3068 4.0863 33.3018 4.07138 33.2919 4.06144 33.282 4.0515 33.277 4.03659 33.2621 4.0167 33.2472 3.99682 33.2173 3.9819 33.1925 3.97196 33.1875 3.96202 33.1825 3.96202 33.1825 3.96202 33.1825 3.96202 33.1776 3.94711 33.1627 3.94213 33.1577 3.93219 33.1527 3.91231 33.1378 3.89739 33.1229 3.87751 33.0931 3.85763 33.0682 3.84271 33.0583 3.8278 33.0533 3.8278 33.0533 3.8278 33.0533 3.8278 33.0384 3.81786 33.0235 3.80791 33.0235 3.79797 33.0235 3.79797 33.0235 3.793 33.0235 3.79797 33.0135 3.79797 33.0036 3.78803 33.0036 3.78306 33.0036 3.64884 32.8694 3.51959 32.7351 3.38039 32.581 3.36548 32.5562 3.35554 32.5462 3.34559 32.5413 3.34559 32.5413 3.34559 32.5413 3.34559 32.5363 3.33068 32.5263 3.32571 32.5164 3.31577 32.5114 3.31577 32.5114 3.31577 32.5114 3.31577 32.5065 3.30085 32.4965 3.29588 32.4866 3.28594 32.4816 3.28594 32.4816 3.28594 32.4816 3.28594 32.4766 3.27103 32.4667 3.26606 32.4567 3.25611 32.4518 3.25611 32.4518 3.25611 32.4518 3.25611 32.4468 3.2412 32.4369 3.23623 32.4269 3.22629 32.4219 3.22629 32.4219 3.22629 32.4219 3.22629 32.417 3.21137 32.4021 3.20143 32.3971 3.19149 32.3921 3.18155 32.3921 3.1716 32.3921 3.16166 32.3623 3.14675 32.3424 3.13681 32.3325 3.12686 32.3275 3.12686 32.3275 3.12686 32.3275 3.12686 32.3176 3.10698 32.2927 3.08709 32.2778 3.06224 32.2678 3.06224 32.2678 3.06224 32.2678 3.06224 32.2579 3.04732 32.243 3.03241 32.233 3.0175 32.2281 3.0175 32.2281 3.0175 32.2281 3.0175 32.2132 3.00756 32.2032 2.99761 32.1982 2.98767 32.1982 2.98767 32.1982 2.98767 32.1982 2.98767 32.1833 2.97773 32.1684 2.96779 32.1684 2.95784 32.1684 2.95784 32.1684 2.95784 32.1684 2.95784 32.1535 2.9479 32.1386 2.93796 32.1386 2.92802 32.1386 2.92802 32.1386 2.92305 32.1386 2.92802 32.1286 2.92802 32.1187 2.91807 32.1187 2.9131 32.1187 2.80374 32.0044 2.6894 31.895 2.57506 31.7608 2.55518 31.7359 2.54524 31.726 2.53529 31.716 2.53529 31.716 2.54027 31.716 2.53529 31.7111 2.52038 31.7011 2.51044 31.6912 2.5005 31.6862 2.5005 31.6862 2.50547 31.6862 2.5005 31.6812 2.48558 31.6713 2.47564 31.6614 2.4657 31.6564 2.4657 31.6564 2.4657 31.6564 2.4657 31.6514 2.45078 31.6415 2.44084 31.6315 2.4309 31.6266 2.4309 31.6266 2.43587 31.6266 2.4309 31.6216 2.41599 31.6116 2.40604 31.6017 2.3961 31.5967 2.3961 31.5967 2.40107 31.5967 2.3961 31.5918 2.38119 31.5818 2.37125 31.5719 2.3613 31.5669 2.3613 31.5669 2.3613 31.5669 2.3613 31.5619 2.34639 31.552 2.33645 31.542 2.32651 31.5371 2.32651 31.5371 2.32651 31.5371 2.32651 31.5321 2.31159 31.5222 2.30662 31.5122 2.29668 31.5073 2.29668 31.5073 2.29668 31.5073 2.29668 31.5023 2.28177 31.4923 2.27679 31.4824 2.26685 31.4774 2.26685 31.4774 2.26685 31.4774 2.26685 31.4725 2.25194 31.4625 2.24697 31.4526 2.23702 31.4476 2.23702 31.4476 2.23702 31.4476 2.23702 31.4426 2.22708 31.4327 2.21714 31.4227 2.2072 31.4178 2.2072 31.4178 2.2072 31.4178 2.2072 31.4128 2.19228 31.3979 2.18234 31.3929 2.1724 31.3879 2.16246 31.3879 2.15251 31.3879 2.14754 31.3581 2.13263 31.3333 2.11772 31.3283 2.1028 31.3183 2.1028 31.3183 2.1028 31.3183 2.1028 31.3034 2.08292 31.2786 2.06303 31.2686 2.04315 31.2587 2.04315 31.2587 2.04315 31.2537 2.04315 31.2438 2.03818 31.2289 2.02326 31.2289 2.01332 31.2289 2.01332 31.2289 2.01332 31.2289 2.01332 31.214 1.99344 31.1891 1.97355 31.1792 1.95367 31.1692 1.95367 31.1692 1.95367 31.1692 1.95367 31.1543 1.94373 31.1394 1.93378 31.1394 1.92384 31.1344 1.92384 31.1344 1.92384 31.1344 1.92384 31.1195 1.9139 31.1046 1.90396 31.1046 1.89401 31.0996 1.89401 31.0996 1.89401 31.0996 1.89401 31.0847 1.87413 31.0598 1.85425 31.0449 1.82939 31.03 1.82939 31.03 1.82939 31.03 1.82939 31.0201 1.81945 31.0052 1.8095 31.0002 1.79459 30.9952 1.79459 30.9952 1.79956 30.9952 1.79459 30.9853 1.77471 30.9604 1.74985 30.9455 1.72997 30.9306 1.72997 30.9306 1.73494 30.9306 1.72997 30.9207 1.71505 30.9107 1.70511 30.9057 1.69517 30.9008 1.69517 30.9008 1.70014 30.9008 1.69517 30.8908 1.67031 30.866 1.65043 30.8511 1.63054 30.8361 1.63054 30.8361 1.63551 30.8361 1.63054 30.8262 1.6206 30.8163 1.60569 30.8063 1.59574 30.8013 1.59574 30.8013 1.60072 30.8013 1.59574 30.7914 1.58083 30.7815 1.57089 30.7715 1.56095 30.7665 1.56095 30.7665 1.56592 30.7665 1.56095 30.7566 1.54603 30.7467 1.53609 30.7367 1.52615 30.7318 1.52615 30.7318 1.53112 30.7318 1.52615 30.7268 1.51123 30.7168 1.50129 30.7069 1.49135 30.7019 1.49135 30.7019 1.49632 30.7019 1.49135 30.697 1.48141 30.682 1.46649 30.6771 1.45655 30.6721 1.45655 30.6721 1.45655 30.6721 1.45655 30.6671 1.44164 30.6572 1.4317 30.6472 1.42175 30.6423 1.42175 30.6423 1.42175 30.6423 1.42175 30.6373 1.40684 30.6274 1.3969 30.6174 1.38696 30.6124 1.38696 30.6124 1.38696 30.6124 1.38696 30.6075 1.37701 30.5975 1.36707 30.5876 1.35713 30.5826 1.35713 30.5826 1.35713 30.5826 1.35713 30.5776 1.34221 30.5677 1.33227 30.5578 1.32233 30.5528 1.30742 30.5379 1.28753 30.5279 1.26765 30.4981 1.25273 30.4732 1.24279 30.4683 1.23285 30.4633 1.22291 30.4633 1.21296 30.4633 1.20799 30.4335 1.19308 30.4086 1.17817 30.3987 1.15828 30.3937 1.15828 30.3937 1.15828 30.3937 1.15828 30.3788 1.15331 30.3689 1.14337 30.3639 1.13343 30.3639 1.13343 30.3639 1.12845 30.3639 1.13343 30.349 1.12845 30.3341 1.11851 30.3341 1.10857 30.3341 1.10857 30.3341 1.1036 30.3341 1.10857 30.3191 1.09863 30.3042 1.08869 30.3042 1.07874 30.3042 1.07874 30.3042 1.07377 30.3042 1.07874 30.2893 1.0688 30.2744 1.06383 30.2744 1.05389 30.2744 1.05389 30.2744 1.04892 30.2744 1.05389 30.2595 1.04892 30.2446 1.03897 30.2446 1.02903 30.2446 1.02903 30.2446 1.01909 30.2446 1.02406 30.2297 1.02406 30.2098 1.01909 30.1998 1.00418 30.18 0.989262 30.175 0.974349 30.18 0.964406 30.18 0.964406 30.18 0.964406 30.18 0.964406 30.165 0.914695 30.1054 0.860012 30.0606 0.8103 30.0159 0.8103 30.0159 0.8103 30.0159 0.8103 30.006 0.800358 29.991 0.790415 29.9861 0.775502 29.9811 0.775502 29.9811 0.780473 29.9811 0.775502 29.9712 0.76556 29.9612 0.750646 29.9513 0.740704 29.9463 0.740704 29.9463 0.745675 29.9463 0.740704 29.9364 0.720819 29.9115 0.695963 29.8966 0.676079 29.8817 0.676079 29.8817 0.68105 29.8817 0.676079 29.8717 0.661165 29.8618 0.651223 29.8519 0.64128 29.8469 0.64128 29.8469 0.646252 29.8469 0.64128 29.8369 0.631338 29.822 0.621396 29.8171 0.611453 29.8121 0.611453 29.8121 0.616425 29.8121 0.611453 29.8071 0.59654 29.7972 0.586598 29.7872 0.576655 29.7823 0.576655 29.7823 0.576655 29.7823 0.576655 29.7773 0.561742 29.7673 0.551799 29.7574 0.541857 29.7524 0.541857 29.7524 0.541857 29.7524 0.541857 29.7475 0.526944 29.7375 0.517001 29.7276 0.507059 29.7226 0.507059 29.7226 0.507059 29.7226 0.507059 29.7176 0.492145 29.7077 0.487174 29.6977 0.477232 29.6928 0.477232 29.6928 0.477232 29.6928 0.477232 29.6878 0.462318 29.6779 0.457347 29.6679 0.447405 29.6629 0.447405 29.6629 0.447405 29.6629 0.447405 29.658 0.432491 29.648 0.42752 29.6381 0.417578 29.6331 0.417578 29.6331 0.417578 29.6331 0.417578 29.6282 0.402664 29.6182 0.397693 29.6083 0.387751 29.6033 0.387751 29.6033 0.387751 29.6033 0.387751 29.5934 0.362895 29.5685 0.338039 29.5486 0.313183 29.5337 0.313183 29.5337 0.313183 29.5287 0.313183 29.5188 0.308212 29.5039 0.29827 29.5039 0.288328 29.5039 0.288328 29.5039 0.283356 29.5039 0.288328 29.489 0.273414 29.4691 0.258501 29.4591 0.238616 29.4492 0.238616 29.4492 0.238616 29.4492 0.238616 29.4392 0.21376 29.4144 0.188904 29.3945 0.164048 29.3796 0.164048 29.3796 0.164048 29.3796 0.164048 29.3647 0.139193 29.3249 0.109366 29.2951 0.0795387 29.2702 0.0795387 29.2702 0.0795387 29.2702 0.0795387 29.2603 0.059654 29.2056 0.0397693 29.1559 0.0198847 29.1012 0.0198847 29.0813 0.0198847 29.0664 0.0248558 29.0565Z" fill="#015A9E" transform="matrix(1.02231 0 0 1 19.5239 362)"/><path d="M0.144164 5.4484C0.228674 5.49314 0.313183 5.53291 0.372837 5.59753 1.40684 6.69616 2.43587 7.79479 3.46987 8.89839 4.00676 9.47007 4.54365 10.0418 5.08053 10.6333 5.07059 10.7029 5.06562 10.7526 5.06562 10.8023 5.06562 11.4436 5.06562 12.0849 5.06562 12.7411 5.05568 13.0145 5.04573 13.278 5.03579 13.5365 5.00596 14.2126 5.10042 14.8986 4.97614 15.5697 4.97614 15.5697 4.97614 15.5697 4.97117 15.5697 4.95625 15.5896 4.95128 15.6095 4.94134 15.6244 4.94134 15.6244 4.94134 15.6244 4.9314 15.6244 4.90654 15.6592 4.89163 15.689 4.88169 15.7188 4.88169 15.7188 4.88169 15.7188 4.87671 15.7188 4.86677 15.7337 4.8618 15.7437 4.8618 15.7536 4.8618 15.7536 4.8618 15.7536 4.85186 15.7536 4.83197 15.7735 4.827 15.7934 4.82203 15.8083 4.82203 15.8083 4.82203 15.8083 4.81706 15.8083 4.7922 15.8431 4.77729 15.8729 4.76238 15.9028 4.76238 15.9028 4.76238 15.9028 4.75741 15.9028 4.72261 15.9525 4.69278 16.0022 4.66793 16.0519 4.66793 16.0519 4.66793 16.0519 4.66295 16.0519 4.64804 16.0718 4.64307 16.0917 4.63313 16.1215 4.40942 16.4645 4.18572 16.7976 3.96202 17.1306 3.44005 17.2151 2.9131 17.2997 2.39113 17.3742 2.02824 17.4289 1.66534 17.4687 1.29747 17.5134 1.26765 17.5134 1.23782 17.5035 1.19805 17.4985 1.08371 17.3891 0.97932 17.2847 0.869954 17.1555 0.850069 17.1257 0.835156 17.1207 0.820242 17.1108 0.820242 17.1108 0.830185 17.1058 0.830185 17.0958 0.775502 17.0412 0.72579 16.9964 0.671107 16.9467 0.671107 16.9467 0.671107 16.9467 0.676079 16.9368 0.646252 16.902 0.611453 16.8771 0.581626 16.8523 0.581626 16.8523 0.581626 16.8523 0.581626 16.8423 0.561742 16.8175 0.541857 16.8025 0.517001 16.7876 0.517001 16.7876 0.517001 16.7876 0.517001 16.7777 0.497117 16.7528 0.477232 16.7379 0.452376 16.723 0.452376 16.723 0.452376 16.723 0.452376 16.7131 0.437463 16.6981 0.422549 16.6932 0.407636 16.6832 0.407636 16.6832 0.402664 16.6783 0.407636 16.6633 0.402664 16.6534 0.392722 16.6484 0.38278 16.6484 0.38278 16.6484 0.372837 16.6484 0.377809 16.6335 0.372837 16.6186 0.362895 16.6186 0.352953 16.6186 0.352953 16.6186 0.34301 16.6186 0.347982 16.6037 0.34301 16.5888 0.333068 16.5888 0.323126 16.5838 0.323126 16.5838 0.323126 16.5838 0.323126 16.5689 0.313183 16.554 0.303241 16.549 0.293299 16.544 0.293299 16.544 0.293299 16.5341 0.293299 16.5291 0.283356 16.5192 0.273414 16.5092 0.268443 16.5043 0.268443 16.5043 0.268443 16.5043 0.268443 16.4993 0.258501 16.4844 0.248558 16.4794 0.238616 16.4744 0.238616 16.4744 0.238616 16.4744 0.238616 16.4645 0.208789 16.4098 0.178962 16.3651 0.149135 16.3203 0.139193 16.2955 0.12925 16.2657 0.119308 16.2209 0.119308 16.0718 0.114337 15.9475 0.114337 15.8183 0.114337 12.4826 0.114337 9.14695 0.114337 5.80632 0.114337 5.7417 0.0994233 5.67707 0.089481 5.61245 0.0994233 5.55279 0.114337 5.49314 0.134221 5.42851Z" fill="#025294" transform="matrix(1.02231 0 0 1 19.5239 362)"/><path d="M6.07477 35.0616C6.11453 35.0119 6.14436 34.9473 6.19407 34.9075 6.46749 34.659 6.75084 34.4104 7.02923 34.1619 7.48658 33.7542 7.94889 33.3516 8.40127 32.9389 8.79399 32.586 9.17677 32.2281 9.57447 31.8652 9.59435 31.8552 9.59932 31.8503 9.61424 31.8503 9.61921 31.8503 9.62915 31.8552 9.63909 31.8652 9.73354 31.8751 9.82302 31.8851 9.90753 31.8801 10.0915 31.8652 10.2704 31.8453 10.4544 31.8254 10.7029 31.8006 10.9515 31.7856 11.2 31.7558 11.543 31.721 11.8861 31.6763 12.234 31.6415 12.5671 31.6067 12.9051 31.5768 13.2382 31.542 13.6956 31.4923 14.1479 31.4426 14.6053 31.3929 14.819 31.3681 15.0378 31.3333 15.2665 31.3034 15.3858 31.2935 15.4951 31.2836 15.5995 31.2736 16.037 31.2239 16.4794 31.1742 16.9169 31.1245 16.9815 31.1145 17.0412 31.0847 17.1008 31.0648 17.1157 31.0648 17.1306 31.0648 17.1654 31.0648 17.2499 31.0648 17.3146 31.0499 17.3792 31.035 17.4041 31.035 17.4289 31.03 17.4736 31.035 17.5432 31.035 17.588 31.025 17.6377 31.0151 18.0056 30.9654 18.3734 30.9157 18.7711 30.866 18.8159 30.866 18.8308 30.866 18.8507 30.866 18.7115 31.03 18.5872 31.214 18.4281 31.3581 17.578 32.1386 16.718 32.9141 15.863 33.6896 15.7586 33.784 15.6443 33.8735 15.52 33.9729 15.5001 33.9978 15.4902 34.0127 15.4852 34.0276 15.4852 34.0276 15.4802 34.0276 15.4703 34.0276 15.4255 34.0525 15.3858 34.0823 15.346 34.1121 15.346 34.1121 15.346 34.1121 15.341 34.1121 15.3311 34.1271 15.3211 34.132 15.3162 34.142 15.3162 34.142 15.3162 34.142 15.3062 34.142 15.1074 34.1917 14.9185 34.2464 14.7147 34.2961 14.3219 34.3358 13.9441 34.3756 13.5663 34.4204 13.4271 34.4353 13.2929 34.475 13.1537 34.5049 13.0692 34.5049 12.9897 34.5098 12.8853 34.5049 12.6417 34.5098 12.418 34.5247 12.1992 34.5446 11.8214 34.5794 11.4387 34.6242 11.0509 34.6639 11.026 34.6838 11.0111 34.7037 10.9962 34.7186 10.9813 34.7186 10.9664 34.7186 10.9366 34.7137 10.6234 34.7236 10.3251 34.7335 10.0318 34.7584 9.52475 34.8031 9.0177 34.8578 8.51064 34.9125 8.4659 34.9125 8.42116 34.9473 8.37642 34.9672 8.22231 34.9871 8.0682 35.002 7.89421 35.0119 7.85444 34.997 7.83953 34.9871 7.81964 34.9871 7.52137 35.0119 7.2231 35.0368 6.90992 35.0616 6.62656 35.1014 6.35812 35.1511 6.08968 35.0616Z" fill="#02508B" transform="matrix(1.02231 0 0 1 19.5239 362)"/><path d="M0.0944522 5.64227C0.104394 5.69199 0.119308 5.75661 0.119308 5.82124 0.119308 9.15689 0.119308 12.4925 0.119308 15.8332 0.119308 15.9574 0.124279 16.0867 0.124279 16.2209 0.104394 16.1314 0.0695963 16.032 0.0695963 15.9326 0.0695963 12.5075 0.0795387 9.08232 0.089481 5.64227Z" fill="#273575" transform="matrix(1.02231 0 0 1 19.5239 362)"/><path d="M19.1241 15.3957C19.1141 15.3609 19.0992 15.3112 19.0992 15.2615 19.0992 12.0253 19.0992 8.78902 19.0992 5.55776 19.0992 5.51799 19.1042 5.47823 19.1141 5.42354 19.1241 5.54782 19.129 5.68204 19.129 5.81129 19.129 8.99781 19.129 12.1893 19.129 15.3907Z" fill="#154CA1" transform="matrix(1.02231 0 0 1 19.5239 362)"/><path d="M18.9451 27.8435C18.9451 27.2768 18.9451 26.715 18.9451 26.1483 18.9501 25.4573 18.965 24.7663 18.9749 24.0704 18.9749 24.0356 18.9948 23.9958 19.0197 23.956 19.0346 24.0356 19.0346 24.1201 19.0296 24.2195 19.0247 24.2394 19.0197 24.2444 19.0197 24.2444 19.0197 24.2493 19.0296 24.2543 19.0296 24.2593 19.0296 24.2742 19.0296 24.2841 19.0247 24.314 19.0247 24.3587 19.0247 24.3836 19.0247 24.4134 19.0247 24.4283 19.0247 24.4383 19.0147 24.4731 19.0097 24.5774 19.0147 24.6669 19.0147 24.7514 19.0097 25.3281 18.9998 25.9047 18.9849 26.5013 18.9849 26.5709 18.9849 26.6156 18.9849 26.6653 18.9749 27.0481 18.97 27.4259 18.9551 27.8236 18.9451 27.8385 18.9352 27.8385 18.9352 27.8385Z" fill="#298CCC" transform="matrix(1.02231 0 0 1 19.5239 362)"/><path d="M0.124279 29.0018C0.124279 29.0266 0.124279 29.0416 0.114337 29.0614 0.109366 29.0714 0.0944522 29.0714 0.0944522 29.0714 0.0845098 29.0167 0.0646252 28.967 0.059654 28.9123 0.059654 28.3456 0.059654 27.7838 0.059654 27.1923 0.059654 26.4118 0.059654 25.6562 0.059654 24.9055 0.059654 24.8608 0.0447405 24.8161 0.0397693 24.7713 0.0397693 24.7514 0.0347982 24.7316 0.0497117 24.7067 0.0745675 24.6968 0.0845098 24.6968 0.0944522 24.6968 0.104394 26.1285 0.114337 27.5601 0.12925 29.0068Z" fill="#1A2052" transform="matrix(1.02231 0 0 1 19.5239 362)"/><path d="M8.37642 34.9672C8.40624 34.9473 8.45098 34.9125 8.49572 34.9125 9.00278 34.8578 9.50984 34.8031 10.0169 34.7584 10.3102 34.7335 10.6085 34.7186 10.9117 34.7137 10.1462 34.7982 9.37562 34.8727 8.60012 34.9473 8.53052 34.9523 8.46093 34.9622 8.37642 34.9722Z" fill="#233B77" transform="matrix(1.02231 0 0 1 19.5239 362)"/><path d="M18.8606 30.8013C18.8705 29.9712 18.8904 29.136 18.9103 28.3008 18.9103 28.276 18.9302 28.2462 18.9551 28.2163 18.97 28.2561 18.97 28.3008 18.96 28.3605 18.96 28.4052 18.96 28.4301 18.96 28.4599 18.9501 29.131 18.9451 29.8071 18.9302 30.4782 18.9302 30.5826 18.8855 30.687 18.8556 30.8013Z" fill="#2B92D0" transform="matrix(1.02231 0 0 1 19.5239 362)"/><path d="M11.4138 0.0447405C11.374 0.0546828 11.3392 0.0745675 11.2995 0.0745675 10.6234 0.0745675 9.9473 0.0745675 9.27122 0.0745675 9.25134 0.0745675 9.23146 0.0695963 9.20163 0.0546828 9.92245 0.0347982 10.6532 0.0248558 11.3989 0.0198847 11.4138 0.029827 11.4138 0.0397693 11.4138 0.0397693Z" fill="#2B87C8" transform="matrix(1.02231 0 0 1 19.5239 362)"/><path d="M11.0459 34.6639C11.4237 34.6242 11.8065 34.5844 12.1843 34.5446 12.408 34.5247 12.6268 34.5098 12.8604 34.4999 12.6516 34.5397 12.4428 34.5745 12.2241 34.5943 11.8413 34.6341 11.4536 34.6639 11.0559 34.6987 11.0459 34.6838 11.0459 34.6739 11.0459 34.659Z" fill="#223D7A" transform="matrix(1.02231 0 0 1 19.5239 362)"/><path d="M6.90992 0.104394C6.83038 0.114337 6.75084 0.134221 6.66633 0.134221 6.33327 0.134221 6.0002 0.12925 5.66713 0.134221 5.42851 0.139193 5.1899 0.173991 4.94134 0.188904 5.10539 0.154106 5.27938 0.104394 5.45834 0.0944522 5.9306 0.0745675 6.40783 0.0745675 6.89501 0.0795387 6.90992 0.089481 6.90992 0.0994233 6.90992 0.0994233Z" fill="#2B78BD" transform="matrix(1.02231 0 0 1 19.5239 362)"/><path d="M13.1587 34.5049C13.283 34.475 13.4172 34.4353 13.5564 34.4154 13.9342 34.3706 14.312 34.3309 14.7047 34.301 14.7196 34.3209 14.7196 34.3358 14.7196 34.3458 14.2026 34.4005 13.6906 34.4502 13.1587 34.4999Z" fill="#233974" transform="matrix(1.02231 0 0 1 19.5239 362)"/><path d="M0.0347982 24.7862C0.0447405 24.8161 0.059654 24.8658 0.059654 24.9105 0.059654 25.6661 0.059654 26.4168 0.059654 27.1823 0.0447405 26.3969 0.0347982 25.5965 0.029827 24.7862Z" fill="#174477" transform="matrix(1.02231 0 0 1 19.5239 362)"/><path d="M6.92483 0.104394C6.92483 0.104394 6.90992 0.089481 6.90992 0.0845098 7.3275 0.0745675 7.74508 0.0646252 8.19248 0.0646252 8.3615 0.0646252 8.49572 0.0546828 8.63492 0.0497117 8.64983 0.0497117 8.66474 0.0497117 8.6896 0.0497117 8.70451 0.0546828 8.71445 0.059654 8.71445 0.059654 8.71445 0.059654 8.7244 0.0497117 8.7244 0.0497117 8.7592 0.0497117 8.78902 0.0497117 8.83376 0.0497117 8.79399 0.0695963 8.74428 0.104394 8.6896 0.104394 8.103 0.104394 7.5164 0.104394 6.91489 0.104394Z" fill="#2C73BA" transform="matrix(1.02231 0 0 1 19.5239 362)"/><path d="M19.0346 23.8467C19.0346 23.8467 19.0097 23.7821 19.0097 23.7473 19.0097 23.3197 19.0097 22.8972 19.0097 22.4697 19.0097 22.4349 19.0296 22.3951 19.0545 22.3553 19.0644 22.4249 19.0694 22.4995 19.0545 22.594 19.0445 22.6983 19.0445 22.7779 19.0396 22.8574 19.0396 23.1805 19.0396 23.5037 19.0346 23.8417Z" fill="#298CCC" transform="matrix(1.02231 0 0 1 19.5239 362)"/><path d="M11.4287 0.0447405C11.4287 0.0447405 11.4138 0.029827 11.4138 0.0248558 11.7717 0.00994233 12.1296 0.00497117 12.4975 0.00497117 12.6566 0.00497117 12.8057 0.00497117 12.9499 0.00497117 12.9499 0.0198847 12.9499 0.029827 12.9499 0.0447405 12.4478 0.0447405 11.9457 0.0447405 11.4237 0.0447405Z" fill="#2C73BA" transform="matrix(1.02231 0 0 1 19.5239 362)"/><path d="M6.90992 35.0616C7.20819 35.0368 7.50646 35.0119 7.80473 34.9871 7.82462 34.9871 7.83953 34.997 7.86438 35.0119 7.55617 35.0567 7.24796 35.0915 6.91986 35.1163 6.90495 35.0915 6.90495 35.0815 6.90495 35.0666Z" fill="#243570" transform="matrix(1.02231 0 0 1 19.5239 362)"/><path d="M6.89998 35.0616C6.89998 35.0616 6.91489 35.0865 6.91489 35.1064 6.59674 35.1412 6.27361 35.2008 5.95546 35.0716 5.98528 35.0616 6.02008 35.0567 6.06979 35.0567 6.35315 35.1511 6.62159 35.1014 6.90495 35.0567Z" fill="#233974" transform="matrix(1.02231 0 0 1 19.5239 362)"/><path d="M0.0944522 24.6818C0.0944522 24.6818 0.0745675 24.6968 0.0497117 24.6968 0.0347982 24.5128 0.029827 24.3239 0.029827 24.1251 0.029827 24.1102 0.0497117 24.1151 0.0546828 24.1151 0.0695963 24.2991 0.0795387 24.483 0.089481 24.6818Z" fill="#174477" transform="matrix(1.02231 0 0 1 19.5239 362)"/><path d="M14.7296 34.3508C14.7296 34.3508 14.7196 34.3259 14.7196 34.306 14.9085 34.2464 15.0974 34.1917 15.2963 34.142 15.1173 34.2116 14.9284 34.2812 14.7296 34.3508Z" fill="#243975" transform="matrix(1.02231 0 0 1 19.5239 362)"/><path d="M8.62497 0.0497117C8.50069 0.059654 8.3615 0.0646252 8.2074 0.0695963 8.33167 0.059654 8.47087 0.0546828 8.62497 0.0497117Z" fill="#218FCE" transform="matrix(1.02231 0 0 1 19.5239 362)"/><path d="M18.97 28.1368C18.8855 28.1119 18.8904 28.0573 18.96 27.9976 18.97 28.0374 18.9749 28.0821 18.97 28.1368Z" fill="#2B92D0" transform="matrix(1.02231 0 0 1 19.5239 362)"/><path d="M0.671107 16.9716C0.720819 17.0064 0.770531 17.0561 0.820242 17.1108 0.770531 17.076 0.72579 17.0262 0.671107 16.9716Z" fill="#233D7E" transform="matrix(1.02231 0 0 1 19.5239 362)"/><path d="M0.884868 29.991C0.934579 30.0258 0.984291 30.0756 1.034 30.1302 0.984291 30.0954 0.93955 30.0457 0.884868 29.991Z" fill="#233F85" transform="matrix(1.02231 0 0 1 19.5239 362)"/><path d="M0.154106 16.3452C0.183933 16.38 0.21376 16.4247 0.243587 16.4794 0.21376 16.4446 0.183933 16.3999 0.154106 16.3452Z" fill="#233D7E" transform="matrix(1.02231 0 0 1 19.5239 362)"/><path d="M19.0296 24.7465C19.0247 24.6719 19.0197 24.5874 19.0247 24.4929 19.0346 24.5675 19.0346 24.652 19.0296 24.7465Z" fill="#3CB3E7" transform="matrix(1.02231 0 0 1 19.5239 362)"/><path d="M19.0495 22.8525C19.0445 22.7829 19.0495 22.7033 19.0495 22.6138 19.0545 22.6834 19.0495 22.763 19.0495 22.8525Z" fill="#1EA4DE" transform="matrix(1.02231 0 0 1 19.5239 362)"/><path d="M0.0944522 29.0863C0.0944522 29.0863 0.109366 29.0764 0.114337 29.0764 0.139193 29.1211 0.164048 29.1708 0.183933 29.2305 0.154106 29.1957 0.124279 29.1459 0.0994233 29.0913Z" fill="#233F85" transform="matrix(1.02231 0 0 1 19.5239 362)"/><path d="M0.581626 16.8721C0.611453 16.8871 0.64128 16.9119 0.671107 16.9517 0.64128 16.9368 0.611453 16.9119 0.581626 16.8721Z" fill="#233D7E" transform="matrix(1.02231 0 0 1 19.5239 362)"/><path d="M15.346 34.1072C15.3758 34.0823 15.4106 34.0525 15.4603 34.0227 15.4305 34.0525 15.3957 34.0773 15.346 34.1072Z" fill="#243975" transform="matrix(1.02231 0 0 1 19.5239 362)"/><path d="M17.583 3.54941C17.583 3.54941 17.5333 3.51959 17.5084 3.48976 17.5333 3.4997 17.5582 3.51959 17.583 3.54941Z" fill="#2D78BE" transform="matrix(1.02231 0 0 1 19.5239 362)"/><path d="M0.178962 29.2454C0.203818 29.2653 0.233645 29.2901 0.258501 29.3299 0.228674 29.31 0.203818 29.2851 0.178962 29.2454Z" fill="#233F85" transform="matrix(1.02231 0 0 1 19.5239 362)"/><path d="M18.9998 26.6604C18.9899 26.6256 18.9899 26.5808 18.9899 26.5261 18.9998 26.5609 18.9998 26.6057 18.9998 26.6604Z" fill="#40B5E8" transform="matrix(1.02231 0 0 1 19.5239 362)"/><path d="M0.268443 29.3547C0.268443 29.3547 0.313183 29.3796 0.338039 29.4094 0.318155 29.3995 0.293299 29.3796 0.268443 29.3547Z" fill="#233F85" transform="matrix(1.02231 0 0 1 19.5239 362)"/><path d="M0.422549 29.5088C0.422549 29.5088 0.46729 29.5337 0.492145 29.5635 0.472261 29.5536 0.447405 29.5337 0.422549 29.5088Z" fill="#233F85" transform="matrix(1.02231 0 0 1 19.5239 362)"/><path d="M11.036 34.6639C11.036 34.6639 11.0459 34.6838 11.0459 34.7037 11.031 34.7186 11.0211 34.7186 10.9962 34.7236 10.9962 34.7037 11.0161 34.6838 11.036 34.6639Z" fill="#233B77" transform="matrix(1.02231 0 0 1 19.5239 362)"/><path d="M18.8407 30.861C18.8407 30.861 18.801 30.861 18.7711 30.861 18.786 30.8461 18.8109 30.8262 18.8457 30.8063 18.8507 30.8212 18.8457 30.8361 18.8457 30.861Z" fill="#2B92D0" transform="matrix(1.02231 0 0 1 19.5239 362)"/><path d="M0.462318 16.7479C0.462318 16.7479 0.502088 16.7677 0.521972 16.7926 0.502088 16.7876 0.482203 16.7727 0.462318 16.7479Z" fill="#233D7E" transform="matrix(1.02231 0 0 1 19.5239 362)"/><path d="M0.521972 16.8125C0.521972 16.8125 0.561742 16.8324 0.581626 16.8572 0.561742 16.8523 0.541857 16.8373 0.521972 16.8125Z" fill="#233D7E" transform="matrix(1.02231 0 0 1 19.5239 362)"/><path d="M18.97 28.45C18.97 28.45 18.96 28.4102 18.96 28.3754 18.97 28.3903 18.97 28.4152 18.97 28.45Z" fill="#1EA4DE" transform="matrix(1.02231 0 0 1 19.5239 362)"/><path d="M19.0346 24.4084C19.0346 24.4084 19.0247 24.3637 19.0247 24.3339 19.0346 24.3488 19.0346 24.3736 19.0346 24.4084Z" fill="#3CB3E7" transform="matrix(1.02231 0 0 1 19.5239 362)"/><path d="M2.08789 31.2388C2.08789 31.2388 2.12766 31.2537 2.14257 31.2736 2.12269 31.2736 2.10777 31.2587 2.08789 31.2388Z" fill="#224188" transform="matrix(1.02231 0 0 1 19.5239 362)"/><path d="M1.86916 31.0101C1.86916 31.0101 1.90893 31.03 1.92881 31.0549 1.90893 31.0499 1.89401 31.035 1.86916 31.0101Z" fill="#224188" transform="matrix(1.02231 0 0 1 19.5239 362)"/><path d="M1.77968 30.9157C1.77968 30.9157 1.81945 30.9356 1.83933 30.9654 1.81945 30.9604 1.79956 30.9405 1.77968 30.9157Z" fill="#224188" transform="matrix(1.02231 0 0 1 19.5239 362)"/><path d="M1.99344 31.1394C1.99344 31.1394 2.03321 31.1543 2.04812 31.1792 2.02824 31.1792 2.01332 31.1593 1.99344 31.1394Z" fill="#224188" transform="matrix(1.02231 0 0 1 19.5239 362)"/><path d="M0.76556 29.8618C0.76556 29.8618 0.805329 29.8817 0.825214 29.9115 0.805329 29.9065 0.785444 29.8867 0.76556 29.8618Z" fill="#233F85" transform="matrix(1.02231 0 0 1 19.5239 362)"/><path d="M3.08709 32.2678C3.08709 32.2678 3.12686 32.2877 3.14675 32.3126 3.12686 32.3076 3.11195 32.2927 3.08709 32.2678Z" fill="#224188" transform="matrix(1.02231 0 0 1 19.5239 362)"/><path d="M1.6902 30.8212C1.6902 30.8212 1.72997 30.8411 1.74985 30.866 1.72997 30.861 1.71008 30.8461 1.6902 30.8212Z" fill="#224188" transform="matrix(1.02231 0 0 1 19.5239 362)"/><path d="M1.25273 30.3738C1.25273 30.3738 1.27759 30.3838 1.2925 30.3987 1.28256 30.3987 1.26765 30.3887 1.25273 30.3738Z" fill="#214289" transform="matrix(1.02231 0 0 1 19.5239 362)"/><path d="M15.4802 34.0276C15.4802 34.0276 15.4852 34.0028 15.5051 33.9879 15.5051 33.9978 15.4951 34.0127 15.4802 34.0276Z" fill="#243975" transform="matrix(1.02231 0 0 1 19.5239 362)"/><path d="M4.92643 0.193875C4.92643 0.193875 4.90654 0.21376 4.88169 0.223702 4.88666 0.21376 4.90157 0.203818 4.92643 0.193875Z" fill="#2B78BD" transform="matrix(1.02231 0 0 1 19.5239 362)"/><path d="M3.84271 33.0533C3.84271 33.0533 3.86757 33.0632 3.88248 33.0781 3.87254 33.0781 3.85763 33.0682 3.84271 33.0533Z" fill="#233F87" transform="matrix(1.02231 0 0 1 19.5239 362)"/><path d="M2.14754 31.2985C2.14754 31.2985 2.1724 31.3084 2.18731 31.3233 2.17737 31.3233 2.16246 31.3134 2.14754 31.2985Z" fill="#224188" transform="matrix(1.02231 0 0 1 19.5239 362)"/><path d="M3.04235 32.2231C3.04235 32.2231 3.06721 32.233 3.08212 32.248 3.07218 32.248 3.05727 32.238 3.04235 32.2231Z" fill="#224188" transform="matrix(1.02231 0 0 1 19.5239 362)"/><path d="M0.338039 29.4243C0.338039 29.4243 0.367866 29.4343 0.38278 29.4542 0.367866 29.4542 0.352953 29.4442 0.338039 29.4243Z" fill="#233F85" transform="matrix(1.02231 0 0 1 19.5239 362)"/><path d="M1.07874 30.1551C1.07874 30.1551 1.08869 30.175 1.08869 30.1899 1.07377 30.1899 1.05886 30.175 1.05389 30.1601 1.06383 30.1551 1.07377 30.1501 1.07874 30.1501Z" fill="#214289" transform="matrix(1.02231 0 0 1 19.5239 362)"/><path d="M4.8618 0.223702C4.8618 0.223702 4.87174 0.238616 4.87174 0.258501 4.85683 0.268443 4.84192 0.263472 4.81706 0.258501 4.81706 0.243587 4.83694 0.233645 4.85683 0.223702Z" fill="#2B78BD" transform="matrix(1.02231 0 0 1 19.5239 362)"/><path d="M0.422549 16.7081C0.422549 16.7081 0.447405 16.7131 0.462318 16.7329 0.452376 16.7329 0.437463 16.723 0.422549 16.7081Z" fill="#233D7E" transform="matrix(1.02231 0 0 1 19.5239 362)"/><path d="M0.820242 17.1306C0.820242 17.1306 0.845098 17.1406 0.860012 17.1605 0.850069 17.1605 0.835156 17.1505 0.820242 17.1306Z" fill="#233D7E" transform="matrix(1.02231 0 0 1 19.5239 362)"/><path d="M17.4736 3.44005C17.4736 3.44005 17.4488 3.4301 17.4339 3.41022 17.4438 3.41022 17.4587 3.42016 17.4736 3.44005Z" fill="#2D78BE" transform="matrix(1.02231 0 0 1 19.5239 362)"/><path d="M18.9451 27.8534C18.9451 27.8534 18.96 27.8435 18.965 27.8435 18.9749 27.8584 18.9749 27.8684 18.9749 27.8932 18.965 27.8932 18.9551 27.8733 18.9451 27.8534Z" fill="#2B92D0" transform="matrix(1.02231 0 0 1 19.5239 362)"/><path d="M2.46073 31.6216C2.46073 31.6216 2.48061 31.6216 2.49055 31.6415 2.48061 31.6415 2.47564 31.6415 2.46073 31.6216Z" fill="#224188" transform="matrix(1.02231 0 0 1 19.5239 362)"/><path d="M3.26606 32.4518C3.26606 32.4518 3.28097 32.4518 3.29588 32.4717 3.29091 32.4717 3.28097 32.4717 3.26606 32.4518Z" fill="#224188" transform="matrix(1.02231 0 0 1 19.5239 362)"/><path d="M3.23623 32.4219C3.23623 32.4219 3.25114 32.4219 3.26606 32.4418 3.26109 32.4418 3.25114 32.4418 3.23623 32.4219Z" fill="#224188" transform="matrix(1.02231 0 0 1 19.5239 362)"/><path d="M3.2064 32.3871C3.2064 32.3871 3.22132 32.3871 3.23623 32.407 3.23126 32.407 3.22132 32.407 3.2064 32.3871Z" fill="#224188" transform="matrix(1.02231 0 0 1 19.5239 362)"/><path d="M3.14675 32.3275C3.14675 32.3275 3.16166 32.3275 3.17658 32.3474 3.1716 32.3474 3.16166 32.3474 3.14675 32.3275Z" fill="#224188" transform="matrix(1.02231 0 0 1 19.5239 362)"/><path d="M0.328097 16.6087C0.328097 16.6087 0.34301 16.6087 0.352953 16.6186 0.34301 16.6236 0.338039 16.6186 0.328097 16.6087Z" fill="#233D7E" transform="matrix(1.02231 0 0 1 19.5239 362)"/><path d="M0.362895 16.6435C0.362895 16.6435 0.377809 16.6435 0.38278 16.6484 0.372837 16.6534 0.367866 16.6484 0.362895 16.6435Z" fill="#233D7E" transform="matrix(1.02231 0 0 1 19.5239 362)"/><path d="M3.01253 32.1883C3.01253 32.1883 3.03241 32.1883 3.03738 32.1982 3.02744 32.2032 3.02247 32.1982 3.01253 32.1883Z" fill="#224188" transform="matrix(1.02231 0 0 1 19.5239 362)"/><path d="M2.9827 32.1585C2.9827 32.1585 3.00258 32.1585 3.00756 32.1684 2.99761 32.1734 2.99264 32.1684 2.9827 32.1585Z" fill="#224188" transform="matrix(1.02231 0 0 1 19.5239 362)"/><path d="M2.95287 32.1286C2.95287 32.1286 2.97276 32.1286 2.97773 32.1386 2.96779 32.1436 2.95784 32.1386 2.95287 32.1286Z" fill="#224188" transform="matrix(1.02231 0 0 1 19.5239 362)"/><path d="M2.55518 31.716C2.55518 31.716 2.57506 31.721 2.58998 31.7409 2.58004 31.7409 2.57009 31.7359 2.55518 31.716Z" fill="#224188" transform="matrix(1.02231 0 0 1 19.5239 362)"/><path d="M2.52535 31.6812C2.52535 31.6812 2.54524 31.6812 2.55518 31.7011 2.54524 31.7011 2.54027 31.7011 2.52535 31.6812Z" fill="#224188" transform="matrix(1.02231 0 0 1 19.5239 362)"/><path d="M2.49553 31.6514C2.49553 31.6514 2.51044 31.6514 2.52535 31.6713 2.51541 31.6713 2.51044 31.6713 2.49553 31.6514Z" fill="#224188" transform="matrix(1.02231 0 0 1 19.5239 362)"/><path d="M3.33068 32.5114C3.33068 32.5114 3.34559 32.5114 3.36051 32.5313 3.35554 32.5313 3.34559 32.5313 3.33068 32.5114Z" fill="#224188" transform="matrix(1.02231 0 0 1 19.5239 362)"/><path d="M2.4309 31.5868C2.4309 31.5868 2.44581 31.5868 2.46073 31.6067 2.45576 31.6067 2.44581 31.6067 2.4309 31.5868Z" fill="#224188" transform="matrix(1.02231 0 0 1 19.5239 362)"/><path d="M0.392722 16.6733C0.392722 16.6733 0.407636 16.6733 0.412607 16.6783 0.402664 16.6783 0.397693 16.6783 0.392722 16.6733Z" fill="#233D7E" transform="matrix(1.02231 0 0 1 19.5239 362)"/><path d="M2.40107 31.557C2.40107 31.557 2.41599 31.557 2.4309 31.5768 2.42593 31.5768 2.41599 31.5768 2.40107 31.557Z" fill="#224188" transform="matrix(1.02231 0 0 1 19.5239 362)"/><path d="M2.37125 31.5271C2.37125 31.5271 2.38616 31.5271 2.40107 31.547 2.3961 31.547 2.38616 31.547 2.37125 31.5271Z" fill="#224188" transform="matrix(1.02231 0 0 1 19.5239 362)"/><path d="M2.34142 31.4973C2.34142 31.4973 2.35633 31.4973 2.37125 31.5172 2.36628 31.5172 2.35633 31.5172 2.34142 31.4973Z" fill="#224188" transform="matrix(1.02231 0 0 1 19.5239 362)"/><path d="M2.31159 31.4625C2.31159 31.4625 2.32651 31.4625 2.34142 31.4824 2.33645 31.4824 2.32651 31.4824 2.31159 31.4625Z" fill="#224188" transform="matrix(1.02231 0 0 1 19.5239 362)"/><path d="M2.28177 31.4327C2.28177 31.4327 2.29668 31.4327 2.31159 31.4526 2.30662 31.4526 2.29668 31.4526 2.28177 31.4327Z" fill="#224188" transform="matrix(1.02231 0 0 1 19.5239 362)"/><path d="M2.25194 31.4029C2.25194 31.4029 2.26685 31.4029 2.28177 31.4227 2.27679 31.4227 2.26685 31.4227 2.25194 31.4029Z" fill="#224188" transform="matrix(1.02231 0 0 1 19.5239 362)"/><path d="M2.21714 31.3681C2.21714 31.3681 2.23205 31.3681 2.24697 31.3879 2.242 31.3879 2.23205 31.3879 2.21714 31.3681Z" fill="#224188" transform="matrix(1.02231 0 0 1 19.5239 362)"/><path d="M16.7578 2.71923C16.7578 2.71923 16.7429 2.71923 16.728 2.70431 16.7329 2.70431 16.7429 2.70431 16.7578 2.71923Z" fill="#2D78BE" transform="matrix(1.02231 0 0 1 19.5239 362)"/><path d="M16.7876 2.74906C16.7876 2.74906 16.7727 2.74906 16.7578 2.72917 16.7628 2.72917 16.7727 2.72917 16.7876 2.74906Z" fill="#2D78BE" transform="matrix(1.02231 0 0 1 19.5239 362)"/><path d="M4.22549 33.4361C4.22549 33.4361 4.2404 33.4361 4.25532 33.456 4.25035 33.456 4.2404 33.456 4.22549 33.4361Z" fill="#233F87" transform="matrix(1.02231 0 0 1 19.5239 362)"/><path d="M8.7244 0.0497117C8.7244 0.0497117 8.7244 0.059654 8.7244 0.059654 8.7244 0.059654 8.70948 0.059654 8.70948 0.0546828 8.70948 0.0497117 8.71445 0.0497117 8.72937 0.0497117Z" fill="#218FCE" transform="matrix(1.02231 0 0 1 19.5239 362)"/><path d="M16.728 2.68443C16.728 2.68443 16.7131 2.67946 16.6981 2.65957 16.7031 2.65957 16.7131 2.66455 16.728 2.68443Z" fill="#2D78BE" transform="matrix(1.02231 0 0 1 19.5239 362)"/><path d="M0.243587 16.4993C0.243587 16.4993 0.258501 16.5043 0.268443 16.5192 0.263472 16.5192 0.253529 16.5142 0.243587 16.4993Z" fill="#233D7E" transform="matrix(1.02231 0 0 1 19.5239 362)"/><path d="M15.3112 34.142C15.3112 34.142 15.3112 34.1271 15.3261 34.1121 15.3261 34.1171 15.3261 34.1271 15.3112 34.142Z" fill="#243975" transform="matrix(1.02231 0 0 1 19.5239 362)"/><path d="M0.273414 16.5341C0.273414 16.5341 0.288328 16.5391 0.29827 16.554 0.288328 16.554 0.283356 16.549 0.273414 16.5341Z" fill="#233D7E" transform="matrix(1.02231 0 0 1 19.5239 362)"/><path d="M0.29827 16.5689C0.29827 16.5689 0.318155 16.5689 0.323126 16.5838 0.313183 16.5838 0.303241 16.5838 0.29827 16.5689Z" fill="#233D7E" transform="matrix(1.02231 0 0 1 19.5239 362)"/><path d="M4.31497 33.5355C4.31497 33.5355 4.33486 33.5405 4.3448 33.5603 4.33486 33.5603 4.32491 33.5554 4.31497 33.5355Z" fill="#233F87" transform="matrix(1.02231 0 0 1 19.5239 362)"/><path d="M4.28515 33.5007C4.28515 33.5007 4.30006 33.5007 4.31497 33.5206 4.31 33.5206 4.30006 33.5206 4.28515 33.5007Z" fill="#233F87" transform="matrix(1.02231 0 0 1 19.5239 362)"/><path d="M4.25532 33.4709C4.25532 33.4709 4.27023 33.4709 4.28515 33.4907 4.28017 33.4907 4.27023 33.4907 4.25532 33.4709Z" fill="#233F87" transform="matrix(1.02231 0 0 1 19.5239 362)"/><path d="M3.30085 32.4816C3.30085 32.4816 3.31577 32.4816 3.33068 32.5015 3.32571 32.5015 3.31577 32.5015 3.30085 32.4816Z" fill="#224188" transform="matrix(1.02231 0 0 1 19.5239 362)"/><path d="M4.19069 33.4062C4.19069 33.4062 4.20561 33.4062 4.22052 33.4261 4.21555 33.4261 4.20561 33.4261 4.19069 33.4062Z" fill="#233F87" transform="matrix(1.02231 0 0 1 19.5239 362)"/><path d="M4.16087 33.3764C4.16087 33.3764 4.17578 33.3764 4.19069 33.3963 4.18572 33.3963 4.17578 33.3963 4.16087 33.3764Z" fill="#233F87" transform="matrix(1.02231 0 0 1 19.5239 362)"/><path d="M4.13104 33.3466C4.13104 33.3466 4.14595 33.3466 4.16087 33.3665 4.15589 33.3665 4.14595 33.3665 4.13104 33.3466Z" fill="#233F87" transform="matrix(1.02231 0 0 1 19.5239 362)"/><path d="M4.10121 33.3118C4.10121 33.3118 4.11613 33.3118 4.13104 33.3317 4.12607 33.3317 4.11613 33.3317 4.10121 33.3118Z" fill="#233F87" transform="matrix(1.02231 0 0 1 19.5239 362)"/><path d="M4.07138 33.282C4.07138 33.282 4.0863 33.282 4.10121 33.3018 4.09624 33.3018 4.0863 33.3018 4.07138 33.282Z" fill="#233F87" transform="matrix(1.02231 0 0 1 19.5239 362)"/><path d="M3.97693 33.1925C3.97693 33.1925 3.99185 33.1925 4.00676 33.2124 4.00179 33.2124 3.99185 33.2124 3.97693 33.1925Z" fill="#233F87" transform="matrix(1.02231 0 0 1 19.5239 362)"/><path d="M3.94711 33.1577C3.94711 33.1577 3.96202 33.1577 3.97693 33.1776 3.97196 33.1776 3.96202 33.1776 3.94711 33.1577Z" fill="#233F87" transform="matrix(1.02231 0 0 1 19.5239 362)"/><path d="M16.9417 2.90316C16.9417 2.90316 16.9268 2.90316 16.9119 2.88328 16.9169 2.88328 16.9268 2.88328 16.9417 2.90316Z" fill="#2D78BE" transform="matrix(1.02231 0 0 1 19.5239 362)"/><path d="M3.81288 33.0235C3.81288 33.0235 3.83277 33.0235 3.83774 33.0334 3.8278 33.0384 3.81786 33.0334 3.81288 33.0235Z" fill="#233F87" transform="matrix(1.02231 0 0 1 19.5239 362)"/><path d="M3.36051 32.5462C3.36051 32.5462 3.37542 32.5512 3.39034 32.5661 3.38536 32.5661 3.37542 32.5611 3.36051 32.5462Z" fill="#224188" transform="matrix(1.02231 0 0 1 19.5239 362)"/><path d="M16.9119 2.87333C16.9119 2.87333 16.897 2.87333 16.8821 2.85345 16.8871 2.85345 16.897 2.85345 16.9119 2.87333Z" fill="#2D78BE" transform="matrix(1.02231 0 0 1 19.5239 362)"/><path d="M0.855041 29.9562C0.855041 29.9562 0.874925 29.9562 0.884868 29.9761 0.874925 29.9761 0.864983 29.9761 0.855041 29.9562Z" fill="#233F85" transform="matrix(1.02231 0 0 1 19.5239 362)"/><path d="M1.47644 30.6025C1.47644 30.6025 1.49135 30.6025 1.50626 30.6224 1.50129 30.6224 1.49135 30.6224 1.47644 30.6025Z" fill="#214289" transform="matrix(1.02231 0 0 1 19.5239 362)"/><path d="M1.44661 30.5677C1.44661 30.5677 1.46152 30.5677 1.47644 30.5876 1.47147 30.5876 1.46152 30.5876 1.44661 30.5677Z" fill="#214289" transform="matrix(1.02231 0 0 1 19.5239 362)"/><path d="M1.41678 30.5379C1.41678 30.5379 1.4317 30.5379 1.44661 30.5578 1.44164 30.5578 1.4317 30.5578 1.41678 30.5379Z" fill="#214289" transform="matrix(1.02231 0 0 1 19.5239 362)"/><path d="M1.32233 30.4434C1.32233 30.4434 1.33724 30.4484 1.35216 30.4633 1.34719 30.4633 1.33724 30.4583 1.32233 30.4434Z" fill="#214289" transform="matrix(1.02231 0 0 1 19.5239 362)"/><path d="M17.3394 3.30583C17.3394 3.30583 17.3245 3.30583 17.3146 3.28594 17.3195 3.28594 17.3295 3.28594 17.3394 3.30583Z" fill="#2D78BE" transform="matrix(1.02231 0 0 1 19.5239 362)"/><path d="M1.22291 30.339C1.22291 30.339 1.23782 30.339 1.24776 30.344 1.23782 30.349 1.23285 30.344 1.22291 30.339Z" fill="#214289" transform="matrix(1.02231 0 0 1 19.5239 362)"/><path d="M1.19308 30.3092C1.19308 30.3092 1.20799 30.3092 1.21296 30.3142 1.20302 30.3191 1.19805 30.3142 1.19308 30.3092Z" fill="#214289" transform="matrix(1.02231 0 0 1 19.5239 362)"/><path d="M1.16325 30.2794C1.16325 30.2794 1.17817 30.2794 1.18811 30.2843 1.17817 30.2893 1.1732 30.2843 1.16325 30.2794Z" fill="#214289" transform="matrix(1.02231 0 0 1 19.5239 362)"/><path d="M1.13343 30.2495C1.13343 30.2495 1.14834 30.2495 1.15828 30.2595 1.14834 30.2645 1.14337 30.2595 1.13343 30.2495Z" fill="#214289" transform="matrix(1.02231 0 0 1 19.5239 362)"/><path d="M1.09863 30.2147C1.09863 30.2147 1.11354 30.2147 1.12348 30.2197 1.11354 30.2247 1.10857 30.2197 1.09863 30.2147Z" fill="#214289" transform="matrix(1.02231 0 0 1 19.5239 362)"/><path d="M17.0312 2.99761C17.0312 2.99761 17.0163 2.99761 17.0014 2.9827 17.0064 2.9827 17.0163 2.9827 17.0312 2.99761Z" fill="#2D78BE" transform="matrix(1.02231 0 0 1 19.5239 362)"/><path d="M1.07377 30.1501C1.07377 30.1501 1.0688 30.1551 1.05389 30.1551 1.04394 30.1551 1.03897 30.1551 1.034 30.1501 1.04394 30.1452 1.05389 30.1452 1.0688 30.1501Z" fill="#233F85" transform="matrix(1.02231 0 0 1 19.5239 362)"/><path d="M1.50626 30.6323C1.50626 30.6323 1.52118 30.6323 1.53609 30.6522 1.53112 30.6522 1.52118 30.6522 1.50626 30.6323Z" fill="#214289" transform="matrix(1.02231 0 0 1 19.5239 362)"/><path d="M0.825214 29.9264C0.825214 29.9264 0.845098 29.9264 0.855041 29.9463 0.845098 29.9463 0.835156 29.9463 0.825214 29.9264Z" fill="#233F85" transform="matrix(1.02231 0 0 1 19.5239 362)"/><path d="M0.392722 29.474C0.392722 29.474 0.412607 29.474 0.417578 29.479 0.407636 29.484 0.402664 29.479 0.392722 29.474Z" fill="#233F85" transform="matrix(1.02231 0 0 1 19.5239 362)"/><path d="M0.735733 29.832C0.735733 29.832 0.755617 29.832 0.76556 29.8519 0.755617 29.8519 0.745675 29.8519 0.735733 29.832Z" fill="#233F85" transform="matrix(1.02231 0 0 1 19.5239 362)"/><path d="M0.705906 29.7972C0.705906 29.7972 0.720819 29.7972 0.735733 29.8171 0.72579 29.8171 0.720819 29.8171 0.705906 29.7972Z" fill="#233F85" transform="matrix(1.02231 0 0 1 19.5239 362)"/><path d="M0.676079 29.7673C0.676079 29.7673 0.690992 29.7673 0.705906 29.7872 0.700934 29.7872 0.690992 29.7872 0.676079 29.7673Z" fill="#233F85" transform="matrix(1.02231 0 0 1 19.5239 362)"/><path d="M0.64128 29.7375C0.64128 29.7375 0.656194 29.7375 0.671107 29.7574 0.666136 29.7574 0.656194 29.7574 0.64128 29.7375Z" fill="#233F85" transform="matrix(1.02231 0 0 1 19.5239 362)"/><path d="M0.611453 29.7077C0.611453 29.7077 0.626367 29.7077 0.64128 29.7276 0.636309 29.7276 0.626367 29.7276 0.611453 29.7077Z" fill="#233F85" transform="matrix(1.02231 0 0 1 19.5239 362)"/><path d="M0.581626 29.6729C0.581626 29.6729 0.59654 29.6729 0.611453 29.6928 0.606482 29.6928 0.59654 29.6928 0.581626 29.6729Z" fill="#233F85" transform="matrix(1.02231 0 0 1 19.5239 362)"/><path d="M17.1257 3.08709C17.1257 3.08709 17.1108 3.08709 17.0958 3.06721 17.1008 3.06721 17.1108 3.07218 17.1257 3.08709Z" fill="#2D78BE" transform="matrix(1.02231 0 0 1 19.5239 362)"/><path d="M0.551799 29.6431C0.551799 29.6431 0.566713 29.6431 0.581626 29.6629 0.576655 29.6629 0.566713 29.6629 0.551799 29.6431Z" fill="#233F85" transform="matrix(1.02231 0 0 1 19.5239 362)"/><path d="M0.521972 29.6132C0.521972 29.6132 0.536886 29.6132 0.551799 29.6331 0.546828 29.6331 0.536886 29.6331 0.521972 29.6132Z" fill="#233F85" transform="matrix(1.02231 0 0 1 19.5239 362)"/><path d="M0.492145 29.5834C0.492145 29.5834 0.507059 29.5834 0.521972 29.6033 0.517001 29.6033 0.507059 29.6033 0.492145 29.5834Z" fill="#233F85" transform="matrix(1.02231 0 0 1 19.5239 362)"/><path d="M1.83933 30.9753C1.83933 30.9753 1.85922 30.9753 1.86916 30.9902 1.85922 30.9902 1.84927 30.9902 1.83933 30.9753Z" fill="#224188" transform="matrix(1.02231 0 0 1 19.5239 362)"/><path d="M16.9716 2.93299C16.9716 2.93299 16.9566 2.93299 16.9417 2.9131 16.9467 2.9131 16.9566 2.9131 16.9716 2.93299Z" fill="#2D78BE" transform="matrix(1.02231 0 0 1 19.5239 362)"/><path d="M2.05806 31.204C2.05806 31.204 2.07795 31.204 2.08292 31.214 2.07298 31.2189 2.06801 31.214 2.05806 31.204Z" fill="#224188" transform="matrix(1.02231 0 0 1 19.5239 362)"/><path d="M17.5035 3.47485C17.5035 3.47485 17.4836 3.47485 17.4786 3.4649 17.4886 3.45496 17.4985 3.4649 17.5035 3.47485Z" fill="#2D78BE" transform="matrix(1.02231 0 0 1 19.5239 362)"/><path d="M17.0014 2.96779C17.0014 2.96779 16.9865 2.96779 16.9716 2.9479 16.9765 2.9479 16.9865 2.9479 17.0014 2.96779Z" fill="#2D78BE" transform="matrix(1.02231 0 0 1 19.5239 362)"/><path d="M1.96361 31.1096C1.96361 31.1096 1.9835 31.1096 1.98847 31.1195 1.97852 31.1245 1.96858 31.1195 1.96361 31.1096Z" fill="#224188" transform="matrix(1.02231 0 0 1 19.5239 362)"/><path d="M16.8175 2.77888C16.8175 2.77888 16.8025 2.77888 16.7876 2.759 16.7926 2.759 16.8025 2.759 16.8175 2.77888Z" fill="#2D78BE" transform="matrix(1.02231 0 0 1 19.5239 362)"/><path d="M1.93378 31.0748C1.93378 31.0748 1.95367 31.0748 1.95864 31.0847 1.9487 31.0897 1.93875 31.0847 1.93378 31.0748Z" fill="#224188" transform="matrix(1.02231 0 0 1 19.5239 362)"/><path d="M17.3742 3.33565C17.3742 3.33565 17.3593 3.33565 17.3444 3.31577 17.3494 3.31577 17.3593 3.31577 17.3742 3.33565Z" fill="#2D78BE" transform="matrix(1.02231 0 0 1 19.5239 362)"/><path d="M17.066 3.02744C17.066 3.02744 17.0511 3.02744 17.0362 3.00756 17.0412 3.00756 17.0511 3.00756 17.066 3.02744Z" fill="#2D78BE" transform="matrix(1.02231 0 0 1 19.5239 362)"/><path d="M16.8523 2.80871C16.8523 2.80871 16.8373 2.80871 16.8224 2.78882 16.8274 2.78882 16.8373 2.78882 16.8523 2.80871Z" fill="#2D78BE" transform="matrix(1.02231 0 0 1 19.5239 362)"/><path d="M19.0346 24.2593C19.0346 24.2593 19.0247 24.2593 19.0197 24.2493 19.0197 24.2493 19.0197 24.2444 19.0296 24.2344 19.0346 24.2344 19.0346 24.2444 19.0346 24.2543Z" fill="#3CB3E7" transform="matrix(1.02231 0 0 1 19.5239 362)"/><path d="M16.8821 2.84351C16.8821 2.84351 16.8672 2.84351 16.8523 2.82362 16.8572 2.82362 16.8672 2.82362 16.8821 2.84351Z" fill="#2D78BE" transform="matrix(1.02231 0 0 1 19.5239 362)"/><path d="M1.74985 30.8859C1.74985 30.8859 1.76974 30.8859 1.77968 30.9008 1.76974 30.9008 1.75979 30.9008 1.74985 30.8859Z" fill="#224188" transform="matrix(1.02231 0 0 1 19.5239 362)"/><path d="M1.66037 30.7914C1.66037 30.7914 1.68025 30.7914 1.6902 30.8113 1.68025 30.8113 1.67031 30.8113 1.66037 30.7914Z" fill="#224188" transform="matrix(1.02231 0 0 1 19.5239 362)"/><path d="M1.63054 30.7566C1.63054 30.7566 1.65043 30.7566 1.66037 30.7765 1.65043 30.7765 1.64048 30.7765 1.63054 30.7566Z" fill="#224188" transform="matrix(1.02231 0 0 1 19.5239 362)"/><path d="M1.60072 30.7268C1.60072 30.7268 1.6206 30.7268 1.63054 30.7467 1.6206 30.7467 1.61563 30.7467 1.60072 30.7268Z" fill="#224188" transform="matrix(1.02231 0 0 1 19.5239 362)"/><path d="M1.56592 30.697C1.56592 30.697 1.5858 30.697 1.59574 30.7168 1.5858 30.7168 1.58083 30.7168 1.56592 30.697Z" fill="#214289" transform="matrix(1.02231 0 0 1 19.5239 362)"/><path d="M1.53609 30.6622C1.53609 30.6622 1.551 30.6622 1.56592 30.682 1.55598 30.682 1.551 30.682 1.53609 30.6622Z" fill="#214289" transform="matrix(1.02231 0 0 1 19.5239 362)"/><path d="M9.81805 9.70372C9.82302 9.03261 9.828 8.3615 9.83794 7.69536 9.83794 8.1378 9.83794 8.58023 9.84291 9.0177 9.84291 9.07238 9.86279 9.12209 9.87274 9.17677 9.87274 9.65898 9.87274 10.1412 9.87274 10.6234 9.86279 11.901 9.85285 13.1835 9.84291 14.4611 9.84291 14.6053 9.81805 14.7445 9.81308 14.8886 9.80811 15.2814 9.78823 15.6741 9.9473 16.0569 9.88765 15.8729 9.78823 15.6791 9.78823 15.4852 9.78823 13.6558 9.80314 11.8314 9.82302 9.9821 9.828 9.87771 9.82302 9.78823 9.82302 9.70372Z" fill="#1654A6" transform="matrix(1.02231 0 0 1 19.5239 362)"/><path d="M9.87274 9.16186C9.86279 9.12209 9.84291 9.06741 9.84291 9.0177 9.84291 8.57526 9.84291 8.1378 9.84291 7.68045 9.84291 6.98449 9.84291 6.30841 9.84291 5.61245 9.85285 5.65719 9.86777 5.71684 9.86777 5.77649 9.86777 6.89998 9.86777 8.02346 9.86777 9.16186Z" fill="#194699" transform="matrix(1.02231 0 0 1 19.5239 362)"/><path d="M10.4196 16.549C10.3699 16.5291 10.3201 16.4943 10.2655 16.4546 10.3102 16.4794 10.3649 16.5092 10.4196 16.549Z" fill="#1654A6" transform="matrix(1.02231 0 0 1 19.5239 362)"/><path d="M11.3243 17.1953C11.2796 17.1754 11.2398 17.1505 11.1951 17.1207 11.2348 17.1406 11.2845 17.1654 11.3243 17.1953Z" fill="#1654A6" transform="matrix(1.02231 0 0 1 19.5239 362)"/><path d="M10.2555 16.4347C10.2207 16.4148 10.1859 16.385 10.1511 16.3502 10.1859 16.3701 10.2207 16.3999 10.2555 16.4347Z" fill="#1654A6" transform="matrix(1.02231 0 0 1 19.5239 362)"/><path d="M10.0219 16.1762C10.0219 16.1762 9.97713 16.1265 9.95228 16.0917 9.97216 16.1115 9.99702 16.1364 10.0219 16.1762Z" fill="#1654A6" transform="matrix(1.02231 0 0 1 19.5239 362)"/><path d="M11.1056 17.0362C11.0807 17.0362 11.0509 17.0163 11.0161 16.9914 11.041 16.9964 11.0708 17.0113 11.1056 17.0362Z" fill="#1654A6" transform="matrix(1.02231 0 0 1 19.5239 362)"/><path d="M10.7626 16.7926C10.7377 16.7876 10.7079 16.7727 10.6781 16.7479 10.7029 16.7528 10.7327 16.7677 10.7626 16.7926Z" fill="#1654A6" transform="matrix(1.02231 0 0 1 19.5239 362)"/><path d="M10.8521 16.8572C10.8272 16.8523 10.7974 16.8324 10.7675 16.8075 10.7924 16.8125 10.8222 16.8324 10.8521 16.8572Z" fill="#1654A6" transform="matrix(1.02231 0 0 1 19.5239 362)"/><path d="M10.9813 16.9467C10.9813 16.9467 10.9415 16.9368 10.9167 16.9169 10.9366 16.9169 10.9565 16.9268 10.9813 16.9467Z" fill="#1654A6" transform="matrix(1.02231 0 0 1 19.5239 362)"/><path d="M11.1951 17.1058C11.1702 17.1008 11.1404 17.0809 11.1106 17.0561 11.1354 17.061 11.1652 17.076 11.1951 17.1058Z" fill="#1654A6" transform="matrix(1.02231 0 0 1 19.5239 362)"/><path d="M10.6731 16.728C10.6731 16.728 10.6333 16.718 10.6085 16.6981 10.6234 16.6981 10.6482 16.7081 10.6731 16.728Z" fill="#1654A6" transform="matrix(1.02231 0 0 1 19.5239 362)"/><path d="M10.0716 16.2458C10.0716 16.2458 10.0368 16.2209 10.0219 16.1911 10.0368 16.201 10.0567 16.2159 10.0716 16.2458Z" fill="#1654A6" transform="matrix(1.02231 0 0 1 19.5239 362)"/><path d="M10.5438 16.6385C10.5438 16.6385 10.5041 16.6286 10.4792 16.6136 10.4941 16.6136 10.519 16.6236 10.5438 16.6385Z" fill="#1654A6" transform="matrix(1.02231 0 0 1 19.5239 362)"/><path d="M10.1163 16.2955C10.1163 16.2955 10.0915 16.2855 10.0766 16.2706 10.0865 16.2706 10.1014 16.2806 10.1163 16.2955Z" fill="#1654A6" transform="matrix(1.02231 0 0 1 19.5239 362)"/><path d="M10.4693 16.5888C10.4693 16.5888 10.4394 16.5838 10.4245 16.5689 10.4394 16.5689 10.4593 16.5739 10.4693 16.5888Z" fill="#1654A6" transform="matrix(1.02231 0 0 1 19.5239 362)"/><path d="M10.5985 16.6832C10.5985 16.6832 10.5687 16.6733 10.5488 16.6584 10.5637 16.6584 10.5786 16.6633 10.5985 16.6832Z" fill="#1654A6" transform="matrix(1.02231 0 0 1 19.5239 362)"/><path d="M10.9018 16.897C10.9018 16.897 10.8719 16.892 10.857 16.8771 10.8719 16.8771 10.8918 16.8821 10.9018 16.897Z" fill="#1654A6" transform="matrix(1.02231 0 0 1 19.5239 362)"/><path d="M10.1462 16.3303C10.1462 16.3303 10.1312 16.3303 10.1163 16.3104 10.1213 16.3104 10.1312 16.3104 10.1462 16.3303Z" fill="#1654A6" transform="matrix(1.02231 0 0 1 19.5239 362)"/><path d="M9.66892 28.9471C9.65898 28.8427 9.65898 28.7284 9.66892 28.5892 9.67886 28.4052 9.67886 28.2412 9.67886 28.0771 9.67886 28.0672 9.67389 28.0622 9.67886 28.0324 9.67886 27.9728 9.67886 27.938 9.67886 27.8982 9.69875 26.0539 9.71863 24.2146 9.74846 22.3702 9.74846 22.241 9.80811 22.1167 9.84788 21.9775 9.70869 22.7729 9.7932 23.5832 9.77828 24.3935 9.7584 25.2386 9.7584 26.0837 9.74349 26.9288 9.73354 27.5502 9.7236 28.1716 9.71366 28.793 9.71366 28.8427 9.6888 28.8924 9.66892 28.9471Z" fill="#2599D5" transform="matrix(1.02231 0 0 1 19.5239 362)"/><path d="M15.2416 31.2985C15.0278 31.3283 14.8141 31.3631 14.5953 31.3879 14.138 31.4426 13.6856 31.4923 13.2283 31.5371 12.8952 31.5719 12.5572 31.6017 12.2241 31.6365 11.8811 31.6713 11.5381 31.716 11.1901 31.7508 10.9415 31.7757 10.693 31.7956 10.4444 31.8204 10.2605 31.8354 10.0815 31.8602 9.89759 31.8751 9.81308 31.8801 9.7236 31.8751 9.63909 31.8602 9.73851 31.8403 9.83297 31.8304 9.92742 31.8155 10.3649 31.7757 10.8073 31.731 11.2696 31.6862 11.9606 31.6116 12.6268 31.547 13.2879 31.4774 13.626 31.4426 13.969 31.3979 14.307 31.3581 14.3219 31.3581 14.3368 31.3581 14.3716 31.3581 14.5605 31.3382 14.7246 31.3183 14.8886 31.2935 14.9135 31.2935 14.9384 31.2935 14.9831 31.2935 15.0577 31.2836 15.1123 31.2786 15.172 31.2786 15.1969 31.2885 15.2118 31.2935 15.2267 31.2985Z" fill="#1E3F76" transform="matrix(1.02231 0 0 1 19.5239 362)"/><path d="M14.307 31.3482C13.9739 31.3979 13.6359 31.4426 13.2979 31.4774 12.6317 31.547 11.9656 31.6116 11.2895 31.6812 11.2796 31.6663 11.2796 31.6415 11.2796 31.6415 11.6027 31.6067 11.9258 31.5768 12.2539 31.542 12.5969 31.5073 12.9399 31.4625 13.2879 31.4277 13.626 31.3929 13.964 31.3681 14.312 31.3432Z" fill="#36B6E9" transform="matrix(1.02231 0 0 1 19.5239 362)"/><path d="M15.2565 31.2985C15.2267 31.2985 15.2068 31.2885 15.1969 31.2786 15.2764 31.2587 15.351 31.2537 15.4305 31.2438 15.4554 31.2438 15.4752 31.2438 15.52 31.2388 15.7934 31.209 16.042 31.1792 16.2855 31.1444 16.544 31.1145 16.8025 31.0897 17.076 31.0598 17.0262 31.0797 16.9666 31.1096 16.902 31.1195 16.4645 31.1742 16.0221 31.2189 15.5846 31.2686 15.4802 31.2786 15.3708 31.2885 15.2515 31.2985Z" fill="#1D3E73" transform="matrix(1.02231 0 0 1 19.5239 362)"/><path d="M9.92245 31.8105C9.83794 31.8304 9.74349 31.8403 9.63909 31.8552 9.62915 31.8552 9.61921 31.8552 9.60926 31.8354 9.59932 31.731 9.59435 31.6365 9.59435 31.547 9.60429 31.3482 9.61921 31.1543 9.62915 30.9455 9.63909 31.0946 9.64903 31.2537 9.65898 31.4128 9.65898 31.4426 9.65898 31.4725 9.65898 31.5023 9.65898 31.6846 9.74846 31.7873 9.92742 31.8105Z" fill="#2DB5E9" transform="matrix(1.02231 0 0 1 19.5239 362)"/><path d="M9.62418 30.8262C9.61424 30.8013 9.59435 30.7665 9.59435 30.7318 9.59435 30.3689 9.60429 30.006 9.61921 29.6331 9.62915 29.9761 9.62418 30.3291 9.62418 30.7069 9.62418 30.7566 9.62418 30.7765 9.62418 30.8013 9.62418 30.8013 9.62418 30.8163 9.61921 30.8212Z" fill="#124B90" transform="matrix(1.02231 0 0 1 19.5239 362)"/><path d="M16.2806 31.1344C16.042 31.1742 15.7934 31.204 15.5349 31.2338 15.6045 31.209 15.684 31.1742 15.7636 31.1642 15.9326 31.1444 16.1016 31.1394 16.2806 31.1344Z" fill="#36B6E9" transform="matrix(1.02231 0 0 1 19.5239 362)"/><path d="M14.8936 31.2885C14.7345 31.3183 14.5705 31.3382 14.3915 31.3581 14.3915 31.3382 14.4064 31.3084 14.4214 31.3034 14.5755 31.2935 14.7296 31.2836 14.8886 31.2885Z" fill="#36B6E9" transform="matrix(1.02231 0 0 1 19.5239 362)"/><path d="M15.4206 31.2338C15.3559 31.2537 15.2814 31.2637 15.1919 31.2736 15.1273 31.2836 15.0726 31.2885 15.008 31.2985 15.1372 31.2736 15.2764 31.2488 15.4206 31.2338Z" fill="#36B6E9" transform="matrix(1.02231 0 0 1 19.5239 362)"/><path d="M9.87274 21.9726C9.89759 21.9129 9.93239 21.8532 9.97713 21.7886 9.95228 21.8483 9.91748 21.9079 9.87274 21.9726Z" fill="#2599D5" transform="matrix(1.02231 0 0 1 19.5239 362)"/><path d="M17.3543 31.03C17.2997 31.0449 17.235 31.0598 17.1654 31.0648 17.2201 31.0499 17.2798 31.04 17.3543 31.03Z" fill="#1D3E73" transform="matrix(1.02231 0 0 1 19.5239 362)"/><path d="M17.6178 31.0101C17.578 31.025 17.5283 31.035 17.4736 31.035 17.5134 31.0201 17.5582 31.0151 17.6178 31.0101Z" fill="#1D3E73" transform="matrix(1.02231 0 0 1 19.5239 362)"/><path d="M9.63909 30.8013C9.63909 30.8013 9.62915 30.7566 9.62915 30.7218 9.63909 30.7417 9.64406 30.7665 9.63909 30.8013Z" fill="#2DB5E9" transform="matrix(1.02231 0 0 1 19.5239 362)"/><path d="M10.3052 21.4804C10.3052 21.4804 10.3251 21.4406 10.35 21.4208 10.345 21.4406 10.3301 21.4605 10.3052 21.4804Z" fill="#2599D5" transform="matrix(1.02231 0 0 1 19.5239 362)"/><path d="M10.6482 21.1722C10.6482 21.1722 10.6681 21.1324 10.698 21.1125 10.693 21.1324 10.6781 21.1523 10.6482 21.1722Z" fill="#2599D5" transform="matrix(1.02231 0 0 1 19.5239 362)"/><path d="M10.5786 21.2318C10.5786 21.2318 10.6035 21.1971 10.6284 21.1722 10.6234 21.1921 10.6035 21.212 10.5786 21.2318Z" fill="#2599D5" transform="matrix(1.02231 0 0 1 19.5239 362)"/><path d="M10.2406 21.5351C10.2406 21.5351 10.2655 21.5003 10.2903 21.4804 10.2853 21.5003 10.2655 21.5202 10.2406 21.5351Z" fill="#2599D5" transform="matrix(1.02231 0 0 1 19.5239 362)"/><path d="M10.4643 21.3313C10.4643 21.3313 10.4742 21.3064 10.4941 21.2915 10.4941 21.3014 10.4842 21.3164 10.4643 21.3313Z" fill="#2599D5" transform="matrix(1.02231 0 0 1 19.5239 362)"/><path d="M10.1909 21.5798C10.1909 21.5798 10.2058 21.555 10.2257 21.5401 10.2257 21.55 10.2157 21.5649 10.1909 21.5798Z" fill="#2599D5" transform="matrix(1.02231 0 0 1 19.5239 362)"/><path d="M9.99204 21.7836C9.99204 21.7836 10.002 21.7538 10.0169 21.7339 10.0169 21.7489 10.007 21.7638 9.99204 21.7836Z" fill="#2599D5" transform="matrix(1.02231 0 0 1 19.5239 362)"/><path d="M10.1213 21.6395C10.1213 21.6395 10.1213 21.6246 10.1412 21.6097 10.1412 21.6146 10.1412 21.6246 10.1213 21.6395Z" fill="#2599D5" transform="matrix(1.02231 0 0 1 19.5239 362)"/><path d="M9.63909 29.0068C9.63909 29.0068 9.64903 28.9968 9.65401 28.9918 9.65898 28.9918 9.65401 29.0018 9.65401 29.0068 9.64903 29.0117 9.64406 29.0068 9.63412 29.0068Z" fill="#2599D5" transform="matrix(1.02231 0 0 1 19.5239 362)"/><path d="M10.5488 21.2567C10.5488 21.2567 10.5488 21.2368 10.5637 21.2318 10.5637 21.2418 10.5637 21.2517 10.5488 21.2567Z" fill="#2599D5" transform="matrix(1.02231 0 0 1 19.5239 362)"/><path d="M10.519 21.2865C10.519 21.2865 10.519 21.2666 10.5289 21.2617 10.5289 21.2716 10.5289 21.2816 10.519 21.2865Z" fill="#2599D5" transform="matrix(1.02231 0 0 1 19.5239 362)"/><path d="M10.4345 21.3611C10.4345 21.3611 10.4345 21.3462 10.4544 21.3362 10.4544 21.3412 10.4544 21.3512 10.4345 21.3611Z" fill="#2599D5" transform="matrix(1.02231 0 0 1 19.5239 362)"/><path d="M10.3997 21.3909C10.3997 21.3909 10.3997 21.376 10.4196 21.3661 10.4196 21.371 10.4196 21.381 10.3997 21.3909Z" fill="#2599D5" transform="matrix(1.02231 0 0 1 19.5239 362)"/><path d="M10.3699 21.4208C10.3699 21.4208 10.3699 21.4058 10.3897 21.3909 10.3897 21.3959 10.3897 21.4058 10.3699 21.4208Z" fill="#2599D5" transform="matrix(1.02231 0 0 1 19.5239 362)"/><path d="M5.20481 18.7811C5.24458 18.9103 5.30423 19.0495 5.30423 19.1837 5.31418 19.9195 5.30423 20.6602 5.29926 21.4208 5.28435 21.4605 5.27938 21.4754 5.27938 21.4904 5.27938 23.1408 5.27938 24.7862 5.27938 26.4367 5.27938 26.4715 5.29926 26.5112 5.30921 26.546 5.30921 26.546 5.30921 26.546 5.30921 26.551 5.30921 26.556 5.30921 26.5709 5.30921 26.5709 5.29429 26.5709 5.28435 26.5709 5.25949 26.5759 5.24955 24.2394 5.24458 21.903 5.25949 19.5665 5.25949 19.2981 5.26944 19.0396 5.20978 18.7761Z" fill="#1F2C5F" transform="matrix(1.02231 0 0 1 19.5239 362)"/><path d="M5.11036 10.6333C5.11036 11.3243 5.10042 12.0103 5.0855 12.7113 5.07556 12.7262 5.06065 12.7262 5.06065 12.7262 5.06065 12.0849 5.06065 11.4436 5.06065 10.7974 5.06065 10.7477 5.06562 10.698 5.08053 10.6383 5.09047 10.6284 5.10042 10.6383 5.11036 10.6383Z" fill="#233F85" transform="matrix(1.02231 0 0 1 19.5239 362)"/><path d="M9.58441 31.557C9.59435 31.6415 9.59932 31.731 9.60429 31.8354 9.60429 31.8503 9.59435 31.8503 9.57447 31.8503 9.5695 31.7558 9.57447 31.6564 9.58441 31.552Z" fill="#124B90" transform="matrix(1.02231 0 0 1 19.5239 362)"/><path d="M5.3788 26.6057C5.3788 26.6057 5.4136 26.6107 5.43846 26.6305 5.42354 26.6305 5.40366 26.6305 5.3788 26.6057Z" fill="#0F4F84" transform="matrix(1.02231 0 0 1 19.5239 362)"/><path d="M5.344 26.5808C5.344 26.5808 5.35892 26.5808 5.37383 26.5908 5.36886 26.5908 5.35395 26.5908 5.344 26.5808Z" fill="#0F4F84" transform="matrix(1.02231 0 0 1 19.5239 362)"/><path d="M5.31418 26.5759C5.31418 26.5759 5.30423 26.5609 5.30423 26.556 5.31418 26.556 5.32412 26.556 5.33903 26.5709 5.33903 26.5808 5.32909 26.5808 5.31418 26.5808Z" fill="#1B3E70" transform="matrix(1.02231 0 0 1 19.5239 362)"/><path d="M5.06065 12.7411C5.06065 12.7411 5.07556 12.7262 5.08053 12.7262 5.09047 12.9847 5.09047 13.2432 5.08053 13.5216 5.07059 14.0435 5.06562 14.5407 5.06065 15.0378 5.04573 15.2118 5.10539 15.3957 4.98111 15.5647 5.09047 14.8936 5.00099 14.2126 5.03082 13.5365 5.04076 13.278 5.0507 13.0145 5.06065 12.7411Z" fill="#253A7C" transform="matrix(1.02231 0 0 1 19.5239 362)"/><path d="M4.74746 15.9077C4.73255 15.9525 4.70272 16.0022 4.66793 16.0519 4.68284 16.0072 4.71267 15.9574 4.74746 15.9077Z" fill="#253A7C" transform="matrix(1.02231 0 0 1 19.5239 362)"/><path d="M4.81209 15.8183C4.81209 15.8431 4.7922 15.8729 4.76735 15.9077 4.77232 15.8829 4.78723 15.853 4.81209 15.8183Z" fill="#253A7C" transform="matrix(1.02231 0 0 1 19.5239 362)"/><path d="M4.9314 15.6293C4.9314 15.6542 4.91151 15.684 4.88666 15.7188 4.88666 15.694 4.90654 15.6641 4.9314 15.6293Z" fill="#253A7C" transform="matrix(1.02231 0 0 1 19.5239 362)"/><path d="M4.65301 16.0618C4.65301 16.0618 4.64804 16.0917 4.63313 16.1165 4.63313 16.1016 4.6381 16.0867 4.65301 16.0618Z" fill="#253A7C" transform="matrix(1.02231 0 0 1 19.5239 362)"/><path d="M4.9662 15.5697C4.9662 15.5697 4.9662 15.5995 4.94631 15.6244 4.94631 15.6095 4.94631 15.5945 4.9662 15.5697Z" fill="#253A7C" transform="matrix(1.02231 0 0 1 19.5239 362)"/><path d="M4.85186 15.7586C4.85186 15.7586 4.84689 15.7884 4.827 15.8133 4.827 15.7984 4.83197 15.7785 4.85186 15.7586Z" fill="#253A7C" transform="matrix(1.02231 0 0 1 19.5239 362)"/><path d="M4.87174 15.7238C4.87174 15.7238 4.87174 15.7437 4.8618 15.7586 4.8618 15.7536 4.8618 15.7387 4.87174 15.7238Z" fill="#253A7C" transform="matrix(1.02231 0 0 1 19.5239 362)"/><path d="M5.30921 26.5311C5.30921 26.5311 5.27938 26.4715 5.27938 26.4317 5.27938 24.7813 5.27938 23.1358 5.27938 21.4854 5.27938 21.4705 5.28435 21.4556 5.29429 21.4307 5.30423 22.0521 5.30423 22.6834 5.30921 23.3148 5.30921 24.3836 5.30921 25.4474 5.30921 26.5311Z" fill="#0F4F84" transform="matrix(1.02231 0 0 1 19.5239 362)"/><path d="M5.06562 15.0278C5.06562 14.5407 5.06562 14.0435 5.08053 13.5365 5.08053 14.0237 5.07556 14.5208 5.06562 15.0278Z" fill="#3A7BB1" transform="matrix(1.02231 0 0 1 19.5239 362)"/><path d="M9.67389 28.0921C9.67886 28.2412 9.67389 28.4052 9.67389 28.5743 9.66892 28.4251 9.67389 28.2611 9.67389 28.0921Z" fill="#41BBEB" transform="matrix(1.02231 0 0 1 19.5239 362)"/><path d="M9.81805 9.71366C9.82302 9.78823 9.828 9.87274 9.828 9.96719 9.81805 9.89262 9.81805 9.80811 9.81805 9.71366Z" fill="#0F68B3" transform="matrix(1.02231 0 0 1 19.5239 362)"/><path d="M9.67886 27.9081C9.68383 27.938 9.68383 27.9728 9.67886 28.0274 9.67389 28.0026 9.66892 27.9578 9.67886 27.9081Z" fill="#41BBEB" transform="matrix(1.02231 0 0 1 19.5239 362)"/><text fill="#231F20" font-family="Segoe UI Historic,Segoe UI Historic_MSFontService,sans-serif" font-weight="400" font-size="60" transform="matrix(0.508206 0 0 0.497117 45.5695 390)">Ba</text><text fill="#231F20" font-family="Segoe UI Historic,Segoe UI Historic_MSFontService,sans-serif" font-weight="400" font-size="60" transform="matrix(0.508206 0 0 0.497117 78.5622 390)">r</text><text fill="#231F20" font-family="Segoe UI Historic,Segoe UI Historic_MSFontService,sans-serif" font-weight="400" font-size="60" transform="matrix(0.508206 0 0 0.497117 88.7619 390)">e</text><text fill="#231F20" font-family="Segoe UI Historic,Segoe UI Historic_MSFontService,sans-serif" font-weight="400" font-size="60" transform="matrix(0.508206 0 0 0.497117 109.858 390)">Count</text><text fill="#231F20" font-family="Segoe UI Historic,Segoe UI Historic_MSFontService,sans-serif" font-weight="400" font-size="15" transform="matrix(0.508206 0 0 0.497117 197.015 377)">TM</text></g></svg>