<svg width="194" height="38" xmlns="http://www.w3.org/2000/svg" xmlns:xlink="http://www.w3.org/1999/xlink" xml:space="preserve" overflow="hidden"><defs><clipPath id="clip0"><rect x="16" y="119" width="194" height="38"/></clipPath></defs><g clip-path="url(#clip0)" transform="translate(-16 -119)"><path d="M0.0361332 25.0351C0.0361332 24.7667 0.0361332 24.4983 0.0361332 24.2041 0.0361332 23.8324 0.0361332 23.4866 0.0361332 23.1459 0.0361332 23.1046 0.0154856 23.0633 0.00516188 23.0168 0.00516188 22.8 0.00516188 22.5884 0.0154856 22.351 0.0309713 22.0877 0.0309713 21.8503 0.0309713 21.5922 0.0309713 21.0863 0.0309713 20.5908 0.0309713 20.1004 0.0309713 20.1004 0.0309713 20.0849 0.046457 20.09 0.0619426 20.1468 0.0671045 20.1985 0.0671045 20.2552 0.0671045 21.8503 0.0671045 23.4453 0.0671045 25.0403 0.0567807 25.0403 0.046457 25.0403 0.046457 25.0403Z" fill="#17184A" transform="matrix(1 0 0 1.00353 16.5321 119)"/><path d="M0.0258094 20.1055C0.0361332 20.5959 0.0361332 21.0863 0.0258094 21.5973 0.0154856 21.6076 0 21.6076 0 21.6076L0 20.1159C0 20.1159 0.0103238 20.1055 0.0258094 20.1055Z" fill="#376C96" transform="matrix(1 0 0 1.00353 16.5321 119)"/><path d="M0 23.0323C0.0103238 23.0581 0.0309713 23.1046 0.0309713 23.1459 0.0309713 23.4866 0.0309713 23.8324 0.0309713 24.1886 0.0309713 24.2041 0.0154856 24.2041 0.0103238 24.2041 0 23.8169 0 23.4298 0 23.0323Z" fill="#CADEEA" transform="matrix(1 0 0 1.00353 16.5321 119)"/><path d="M0 21.6231C0 21.6231 0.0154856 21.6076 0.0206475 21.6076 0.0258094 21.8503 0.0206475 22.0877 0.0103238 22.3355 0 22.1083 0 21.8709 0 21.6231Z" fill="#5080A6" transform="matrix(1 0 0 1.00353 16.5321 119)"/><path d="M19.8578 16.0018C19.8629 16.229 19.7597 16.4148 19.6203 16.5748 18.9699 17.3181 18.3247 18.0563 17.664 18.7893 17.5298 18.9338 17.3542 19.0422 17.1787 19.1712 16.7451 19.2332 16.3322 19.3003 15.9141 19.3313 15.2843 19.3777 14.6546 19.3932 14.0197 19.4138 13.9061 19.3571 13.7874 19.3158 13.6893 19.2487 13.5448 19.1609 13.4157 19.0525 13.2764 18.9544 12.7705 18.5879 12.2646 18.2214 11.7639 17.855 11.7226 17.824 11.6762 17.793 11.6297 17.7672 11.6297 17.7672 11.6297 17.7672 11.6297 17.762 11.5988 17.7362 11.5678 17.7207 11.5368 17.7001 11.5368 17.7001 11.5368 17.7001 11.5368 17.6898 11.5058 17.664 11.4697 17.6485 11.4336 17.633 11.4181 17.633 11.4129 17.6227 11.4078 17.5969 11.382 17.5762 11.3561 17.5711 11.3303 17.5607 11.3303 17.5607 11.32 17.5556 11.3303 17.5452 11.3148 17.5298 11.2942 17.5194 11.2787 17.5143 11.2787 17.5143 11.2787 17.5143 11.2787 17.5039 11.2477 17.4781 11.2168 17.4627 11.1858 17.442 11.1858 17.442 11.1858 17.442 11.1858 17.4368 11.1548 17.411 11.1239 17.3955 11.0929 17.3801 11.0929 17.3801 11.0929 17.3801 11.0929 17.3697 11.0671 17.3491 11.0413 17.3439 11.0206 17.3336 11.0206 17.3336 11.0206 17.3336 11.0206 17.3233 11.0051 17.3026 10.9845 17.2975 10.969 17.2871 10.969 17.2871 10.969 17.2871 10.969 17.282 10.9432 17.2613 10.9225 17.2562 10.8967 17.2459 10.8967 17.2459 10.8864 17.2407 10.8967 17.2304 10.8812 17.2149 10.8606 17.2046 10.8451 17.1994 10.8451 17.1994 10.8451 17.1994 10.8451 17.1891 10.7883 17.1478 10.7367 17.1168 10.6799 17.0807 10.6799 17.0807 10.6748 17.0807 10.6799 17.0652 10.6438 17.0239 10.6025 16.9929 10.5664 16.9671 10.5664 16.9671 10.5664 16.9671 10.5664 16.9619 10.5561 16.9465 10.5457 16.9413 10.5354 16.9361 10.5354 16.9361 10.5354 16.9361 10.5354 16.9258 10.5199 16.9052 10.5044 16.9 10.4889 16.8897 10.4889 16.8897 10.4838 16.8845 10.4889 16.8742 10.4735 16.8484 10.4528 16.8277 10.4373 16.8071 10.4373 16.8071 10.4373 16.8071 10.4373 16.7968 10.4115 16.7555 10.3857 16.7297 10.3547 16.6987 10.3547 16.6987 10.3547 16.6884 10.3547 16.678 10.1896 16.2806 10.2102 15.8728 10.2154 15.465 10.2154 15.3153 10.2412 15.1708 10.2463 15.0211 10.2567 13.6945 10.2721 12.3627 10.2773 11.0361 10.2773 10.5354 10.2773 10.0347 10.2773 9.51851 10.2773 8.33644 10.2773 7.16986 10.2773 6.00327 10.2773 5.94133 10.2618 5.87938 10.2515 5.80712 10.2515 5.77099 10.2515 5.74518 10.2515 5.70904 10.2515 5.68323 10.2515 5.67291 10.2618 5.65226 10.3393 5.64194 10.4012 5.63161 10.4631 5.62645 10.7109 5.61097 10.9638 5.6058 11.2116 5.59032 11.8362 5.54902 12.4608 5.50773 13.0854 5.46643 13.4364 5.44579 13.7874 5.42514 14.1332 5.39933 14.7165 5.35804 15.2998 5.31674 15.878 5.27544 16.2186 5.24964 16.5542 5.23415 16.8948 5.20834 17.4162 5.16705 17.9427 5.12059 18.4641 5.08962 18.7996 5.06897 19.1351 5.06897 19.4706 5.05348 19.5068 5.05348 19.5377 5.03284 19.5687 5.01735 19.7494 5.17221 19.832 5.38384 19.8733 5.63161 19.8629 5.69872 19.8526 5.74001 19.8526 5.78131 19.8526 9.1417 19.8526 12.5021 19.8526 15.8573 19.8526 15.9089 19.8681 15.9605 19.8784 16.0122Z" fill="#0F68B3" transform="matrix(1 0 0 1.00353 16.5321 119)"/><path d="M14.0248 19.4242C14.6546 19.3932 15.2843 19.3777 15.9141 19.3313 16.327 19.3003 16.74 19.228 17.1684 19.1764 17.9221 19.8165 18.6654 20.4514 19.4035 21.0915 19.7236 21.365 19.8578 21.716 19.832 22.1393 19.8113 22.4852 19.8113 22.831 19.7907 23.1923 19.7649 23.2491 19.7442 23.2853 19.7442 23.3265 19.7442 23.7705 19.7442 24.2092 19.7442 24.6532 19.7442 24.6945 19.7597 24.7357 19.77 24.7719 19.77 24.7977 19.77 24.8183 19.7597 24.8596 19.7339 24.9112 19.7132 24.9525 19.7132 24.9887 19.7029 25.7062 19.6874 26.4237 19.6823 27.1463 19.6823 27.7348 19.6823 28.3181 19.6823 28.9169 19.6926 28.9427 19.6977 28.9582 19.7081 28.9685 19.7081 28.9943 19.7081 29.0149 19.6977 29.0562 19.6255 29.1337 19.6203 29.1853 19.7081 29.2266 19.7081 29.2421 19.7081 29.2576 19.6977 29.2834 19.6719 29.3247 19.6513 29.3505 19.6513 29.3814 19.6306 30.2486 19.61 31.1158 19.5893 31.9882 19.5893 31.9882 19.5893 31.9882 19.579 31.9882 19.5429 32.0088 19.5171 32.0243 19.4758 32.045 19.0783 32.0966 18.6963 32.1482 18.304 32.1947 18.2473 32.1947 18.1956 32.205 18.1337 32.2102 18.0976 32.2102 18.0718 32.2153 18.0305 32.2205 17.953 32.2256 17.8911 32.236 17.8137 32.2463 17.7878 32.2463 17.7724 32.2463 17.7414 32.2463 17.4575 32.2721 17.1891 32.3031 16.9155 32.3237 16.7297 32.3237 16.5542 32.334 16.3787 32.3547 16.2909 32.365 16.2135 32.4011 16.1154 32.4269 16.0793 32.4269 16.0586 32.4321 16.0276 32.4269 15.8728 32.4424 15.7283 32.4682 15.5734 32.4941 15.5373 32.4941 15.5115 32.4941 15.4805 32.4837 15.3101 32.4837 15.1501 32.4889 14.9953 32.4992 14.9798 32.4992 14.9643 32.5354 14.9385 32.556 14.9127 32.556 14.8972 32.556 14.8765 32.5457 14.5152 32.5663 14.1642 32.5973 13.8132 32.6334 13.457 32.6696 13.1009 32.7109 12.7395 32.7521 12.404 32.7883 12.0685 32.8193 11.7278 32.8554 11.7278 32.8554 11.7278 32.8864 11.7123 32.907 11.2426 32.9535 10.7883 32.9999 10.3238 33.0361 10.1379 33.0119 10.045 32.9053 10.045 32.716 10.045 32.685 10.045 32.6541 10.045 32.6231 10.0347 32.4579 10.0244 32.2927 10.0141 32.1121 10.0141 32.0759 10.0141 32.0501 10.0141 32.014 10.0141 32.0088 10.0192 31.9934 10.0295 31.9882 10.0295 31.9572 10.0295 31.9262 10.0192 31.8798 10.0192 31.4978 10.0192 31.1313 10.0295 30.7545 10.0399 30.5377 10.045 30.3364 10.0502 30.1248 10.0502 30.1196 10.0502 30.1041 10.0502 30.0938 10.0502 30.0783 10.0502 30.0731 10.0605 30.0576 10.0812 30.0009 10.107 29.9492 10.107 29.8976 10.1225 29.2524 10.1328 28.6072 10.1379 27.9619 10.1483 27.0844 10.1534 26.2069 10.1741 25.3294 10.1896 24.488 10.107 23.6466 10.2567 22.8155 10.2567 22.8155 10.2567 22.8155 10.267 22.8155 10.3134 22.7484 10.3496 22.6865 10.3857 22.6245 10.3857 22.6245 10.3857 22.6245 10.396 22.6245 10.4167 22.6039 10.4218 22.5884 10.4373 22.5626 10.4683 22.5265 10.4993 22.5006 10.5354 22.4748 10.5509 22.4645 10.5561 22.4542 10.5664 22.4335 10.5767 22.4181 10.5819 22.4129 10.6025 22.4129 10.6232 22.3974 10.6335 22.3819 10.6541 22.3716 10.6541 22.3716 10.6541 22.3716 10.6541 22.3716 10.6799 22.351 10.6954 22.3303 10.7161 22.3097 10.7161 22.3097 10.7161 22.3097 10.7264 22.3097 10.7522 22.289 10.7677 22.2684 10.7832 22.2477 10.7832 22.2477 10.7832 22.2477 10.7883 22.2477 10.8038 22.2374 10.809 22.2271 10.8141 22.2167 10.8141 22.2167 10.8141 22.2167 10.8141 22.2167 10.8296 22.2064 10.8348 22.1961 10.84 22.1858 10.84 22.1858 10.84 22.1858 10.8451 22.1858 10.8606 22.1754 10.8658 22.1651 10.8709 22.1548 10.8709 22.1548 10.8709 22.1548 10.8812 22.1548 10.9019 22.1393 10.9071 22.1238 10.9174 22.1083 10.9174 22.1083 10.9174 22.1083 10.9329 22.1083 10.9432 22.098 10.9484 22.0877 10.9535 22.0774 10.9535 22.0774 10.9535 22.0774 10.969 22.0774 10.9845 22.0671 10.9896 22.0567 10.9948 22.0516 10.9948 22.0516 10.9948 22.0516 11 22.0516 11.0258 22.0309 11.0413 22.0103 11.0619 21.9896 11.0619 21.9896 11.0619 21.9896 11.0722 21.9896 11.098 21.969 11.1135 21.9483 11.1342 21.9122 11.924 21.1947 12.7034 20.4772 13.4983 19.7752 13.6583 19.6358 13.8597 19.5429 14.0403 19.4293Z" fill="#1EA4DE" transform="matrix(1 0 0 1.00353 16.5321 119)"/><path d="M0.0671045 25.0403C0.0671045 23.4453 0.0671045 20.2552 0.0671045 20.2552 0.0671045 20.2552 0.0671045 20.1468 0.0516188 20.0849 0.299389 19.6616 0.557483 19.2487 0.815578 18.8357 0.949787 18.6241 1.084 18.4124 1.23369 18.1956 1.28015 18.1956 1.34209 18.1956 1.34209 18.1956 1.34209 18.1956 2.10089 18.1027 2.4777 18.0511 3.02486 17.9685 4.10886 17.8085 4.10886 17.8085 4.10886 17.8085 4.66118 18.4899 4.9296 18.8305 5.09994 19.0473 5.40965 19.5016 5.40965 19.5016 5.40965 19.5016 5.46127 20.0488 5.46127 20.3223 5.44579 22.7484 5.45095 27.6109 5.45095 27.6109 5.45095 27.6109 5.32706 27.6935 5.26512 27.7245 4.15532 28.251 3.04035 28.7723 1.93054 29.2988 1.37306 29.5621 0.815578 29.8357 0.258094 30.0989 0.221961 30.1144 0.175504 30.1248 0.134209 30.1196 0.123885 28.6175 0.1084 27.1309 0.0980758 25.6288 0.087752 25.4223 0.0774283 25.2313 0.0671045 25.0403Z" fill="#1B3E70" transform="matrix(1 0 0 1.00353 16.5321 119)"/><path d="M10.2205 5.65226C10.2205 5.65226 10.2205 5.67807 10.2102 5.70388 9.79725 6.15297 9.39979 6.58656 8.99716 7.02532 8.13513 7.95962 7.26793 8.89909 6.4059 9.83855 6.0394 10.236 5.67807 10.6438 5.30642 11.0413 5.30125 11.0413 5.28577 11.0361 5.28061 11.0258 4.71796 10.4218 4.16048 9.82823 3.60299 9.23461 2.52932 8.09383 1.46081 6.9479 0.387141 5.80712 0.325199 5.74001 0.237447 5.69872 0.160018 5.6471 0.216799 5.52321 0.24777 5.37352 0.335522 5.27028 0.671045 4.87798 1.02721 4.50632 1.37822 4.12434 2.41576 2.99389 3.4533 1.86344 4.49084 0.738149 4.64053 0.572969 4.81087 0.428436 4.99154 0.27358 5.02767 0.27358 5.04316 0.278742 5.05865 0.294227 5.08962 0.351008 5.11026 0.397465 5.1464 0.43876 5.51805 0.841387 5.87938 1.25434 6.26136 1.64664 6.9066 2.31252 7.56216 2.97324 8.21256 3.63397 8.64099 4.06756 9.06943 4.496 9.49786 4.9296 9.73531 5.17221 9.97276 5.41482 10.2102 5.66259Z" fill="#28BAED" transform="matrix(1 0 0 1.00353 16.5321 119)"/><path d="M10.2309 5.6471C9.97792 5.40965 9.74564 5.16188 9.50303 4.91927 9.07459 4.48568 8.64099 4.05724 8.21772 3.62364 7.56732 2.96292 6.91176 2.30736 6.26653 1.63632 5.88455 1.24401 5.52321 0.831063 5.15156 0.428436 5.11543 0.392303 5.09478 0.340684 5.06381 0.27358 5.06381 0.242609 5.06381 0.232285 5.06381 0.227123 5.06381 0.227123 5.06381 0.227123 5.07413 0.227123 5.09994 0.216799 5.11543 0.206475 5.13091 0.19099 5.13091 0.19099 5.13091 0.19099 5.14124 0.19099 5.39933 0.170342 5.6471 0.139371 5.89487 0.134209 6.24072 0.123885 6.58656 0.134209 6.93241 0.134209 7.015 0.134209 7.09759 0.113561 7.19566 0.103238 7.82025 0.103238 8.42936 0.103238 9.03846 0.103238 9.09008 0.103238 9.14686 0.0671045 9.19848 0.046457 9.30688 0.046457 9.41527 0.046457 9.54948 0.046457 9.59594 0.0619426 9.61659 0.0671045 9.63724 0.0671045 10.3393 0.0671045 11.0413 0.0671045 11.7433 0.0671045 11.7846 0.0671045 11.8207 0.046457 11.8775 0.0361332 12.4143 0.0361332 12.9357 0.0361332 13.4622 0.0361332 13.4622 0.0206475 13.4622 0.0103238 13.4622-0.00516188L13.0028-0.00516188C13.4674-0.00516188 13.9319-0.0309713 14.3862 0.0154856 14.5875 0.0361332 14.8146 0.170342 14.9643 0.314875 15.7644 1.10464 16.5438 1.92022 17.3388 2.74096 17.3542 2.76677 17.3646 2.77709 17.3749 2.78225 17.3749 2.78225 17.3749 2.78225 17.3749 2.78742 17.3904 2.79774 17.4007 2.80806 17.411 2.81323 17.411 2.81323 17.411 2.81323 17.411 2.81839 17.4265 2.82871 17.4368 2.83904 17.4472 2.8442 17.4472 2.8442 17.4472 2.8442 17.4472 2.84936 17.4627 2.85968 17.4678 2.87001 17.4781 2.87517 17.4781 2.87517 17.4781 2.87517 17.4781 2.88033 17.4936 2.89065 17.5039 2.90098 17.5091 2.90614 17.5091 2.90614 17.5091 2.90614 17.5091 2.9113 17.5194 2.92679 17.5298 2.93195 17.5401 2.93711 17.5401 2.93711 17.5401 2.93711 17.5401 2.94227 17.5556 2.9526 17.5607 2.96292 17.5711 2.96808 17.5711 2.96808 17.5711 2.96808 17.5711 2.97324 17.5865 2.98357 17.5917 2.99389 17.602 2.99905 17.602 2.99905 17.602 2.99905 17.602 3.00422 17.6123 3.01454 17.6227 3.02486 17.633 3.03003 17.633 3.03003 17.633 3.03003 17.633 3.03519 17.6485 3.04551 17.6536 3.05584 17.664 3.061 17.664 3.061 17.664 3.061 17.664 3.06616 17.6795 3.07648 17.6846 3.08681 17.6949 3.09197 17.6949 3.09197 17.6949 3.09197 17.6949 3.09713 17.7104 3.10745 17.7207 3.11778 17.7311 3.12294 17.7414 3.12294 17.7466 3.12294 17.7569 3.15391 17.7724 3.17456 17.7827 3.18488 17.793 3.19004 17.855 3.24682 17.9117 3.30361 17.9788 3.37587 17.9943 3.40168 18.0047 3.40684 18.015 3.412 18.015 3.412 18.015 3.412 18.015 3.41717 18.0305 3.42749 18.0356 3.43781 18.0459 3.44298 18.0666 3.45846 18.0821 3.47395 18.1027 3.50492 18.1234 3.53073 18.1389 3.54105 18.1543 3.55138 18.1543 3.55138 18.1543 3.55138 18.1543 3.56686 18.1647 3.58235 18.175 3.58235 18.1853 3.58235 18.1853 3.58235 18.1853 3.58235 18.1853 3.59783 18.2111 3.6288 18.2369 3.64945 18.2679 3.6701 18.6912 4.09854 19.1196 4.53213 19.5481 4.97089 19.5171 4.99154 19.4861 5.01219 19.45 5.01735 19.1145 5.03284 18.7789 5.03284 18.4434 5.05348 17.9169 5.08962 17.3955 5.13607 16.8742 5.17221 16.5335 5.19802 16.198 5.21866 15.8573 5.23931 15.274 5.28061 14.6907 5.3219 14.1126 5.3632 13.7616 5.38901 13.4106 5.40965 13.0647 5.4303 12.4401 5.4716 11.8156 5.51805 11.191 5.55419 10.9432 5.56967 10.6903 5.58 10.4425 5.59032 10.3805 5.59032 10.3186 5.6058 10.2412 5.61613Z" fill="#218FCE" transform="matrix(1 0 0 1.00353 16.5321 119)"/><path d="M0.134209 30.1299C0.175504 30.1196 0.216799 30.1144 0.252932 30.0938 0.810416 29.8254 1.36274 29.5569 1.92538 29.2937 3.03519 28.7672 4.15015 28.2458 5.25996 27.7193 5.3219 27.6883 5.37868 27.6522 5.45611 27.6058 5.48708 27.5954 5.49741 27.5903 5.52321 27.5903 5.5387 27.5903 5.54386 27.5903 5.54902 27.5903 5.54902 27.5903 5.54902 27.5903 5.54902 27.5954 5.56451 27.6058 5.57483 27.6109 5.58516 27.6109 5.58516 27.6109 5.58516 27.6109 5.58516 27.6212 5.61097 27.6419 5.63161 27.647 5.66259 27.6522 6.04457 27.8638 6.42138 28.0755 6.79304 28.2871 7.86155 28.8911 8.93522 29.5002 10.0037 30.1093 10.0089 30.1144 10.0141 30.1196 10.0192 30.1196 10.0192 30.3261 10.0141 30.5274 9.99341 30.7545 9.97276 31.152 9.96243 31.5288 9.96243 31.9056 9.96243 31.9417 9.97792 31.9727 9.98824 32.0088 9.98824 32.0346 9.98824 32.0605 9.99341 32.1121 9.98308 32.3444 9.9676 32.5457 9.94695 32.7625 9.93663 32.8709 9.93146 32.9741 9.9263 33.0825 9.52367 33.4593 9.12105 33.831 8.71842 34.1975 8.24353 34.6208 7.76863 35.044 7.29374 35.4673 7.00468 35.7254 6.71561 35.9783 6.42654 36.2416 6.38009 36.288 6.34395 36.35 6.29234 36.4016 6.24072 36.4016 6.20458 36.4016 6.16845 36.4068 6.02392 36.3138 5.85874 36.2416 5.74001 36.1229 5.32706 35.7151 4.92444 35.2866 4.51149 34.8479 4.496 34.8221 4.48052 34.8117 4.47019 34.8014 4.47019 34.8014 4.47535 34.8014 4.47019 34.7963 4.45471 34.7859 4.44438 34.7756 4.43406 34.7704 4.43406 34.7704 4.43406 34.7704 4.43406 34.7653 4.41857 34.755 4.40825 34.7446 4.39792 34.7395 4.39792 34.7395 4.39792 34.7395 4.39792 34.7343 4.3876 34.7188 4.37728 34.7137 4.36695 34.7085 4.36695 34.7085 4.36695 34.7085 4.36695 34.7033 4.35147 34.693 4.34631 34.6827 4.33598 34.6775 4.33598 34.6775 4.33598 34.6775 4.33598 34.6724 4.3205 34.662 4.31533 34.6517 4.30501 34.6466 4.30501 34.6466 4.30501 34.6466 4.30501 34.6414 4.28953 34.6311 4.28436 34.6208 4.27404 34.6156 4.27404 34.6156 4.27404 34.6156 4.27404 34.6104 4.25855 34.6001 4.25339 34.5898 4.24307 34.5846 4.24307 34.5846 4.24307 34.5846 4.24307 34.5795 4.22758 34.5691 4.21726 34.5588 4.20693 34.5536 4.19145 34.5382 4.1708 34.5227 4.15015 34.4917 4.13467 34.4659 4.12434 34.4607 4.11402 34.4556 4.11402 34.4556 4.11402 34.4556 4.11402 34.4504 4.09854 34.4349 4.09337 34.4298 4.08305 34.4246 4.0624 34.4091 4.04692 34.3936 4.02627 34.3627 4.00562 34.3368 3.99014 34.3265 3.97465 34.3214 3.97465 34.3214 3.97465 34.3214 3.97465 34.3059 3.96433 34.2904 3.954 34.2904 3.94368 34.2904 3.94368 34.2904 3.93852 34.2904 3.94368 34.2801 3.94368 34.2697 3.93335 34.2697 3.92819 34.2697 3.78882 34.1304 3.65461 33.991 3.51008 33.831 3.4946 33.8052 3.48427 33.7948 3.47395 33.7897 3.47395 33.7897 3.47395 33.7897 3.47395 33.7845 3.45846 33.7742 3.4533 33.7639 3.44298 33.7587 3.44298 33.7587 3.44298 33.7587 3.44298 33.7536 3.42749 33.7432 3.42233 33.7329 3.412 33.7277 3.412 33.7277 3.412 33.7277 3.412 33.7226 3.39652 33.7123 3.39136 33.7019 3.38103 33.6968 3.38103 33.6968 3.38103 33.6968 3.38103 33.6916 3.36555 33.6813 3.36039 33.671 3.35006 33.6658 3.35006 33.6658 3.35006 33.6658 3.35006 33.6606 3.33458 33.6452 3.32425 33.64 3.31393 33.6348 3.30361 33.6348 3.29328 33.6348 3.28296 33.6039 3.26747 33.5832 3.25715 33.5729 3.24682 33.5677 3.24682 33.5677 3.24682 33.5677 3.24682 33.5574 3.22618 33.5316 3.20553 33.5161 3.17972 33.5058 3.17972 33.5058 3.17972 33.5058 3.17972 33.4955 3.16423 33.48 3.14875 33.4697 3.13326 33.4645 3.13326 33.4645 3.13326 33.4645 3.13326 33.449 3.12294 33.4387 3.11262 33.4335 3.10229 33.4335 3.10229 33.4335 3.10229 33.4335 3.10229 33.418 3.09197 33.4025 3.08164 33.4025 3.07132 33.4025 3.07132 33.4025 3.07132 33.4025 3.07132 33.3871 3.061 33.3716 3.05067 33.3716 3.04035 33.3716 3.04035 33.3716 3.03519 33.3716 3.04035 33.3613 3.04035 33.3509 3.03003 33.3509 3.02486 33.3509 2.9113 33.2322 2.79258 33.1186 2.67386 32.9793 2.65321 32.9535 2.64288 32.9431 2.63256 32.9328 2.63256 32.9328 2.63772 32.9328 2.63256 32.9277 2.61707 32.9173 2.60675 32.907 2.59643 32.9018 2.59643 32.9018 2.60159 32.9018 2.59643 32.8967 2.58094 32.8864 2.57062 32.876 2.56029 32.8709 2.56029 32.8709 2.56029 32.8709 2.56029 32.8657 2.54481 32.8554 2.53448 32.8451 2.52416 32.8399 2.52416 32.8399 2.52932 32.8399 2.52416 32.8347 2.50868 32.8244 2.49835 32.8141 2.48803 32.8089 2.48803 32.8089 2.49319 32.8089 2.48803 32.8038 2.47254 32.7934 2.46222 32.7831 2.45189 32.778 2.45189 32.778 2.45189 32.778 2.45189 32.7728 2.43641 32.7625 2.42608 32.7521 2.41576 32.747 2.41576 32.747 2.41576 32.747 2.41576 32.7418 2.40028 32.7315 2.39511 32.7212 2.38479 32.716 2.38479 32.716 2.38479 32.716 2.38479 32.7109 2.3693 32.7005 2.36414 32.6902 2.35382 32.685 2.35382 32.685 2.35382 32.685 2.35382 32.6799 2.33833 32.6696 2.33317 32.6592 2.32285 32.6541 2.32285 32.6541 2.32285 32.6541 2.32285 32.6489 2.31252 32.6386 2.3022 32.6283 2.29188 32.6231 2.29188 32.6231 2.29188 32.6231 2.29188 32.6179 2.27639 32.6025 2.26607 32.5973 2.25574 32.5921 2.24542 32.5921 2.2351 32.5921 2.22993 32.5612 2.21445 32.5354 2.19896 32.5302 2.18348 32.5199 2.18348 32.5199 2.18348 32.5199 2.18348 32.5044 2.16283 32.4786 2.14218 32.4682 2.12153 32.4579 2.12153 32.4579 2.12153 32.4528 2.12153 32.4424 2.11637 32.4269 2.10089 32.4269 2.09056 32.4269 2.09056 32.4269 2.09056 32.4269 2.09056 32.4115 2.06992 32.3857 2.04927 32.3753 2.02862 32.365 2.02862 32.365 2.02862 32.365 2.02862 32.3495 2.0183 32.334 2.00797 32.334 1.99765 32.3289 1.99765 32.3289 1.99765 32.3289 1.99765 32.3134 1.98732 32.2979 1.977 32.2979 1.96668 32.2927 1.96668 32.2927 1.96668 32.2927 1.96668 32.2773 1.94603 32.2514 1.92538 32.236 1.89957 32.2205 1.89957 32.2205 1.89957 32.2205 1.89957 32.2102 1.88925 32.1947 1.87893 32.1895 1.86344 32.1843 1.86344 32.1843 1.8686 32.1843 1.86344 32.174 1.84279 32.1482 1.81698 32.1327 1.79634 32.1172 1.79634 32.1172 1.8015 32.1172 1.79634 32.1069 1.78085 32.0966 1.77053 32.0914 1.7602 32.0863 1.7602 32.0863 1.76536 32.0863 1.7602 32.0759 1.73439 32.0501 1.71375 32.0346 1.6931 32.0192 1.6931 32.0192 1.69826 32.0192 1.6931 32.0088 1.68277 31.9985 1.66729 31.9882 1.65696 31.983 1.65696 31.983 1.66213 31.983 1.65696 31.9727 1.64148 31.9624 1.63116 31.9521 1.62083 31.9469 1.62083 31.9469 1.62599 31.9469 1.62083 31.9366 1.60535 31.9262 1.59502 31.9159 1.5847 31.9108 1.5847 31.9108 1.58986 31.9108 1.5847 31.9056 1.56921 31.8953 1.55889 31.885 1.54856 31.8798 1.54856 31.8798 1.55373 31.8798 1.54856 31.8746 1.53824 31.8591 1.52276 31.854 1.51243 31.8488 1.51243 31.8488 1.51243 31.8488 1.51243 31.8437 1.49695 31.8333 1.48662 31.823 1.4763 31.8178 1.4763 31.8178 1.4763 31.8178 1.4763 31.8127 1.46081 31.8024 1.45049 31.792 1.44017 31.7869 1.44017 31.7869 1.44017 31.7869 1.44017 31.7817 1.42984 31.7714 1.41952 31.7611 1.40919 31.7559 1.40919 31.7559 1.40919 31.7559 1.40919 31.7507 1.39371 31.7404 1.38338 31.7301 1.37306 31.7249 1.35758 31.7094 1.33693 31.6991 1.31628 31.6682 1.30079 31.6423 1.29047 31.6372 1.28015 31.632 1.26982 31.632 1.2595 31.632 1.25434 31.601 1.23885 31.5752 1.22337 31.5649 1.20272 31.5598 1.20272 31.5598 1.20272 31.5598 1.20272 31.5443 1.19756 31.5339 1.18723 31.5288 1.17691 31.5288 1.17691 31.5288 1.17175 31.5288 1.17691 31.5133 1.17175 31.4978 1.16142 31.4978 1.1511 31.4978 1.1511 31.4978 1.14594 31.4978 1.1511 31.4823 1.14078 31.4668 1.13045 31.4668 1.12013 31.4668 1.12013 31.4668 1.11497 31.4668 1.12013 31.4514 1.1098 31.4359 1.10464 31.4359 1.09432 31.4359 1.09432 31.4359 1.08916 31.4359 1.09432 31.4204 1.08916 31.4049 1.07883 31.4049 1.06851 31.4049 1.06851 31.4049 1.05819 31.4049 1.06335 31.3894 1.06335 31.3688 1.05819 31.3584 1.0427 31.3378 1.02721 31.3326 1.01173 31.3378 1.00141 31.3378 1.00141 31.3378 1.00141 31.3378 1.00141 31.3223 0.949787 31.2604 0.893006 31.2139 0.841387 31.1675 0.841387 31.1675 0.841387 31.1675 0.841387 31.1571 0.831063 31.1416 0.820739 31.1365 0.805254 31.1313 0.805254 31.1313 0.810416 31.1313 0.805254 31.121 0.79493 31.1107 0.779444 31.1003 0.769121 31.0952 0.769121 31.0952 0.774282 31.0952 0.769121 31.0849 0.748473 31.059 0.722664 31.0436 0.702016 31.0281 0.702016 31.0281 0.707178 31.0281 0.702016 31.0178 0.68653 31.0074 0.676207 30.9971 0.665883 30.9919 0.665883 30.9919 0.671045 30.9919 0.665883 30.9816 0.655559 30.9661 0.645235 30.961 0.634912 30.9558 0.634912 30.9558 0.640074 30.9558 0.634912 30.9507 0.619426 30.9403 0.609102 30.93 0.598778 30.9248 0.598778 30.9248 0.598778 30.9248 0.598778 30.9197 0.583293 30.9094 0.572969 30.899 0.562645 30.8939 0.562645 30.8939 0.562645 30.8939 0.562645 30.8887 0.54716 30.8784 0.536836 30.8681 0.526512 30.8629 0.526512 30.8629 0.526512 30.8629 0.526512 30.8577 0.511026 30.8474 0.505865 30.8371 0.495541 30.8319 0.495541 30.8319 0.495541 30.8319 0.495541 30.8268 0.480055 30.8164 0.474893 30.8061 0.464569 30.801 0.464569 30.801 0.464569 30.801 0.464569 30.7958 0.449084 30.7855 0.443922 30.7751 0.433598 30.77 0.433598 30.77 0.433598 30.77 0.433598 30.7648 0.418113 30.7545 0.412951 30.7442 0.402627 30.739 0.402627 30.739 0.402627 30.739 0.402627 30.7287 0.376817 30.7029 0.351008 30.6822 0.325199 30.6667 0.325199 30.6667 0.325199 30.6616 0.325199 30.6513 0.320037 30.6358 0.309713 30.6358 0.299389 30.6358 0.299389 30.6358 0.294227 30.6358 0.299389 30.6203 0.283904 30.5996 0.268418 30.5893 0.24777 30.579 0.24777 30.579 0.24777 30.579 0.24777 30.5687 0.221961 30.5429 0.196152 30.5222 0.170342 30.5067 0.170342 30.5067 0.170342 30.5067 0.170342 30.4912 0.144533 30.4499 0.113561 30.419 0.0825901 30.3932 0.0825901 30.3932 0.0825901 30.3932 0.0825901 30.3828 0.0619426 30.3261 0.0412951 30.2744 0.0206475 30.2177 0.0206475 30.197 0.0206475 30.1815 0.0258094 30.1712Z" fill="#015A9E" transform="matrix(1 0 0 1.00353 16.5321 119)"/><path d="M0.149695 5.65742C0.237447 5.70388 0.325199 5.74518 0.387141 5.81228 1.46081 6.95306 2.52932 8.09383 3.60299 9.23977 4.16048 9.83339 4.71796 10.427 5.27544 11.0413 5.26512 11.1135 5.25996 11.1652 5.25996 11.2168 5.25996 11.8827 5.25996 12.5485 5.25996 13.2299 5.24964 13.5138 5.23931 13.7874 5.22899 14.0558 5.19802 14.7578 5.29609 15.4702 5.16705 16.167 5.16705 16.167 5.16705 16.167 5.16188 16.167 5.1464 16.1877 5.14124 16.2083 5.13091 16.2238 5.13091 16.2238 5.13091 16.2238 5.12059 16.2238 5.09478 16.2599 5.07929 16.2909 5.06897 16.3219 5.06897 16.3219 5.06897 16.3219 5.06381 16.3219 5.05348 16.3374 5.04832 16.3477 5.04832 16.358 5.04832 16.358 5.04832 16.358 5.038 16.358 5.01735 16.3787 5.01219 16.3993 5.00703 16.4148 5.00703 16.4148 5.00703 16.4148 5.00186 16.4148 4.97606 16.4509 4.96057 16.4819 4.94508 16.5129 4.94508 16.5129 4.94508 16.5129 4.93992 16.5129 4.90379 16.5645 4.87282 16.6161 4.84701 16.6677 4.84701 16.6677 4.84701 16.6677 4.84185 16.6677 4.82636 16.6884 4.8212 16.709 4.81087 16.74 4.57859 17.0962 4.34631 17.442 4.11402 17.7878 3.57202 17.8756 3.02486 17.9634 2.48287 18.0408 2.10605 18.0976 1.72923 18.1389 1.34725 18.1853 1.31628 18.1853 1.28531 18.175 1.24401 18.1698 1.12529 18.0563 1.01689 17.9479 0.90333 17.8137 0.882682 17.7827 0.867196 17.7775 0.851711 17.7672 0.851711 17.7672 0.862034 17.762 0.862034 17.7517 0.805254 17.6949 0.753635 17.6485 0.696854 17.5969 0.696854 17.5969 0.696854 17.5969 0.702016 17.5865 0.671045 17.5504 0.634912 17.5246 0.60394 17.4988 0.60394 17.4988 0.60394 17.4988 0.60394 17.4885 0.583293 17.4627 0.562645 17.4472 0.536836 17.4317 0.536836 17.4317 0.536836 17.4317 0.536836 17.4214 0.516188 17.3955 0.495541 17.3801 0.469731 17.3646 0.469731 17.3646 0.469731 17.3646 0.469731 17.3542 0.454246 17.3388 0.43876 17.3336 0.423274 17.3233 0.423274 17.3233 0.418113 17.3181 0.423274 17.3026 0.418113 17.2923 0.407789 17.2871 0.397465 17.2871 0.397465 17.2871 0.387141 17.2871 0.392303 17.2717 0.387141 17.2562 0.376817 17.2562 0.366494 17.2562 0.366494 17.2562 0.35617 17.2562 0.361332 17.2407 0.35617 17.2252 0.345846 17.2252 0.335522 17.22 0.335522 17.22 0.335522 17.22 0.335522 17.2046 0.325199 17.1891 0.314875 17.1839 0.304551 17.1787 0.304551 17.1787 0.304551 17.1684 0.304551 17.1633 0.294227 17.1529 0.283904 17.1426 0.278742 17.1375 0.278742 17.1375 0.278742 17.1375 0.278742 17.1323 0.268418 17.1168 0.258094 17.1116 0.24777 17.1065 0.24777 17.1065 0.24777 17.1065 0.24777 17.0962 0.216799 17.0394 0.185828 16.9929 0.154857 16.9465 0.144533 16.9207 0.134209 16.8897 0.123885 16.8432 0.123885 16.6884 0.118723 16.5593 0.118723 16.4251 0.118723 12.9615 0.118723 9.49786 0.118723 6.02908 0.118723 5.96198 0.103238 5.89487 0.0929139 5.82777 0.103238 5.76582 0.118723 5.70388 0.139371 5.63678Z" fill="#025294" transform="matrix(1 0 0 1.00353 16.5321 119)"/><path d="M6.30782 36.4068C6.34912 36.3551 6.38009 36.288 6.43171 36.2467 6.71561 35.9887 7.00984 35.7306 7.2989 35.4725 7.7738 35.0492 8.25385 34.6311 8.72358 34.2026 9.13137 33.8361 9.52884 33.4645 9.94179 33.0877 9.96243 33.0774 9.9676 33.0722 9.98308 33.0722 9.98824 33.0722 9.99857 33.0774 10.0089 33.0877 10.107 33.098 10.1999 33.1083 10.2876 33.1032 10.4786 33.0877 10.6645 33.067 10.8554 33.0464 11.1135 33.0206 11.3716 33.0051 11.6297 32.9741 11.9859 32.938 12.3421 32.8915 12.7034 32.8554 13.0492 32.8193 13.4002 32.7883 13.7461 32.7521 14.221 32.7005 14.6907 32.6489 15.1656 32.5973 15.3876 32.5715 15.6147 32.5354 15.8521 32.5044 15.976 32.4941 16.0896 32.4837 16.198 32.4734 16.6522 32.4218 17.1116 32.3702 17.5659 32.3186 17.633 32.3082 17.6949 32.2773 17.7569 32.2566 17.7724 32.2566 17.7878 32.2566 17.824 32.2566 17.9117 32.2566 17.9788 32.2411 18.0459 32.2256 18.0718 32.2256 18.0976 32.2205 18.144 32.2256 18.2163 32.2256 18.2627 32.2153 18.3144 32.205 18.6963 32.1534 19.0783 32.1017 19.4913 32.0501 19.5377 32.0501 19.5532 32.0501 19.5739 32.0501 19.4293 32.2205 19.3003 32.4115 19.1351 32.5612 18.2524 33.3716 17.3594 34.1768 16.4716 34.9821 16.3632 35.0802 16.2444 35.1731 16.1154 35.2763 16.0948 35.3021 16.0844 35.3176 16.0793 35.3331 16.0793 35.3331 16.0741 35.3331 16.0638 35.3331 16.0173 35.3589 15.976 35.3899 15.9347 35.4208 15.9347 35.4208 15.9347 35.4208 15.9296 35.4208 15.9192 35.4363 15.9089 35.4415 15.9038 35.4518 15.9038 35.4518 15.9038 35.4518 15.8934 35.4518 15.687 35.5034 15.4908 35.5602 15.2792 35.6118 14.8714 35.6531 14.4791 35.6944 14.0868 35.7409 13.9422 35.7564 13.8029 35.7977 13.6583 35.8286 13.5706 35.8286 13.488 35.8338 13.3796 35.8286 13.1267 35.8338 12.8944 35.8493 12.6673 35.8699 12.275 35.9061 11.8775 35.9525 11.4749 35.9938 11.4491 36.0145 11.4336 36.0351 11.4181 36.0506 11.4026 36.0506 11.3871 36.0506 11.3561 36.0454 11.0309 36.0558 10.7212 36.0661 10.4167 36.0919 9.89017 36.1383 9.36366 36.1951 8.83714 36.2519 8.79069 36.2519 8.74423 36.288 8.69777 36.3087 8.53776 36.3293 8.37774 36.3448 8.19707 36.3551 8.15578 36.3397 8.14029 36.3293 8.11964 36.3293 7.80993 36.3551 7.50022 36.381 7.17502 36.4068 6.88079 36.4481 6.60205 36.4997 6.32331 36.4068Z" fill="#02508B" transform="matrix(1 0 0 1.00353 16.5321 119)"/><path d="M0.0980758 5.85874C0.1084 5.91036 0.123885 5.97746 0.123885 6.04457 0.123885 9.50819 0.123885 12.9718 0.123885 16.4406 0.123885 16.5696 0.129047 16.7039 0.129047 16.8432 0.1084 16.7503 0.0722664 16.6471 0.0722664 16.5438 0.0722664 12.9873 0.0825901 9.43076 0.0929139 5.85874Z" fill="#273575" transform="matrix(1 0 0 1.00353 16.5321 119)"/><path d="M19.8578 15.9864C19.8474 15.9502 19.832 15.8986 19.832 15.847 19.832 12.4866 19.832 9.12621 19.832 5.77099 19.832 5.72969 19.8371 5.6884 19.8474 5.63161 19.8578 5.76066 19.8629 5.90003 19.8629 6.03424 19.8629 9.34301 19.8629 12.6569 19.8629 15.9812Z" fill="#154CA1" transform="matrix(1 0 0 1.00353 16.5321 119)"/><path d="M19.6719 28.9117C19.6719 28.3233 19.6719 27.74 19.6719 27.1515 19.6771 26.434 19.6926 25.7165 19.7029 24.9938 19.7029 24.9577 19.7236 24.9164 19.7494 24.8751 19.7649 24.9577 19.7649 25.0455 19.7597 25.1487 19.7545 25.1693 19.7494 25.1745 19.7494 25.1745 19.7494 25.1797 19.7597 25.1848 19.7597 25.19 19.7597 25.2055 19.7597 25.2158 19.7545 25.2468 19.7545 25.2932 19.7545 25.319 19.7545 25.35 19.7545 25.3655 19.7545 25.3758 19.7442 25.412 19.739 25.5203 19.7442 25.6133 19.7442 25.701 19.739 26.2998 19.7287 26.8986 19.7132 27.518 19.7132 27.5903 19.7132 27.6367 19.7132 27.6883 19.7029 28.0858 19.6977 28.4781 19.6823 28.8911 19.6719 28.9065 19.6616 28.9065 19.6616 28.9065Z" fill="#298CCC" transform="matrix(1 0 0 1.00353 16.5321 119)"/><path d="M0.129047 30.1144C0.129047 30.1402 0.129047 30.1557 0.118723 30.1764 0.113561 30.1867 0.0980758 30.1867 0.0980758 30.1867 0.087752 30.1299 0.0671045 30.0783 0.0619426 30.0215 0.0619426 29.4331 0.0619426 28.8498 0.0619426 28.2355 0.0619426 27.4251 0.0619426 26.6405 0.0619426 25.861 0.0619426 25.8146 0.046457 25.7681 0.0412951 25.7217 0.0412951 25.701 0.0361332 25.6804 0.0516188 25.6546 0.0774283 25.6442 0.087752 25.6442 0.0980758 25.6442 0.1084 27.1309 0.118723 28.6175 0.134209 30.1196Z" fill="#1A2052" transform="matrix(1 0 0 1.00353 16.5321 119)"/><path d="M8.69777 36.3087C8.72874 36.288 8.7752 36.2519 8.82166 36.2519 9.34817 36.1951 9.87468 36.1383 10.4012 36.0919 10.7057 36.0661 11.0155 36.0506 11.3303 36.0454 10.5354 36.1332 9.73531 36.2106 8.93006 36.288 8.85779 36.2932 8.78553 36.3035 8.69777 36.3138Z" fill="#233B77" transform="matrix(1 0 0 1.00353 16.5321 119)"/><path d="M19.5842 31.983C19.5945 31.121 19.6152 30.2538 19.6358 29.3866 19.6358 29.3608 19.6565 29.3298 19.6823 29.2988 19.6977 29.3401 19.6977 29.3866 19.6874 29.4485 19.6874 29.495 19.6874 29.5208 19.6874 29.5518 19.6771 30.2486 19.6719 30.9507 19.6565 31.6475 19.6565 31.7559 19.61 31.8643 19.579 31.983Z" fill="#2B92D0" transform="matrix(1 0 0 1.00353 16.5321 119)"/><path d="M11.8517 0.046457C11.8104 0.0567807 11.7743 0.0774283 11.733 0.0774283 11.0309 0.0774283 10.3289 0.0774283 9.62691 0.0774283 9.60627 0.0774283 9.58562 0.0722664 9.55465 0.0567807 10.3031 0.0361332 11.0619 0.0258094 11.8362 0.0206475 11.8517 0.0309713 11.8517 0.0412951 11.8517 0.0412951Z" fill="#2B87C8" transform="matrix(1 0 0 1.00353 16.5321 119)"/><path d="M11.4697 35.9938C11.862 35.9525 12.2595 35.9112 12.6518 35.8699 12.8841 35.8493 13.1112 35.8338 13.3538 35.8235 13.137 35.8648 12.9202 35.9009 12.6931 35.9215 12.2956 35.9628 11.893 35.9938 11.48 36.0299 11.4697 36.0145 11.4697 36.0041 11.4697 35.9887Z" fill="#223D7A" transform="matrix(1 0 0 1.00353 16.5321 119)"/><path d="M7.17502 0.1084C7.09243 0.118723 7.00984 0.139371 6.92209 0.139371 6.57624 0.139371 6.23039 0.134209 5.88455 0.139371 5.63678 0.144533 5.38901 0.180666 5.13091 0.196152 5.30125 0.160018 5.48192 0.1084 5.66775 0.0980758 6.15813 0.0774283 6.65367 0.0774283 7.15953 0.0825901 7.17502 0.0929139 7.17502 0.103238 7.17502 0.103238Z" fill="#2B78BD" transform="matrix(1 0 0 1.00353 16.5321 119)"/><path d="M13.6635 35.8286C13.7926 35.7977 13.9319 35.7564 14.0765 35.7357 14.4688 35.6893 14.8611 35.648 15.2689 35.617 15.2843 35.6376 15.2843 35.6531 15.2843 35.6634 14.7475 35.7202 14.2158 35.7719 13.6635 35.8235Z" fill="#233974" transform="matrix(1 0 0 1.00353 16.5321 119)"/><path d="M0.0361332 25.7372C0.046457 25.7681 0.0619426 25.8197 0.0619426 25.8662 0.0619426 26.6508 0.0619426 27.4302 0.0619426 28.2252 0.046457 27.4096 0.0361332 26.5785 0.0309713 25.7372Z" fill="#174477" transform="matrix(1 0 0 1.00353 16.5321 119)"/><path d="M7.1905 0.1084C7.1905 0.1084 7.17502 0.0929139 7.17502 0.087752 7.60862 0.0774283 8.04221 0.0671045 8.50678 0.0671045 8.68229 0.0671045 8.82166 0.0567807 8.96619 0.0516188 8.98168 0.0516188 8.99716 0.0516188 9.02297 0.0516188 9.03846 0.0567807 9.04878 0.0619426 9.04878 0.0619426 9.04878 0.0619426 9.0591 0.0516188 9.0591 0.0516188 9.09524 0.0516188 9.12621 0.0516188 9.17267 0.0516188 9.13137 0.0722664 9.07975 0.1084 9.02297 0.1084 8.41387 0.1084 7.80477 0.1084 7.18018 0.1084Z" fill="#2C73BA" transform="matrix(1 0 0 1.00353 16.5321 119)"/><path d="M19.7649 24.7616C19.7649 24.7616 19.739 24.6945 19.739 24.6583 19.739 24.2144 19.739 23.7756 19.739 23.3317 19.739 23.2956 19.7597 23.2543 19.7855 23.213 19.7958 23.2853 19.801 23.3627 19.7855 23.4608 19.7752 23.5692 19.7752 23.6517 19.77 23.7343 19.77 24.0699 19.77 24.4054 19.7649 24.7564Z" fill="#298CCC" transform="matrix(1 0 0 1.00353 16.5321 119)"/><path d="M11.8672 0.046457C11.8672 0.046457 11.8517 0.0309713 11.8517 0.0258094 12.2233 0.0103238 12.595 0.00516188 12.977 0.00516188 13.1422 0.00516188 13.297 0.00516188 13.4467 0.00516188 13.4467 0.0206475 13.4467 0.0309713 13.4467 0.046457 12.9254 0.046457 12.404 0.046457 11.862 0.046457Z" fill="#2C73BA" transform="matrix(1 0 0 1.00353 16.5321 119)"/><path d="M7.17502 36.4068C7.48473 36.381 7.79444 36.3551 8.10416 36.3293 8.1248 36.3293 8.14029 36.3397 8.1661 36.3551 7.84606 36.4016 7.52603 36.4377 7.18534 36.4635 7.16986 36.4377 7.16986 36.4274 7.16986 36.4119Z" fill="#243570" transform="matrix(1 0 0 1.00353 16.5321 119)"/><path d="M7.16469 36.4068C7.16469 36.4068 7.18018 36.4326 7.18018 36.4532 6.84982 36.4894 6.5143 36.5513 6.18394 36.4171 6.21491 36.4068 6.25104 36.4016 6.30266 36.4016 6.59689 36.4997 6.87563 36.4481 7.16986 36.4016Z" fill="#233974" transform="matrix(1 0 0 1.00353 16.5321 119)"/><path d="M0.0980758 25.6288C0.0980758 25.6288 0.0774283 25.6442 0.0516188 25.6442 0.0361332 25.4532 0.0309713 25.2571 0.0309713 25.0506 0.0309713 25.0351 0.0516188 25.0403 0.0567807 25.0403 0.0722664 25.2313 0.0825901 25.4223 0.0929139 25.6288Z" fill="#174477" transform="matrix(1 0 0 1.00353 16.5321 119)"/><path d="M15.2947 35.6686C15.2947 35.6686 15.2843 35.6428 15.2843 35.6222 15.4805 35.5602 15.6766 35.5034 15.8831 35.4518 15.6973 35.5241 15.5011 35.5963 15.2947 35.6686Z" fill="#243975" transform="matrix(1 0 0 1.00353 16.5321 119)"/><path d="M8.95587 0.0516188C8.82682 0.0619426 8.68229 0.0671045 8.52227 0.0722664 8.65132 0.0619426 8.79585 0.0567807 8.95587 0.0516188Z" fill="#218FCE" transform="matrix(1 0 0 1.00353 16.5321 119)"/><path d="M19.6977 29.2163C19.61 29.1904 19.6152 29.1337 19.6874 29.0717 19.6977 29.113 19.7029 29.1595 19.6977 29.2163Z" fill="#2B92D0" transform="matrix(1 0 0 1.00353 16.5321 119)"/><path d="M0.696854 17.6227C0.748473 17.6588 0.800092 17.7104 0.851711 17.7672 0.800092 17.7311 0.753635 17.6795 0.696854 17.6227Z" fill="#233D7E" transform="matrix(1 0 0 1.00353 16.5321 119)"/><path d="M0.918815 31.1416C0.970434 31.1778 1.02205 31.2294 1.07367 31.2862 1.02205 31.25 0.975596 31.1984 0.918815 31.1416Z" fill="#233F85" transform="matrix(1 0 0 1.00353 16.5321 119)"/><path d="M0.160018 16.9723C0.19099 17.0084 0.221961 17.0549 0.252932 17.1116 0.221961 17.0755 0.19099 17.0291 0.160018 16.9723Z" fill="#233D7E" transform="matrix(1 0 0 1.00353 16.5321 119)"/><path d="M19.7597 25.6959C19.7545 25.6184 19.7494 25.5307 19.7545 25.4326 19.7649 25.51 19.7649 25.5978 19.7597 25.6959Z" fill="#3CB3E7" transform="matrix(1 0 0 1.00353 16.5321 119)"/><path d="M19.7803 23.7292C19.7752 23.6569 19.7803 23.5743 19.7803 23.4814 19.7855 23.5537 19.7803 23.6363 19.7803 23.7292Z" fill="#1EA4DE" transform="matrix(1 0 0 1.00353 16.5321 119)"/><path d="M0.0980758 30.2022C0.0980758 30.2022 0.113561 30.1919 0.118723 30.1919 0.144533 30.2383 0.170342 30.2899 0.19099 30.3519 0.160018 30.3157 0.129047 30.2641 0.103238 30.2073Z" fill="#233F85" transform="matrix(1 0 0 1.00353 16.5321 119)"/><path d="M0.60394 17.5194C0.634912 17.5349 0.665883 17.5607 0.696854 17.602 0.665883 17.5865 0.634912 17.5607 0.60394 17.5194Z" fill="#233D7E" transform="matrix(1 0 0 1.00353 16.5321 119)"/><path d="M15.9347 35.4157C15.9657 35.3899 16.0018 35.3589 16.0535 35.3279 16.0225 35.3589 15.9864 35.3847 15.9347 35.4157Z" fill="#243975" transform="matrix(1 0 0 1.00353 16.5321 119)"/><path d="M18.2576 3.68558C18.2576 3.68558 18.206 3.65461 18.1802 3.62364 18.206 3.63397 18.2318 3.65461 18.2576 3.68558Z" fill="#2D78BE" transform="matrix(1 0 0 1.00353 16.5321 119)"/><path d="M0.185828 30.3674C0.211637 30.388 0.242609 30.4138 0.268418 30.4551 0.237447 30.4345 0.211637 30.4087 0.185828 30.3674Z" fill="#233F85" transform="matrix(1 0 0 1.00353 16.5321 119)"/><path d="M19.7287 27.6832C19.7184 27.647 19.7184 27.6006 19.7184 27.5438 19.7287 27.5799 19.7287 27.6264 19.7287 27.6832Z" fill="#40B5E8" transform="matrix(1 0 0 1.00353 16.5321 119)"/><path d="M0.278742 30.4809C0.278742 30.4809 0.325199 30.5067 0.351008 30.5377 0.330361 30.5274 0.304551 30.5067 0.278742 30.4809Z" fill="#233F85" transform="matrix(1 0 0 1.00353 16.5321 119)"/><path d="M0.43876 30.6409C0.43876 30.6409 0.485217 30.6667 0.511026 30.6977 0.490379 30.6874 0.464569 30.6667 0.43876 30.6409Z" fill="#233F85" transform="matrix(1 0 0 1.00353 16.5321 119)"/><path d="M11.4594 35.9938C11.4594 35.9938 11.4697 36.0145 11.4697 36.0351 11.4542 36.0506 11.4439 36.0506 11.4181 36.0558 11.4181 36.0351 11.4387 36.0145 11.4594 35.9938Z" fill="#233B77" transform="matrix(1 0 0 1.00353 16.5321 119)"/><path d="M19.5635 32.045C19.5635 32.045 19.5222 32.045 19.4913 32.045 19.5068 32.0295 19.5326 32.0088 19.5687 31.9882 19.5739 32.0037 19.5687 32.0192 19.5687 32.045Z" fill="#2B92D0" transform="matrix(1 0 0 1.00353 16.5321 119)"/><path d="M0.480055 17.3904C0.480055 17.3904 0.52135 17.411 0.541998 17.4368 0.52135 17.4317 0.500703 17.4162 0.480055 17.3904Z" fill="#233D7E" transform="matrix(1 0 0 1.00353 16.5321 119)"/><path d="M0.541998 17.4575C0.541998 17.4575 0.583293 17.4781 0.60394 17.5039 0.583293 17.4988 0.562645 17.4833 0.541998 17.4575Z" fill="#233D7E" transform="matrix(1 0 0 1.00353 16.5321 119)"/><path d="M19.6977 29.5415C19.6977 29.5415 19.6874 29.5002 19.6874 29.464 19.6977 29.4795 19.6977 29.5053 19.6977 29.5415Z" fill="#1EA4DE" transform="matrix(1 0 0 1.00353 16.5321 119)"/><path d="M19.7649 25.3448C19.7649 25.3448 19.7545 25.2984 19.7545 25.2674 19.7649 25.2829 19.7649 25.3087 19.7649 25.3448Z" fill="#3CB3E7" transform="matrix(1 0 0 1.00353 16.5321 119)"/><path d="M2.16799 32.4373C2.16799 32.4373 2.20929 32.4528 2.22477 32.4734 2.20412 32.4734 2.18864 32.4579 2.16799 32.4373Z" fill="#224188" transform="matrix(1 0 0 1.00353 16.5321 119)"/><path d="M1.94087 32.1998C1.94087 32.1998 1.98216 32.2205 2.00281 32.2463 1.98216 32.2411 1.96668 32.2256 1.94087 32.1998Z" fill="#224188" transform="matrix(1 0 0 1.00353 16.5321 119)"/><path d="M1.84795 32.1017C1.84795 32.1017 1.88925 32.1224 1.9099 32.1534 1.88925 32.1482 1.8686 32.1276 1.84795 32.1017Z" fill="#224188" transform="matrix(1 0 0 1.00353 16.5321 119)"/><path d="M2.06992 32.334C2.06992 32.334 2.11121 32.3495 2.1267 32.3753 2.10605 32.3753 2.09056 32.3547 2.06992 32.334Z" fill="#224188" transform="matrix(1 0 0 1.00353 16.5321 119)"/><path d="M0.79493 31.0074C0.79493 31.0074 0.836225 31.0281 0.856873 31.059 0.836225 31.0539 0.815578 31.0332 0.79493 31.0074Z" fill="#233F85" transform="matrix(1 0 0 1.00353 16.5321 119)"/><path d="M3.20553 33.5058C3.20553 33.5058 3.24682 33.5264 3.26747 33.5522 3.24682 33.5471 3.23134 33.5316 3.20553 33.5058Z" fill="#224188" transform="matrix(1 0 0 1.00353 16.5321 119)"/><path d="M1.75504 32.0037C1.75504 32.0037 1.79634 32.0243 1.81698 32.0501 1.79634 32.045 1.77569 32.0295 1.75504 32.0037Z" fill="#224188" transform="matrix(1 0 0 1.00353 16.5321 119)"/><path d="M1.30079 31.5391C1.30079 31.5391 1.3266 31.5494 1.34209 31.5649 1.33177 31.5649 1.31628 31.5546 1.30079 31.5391Z" fill="#214289" transform="matrix(1 0 0 1.00353 16.5321 119)"/><path d="M16.0741 35.3331C16.0741 35.3331 16.0793 35.3073 16.0999 35.2918 16.0999 35.3021 16.0896 35.3176 16.0741 35.3331Z" fill="#243975" transform="matrix(1 0 0 1.00353 16.5321 119)"/><path d="M5.11543 0.201313C5.11543 0.201313 5.09478 0.221961 5.06897 0.232285 5.07413 0.221961 5.08962 0.211637 5.11543 0.201313Z" fill="#2B78BD" transform="matrix(1 0 0 1.00353 16.5321 119)"/><path d="M3.99014 34.3214C3.99014 34.3214 4.01595 34.3317 4.03143 34.3472 4.02111 34.3472 4.00562 34.3368 3.99014 34.3214Z" fill="#233F87" transform="matrix(1 0 0 1.00353 16.5321 119)"/><path d="M2.22993 32.4992C2.22993 32.4992 2.25574 32.5095 2.27123 32.525 2.26091 32.525 2.24542 32.5147 2.22993 32.4992Z" fill="#224188" transform="matrix(1 0 0 1.00353 16.5321 119)"/><path d="M3.15907 33.4593C3.15907 33.4593 3.18488 33.4697 3.20037 33.4851 3.19004 33.4851 3.17456 33.4748 3.15907 33.4593Z" fill="#224188" transform="matrix(1 0 0 1.00353 16.5321 119)"/><path d="M0.351008 30.5532C0.351008 30.5532 0.381979 30.5635 0.397465 30.5842 0.381979 30.5842 0.366494 30.5738 0.351008 30.5532Z" fill="#233F85" transform="matrix(1 0 0 1.00353 16.5321 119)"/><path d="M1.12013 31.312C1.12013 31.312 1.13045 31.3326 1.13045 31.3481 1.11497 31.3481 1.09948 31.3326 1.09432 31.3171 1.10464 31.312 1.11497 31.3068 1.12013 31.3068Z" fill="#214289" transform="matrix(1 0 0 1.00353 16.5321 119)"/><path d="M5.04832 0.232285C5.04832 0.232285 5.05865 0.24777 5.05865 0.268418 5.04316 0.278742 5.02767 0.27358 5.00186 0.268418 5.00186 0.252932 5.02251 0.242609 5.04316 0.232285Z" fill="#2B78BD" transform="matrix(1 0 0 1.00353 16.5321 119)"/><path d="M0.43876 17.3491C0.43876 17.3491 0.464569 17.3542 0.480055 17.3749 0.469731 17.3749 0.454246 17.3646 0.43876 17.3491Z" fill="#233D7E" transform="matrix(1 0 0 1.00353 16.5321 119)"/><path d="M0.851711 17.7878C0.851711 17.7878 0.87752 17.7982 0.893006 17.8188 0.882682 17.8188 0.867196 17.8085 0.851711 17.7878Z" fill="#233D7E" transform="matrix(1 0 0 1.00353 16.5321 119)"/><path d="M18.144 3.57202C18.144 3.57202 18.1182 3.5617 18.1027 3.54105 18.113 3.54105 18.1285 3.55138 18.144 3.57202Z" fill="#2D78BE" transform="matrix(1 0 0 1.00353 16.5321 119)"/><path d="M19.6719 28.922C19.6719 28.922 19.6874 28.9117 19.6926 28.9117 19.7029 28.9272 19.7029 28.9375 19.7029 28.9633 19.6926 28.9633 19.6823 28.9427 19.6719 28.922Z" fill="#2B92D0" transform="matrix(1 0 0 1.00353 16.5321 119)"/><path d="M2.55513 32.8347C2.55513 32.8347 2.57578 32.8347 2.5861 32.8554 2.57578 32.8554 2.57062 32.8554 2.55513 32.8347Z" fill="#224188" transform="matrix(1 0 0 1.00353 16.5321 119)"/><path d="M3.39136 33.6968C3.39136 33.6968 3.40684 33.6968 3.42233 33.7174 3.41717 33.7174 3.40684 33.7174 3.39136 33.6968Z" fill="#224188" transform="matrix(1 0 0 1.00353 16.5321 119)"/><path d="M3.36039 33.6658C3.36039 33.6658 3.37587 33.6658 3.39136 33.6865 3.3862 33.6865 3.37587 33.6865 3.36039 33.6658Z" fill="#224188" transform="matrix(1 0 0 1.00353 16.5321 119)"/><path d="M3.32941 33.6297C3.32941 33.6297 3.3449 33.6297 3.36039 33.6503 3.35522 33.6503 3.3449 33.6503 3.32941 33.6297Z" fill="#224188" transform="matrix(1 0 0 1.00353 16.5321 119)"/><path d="M3.26747 33.5677C3.26747 33.5677 3.28296 33.5677 3.29844 33.5884 3.29328 33.5884 3.28296 33.5884 3.26747 33.5677Z" fill="#224188" transform="matrix(1 0 0 1.00353 16.5321 119)"/><path d="M0.340684 17.2459C0.340684 17.2459 0.35617 17.2459 0.366494 17.2562 0.35617 17.2613 0.351008 17.2562 0.340684 17.2459Z" fill="#233D7E" transform="matrix(1 0 0 1.00353 16.5321 119)"/><path d="M0.376817 17.282C0.376817 17.282 0.392303 17.282 0.397465 17.2871 0.387141 17.2923 0.381979 17.2871 0.376817 17.282Z" fill="#233D7E" transform="matrix(1 0 0 1.00353 16.5321 119)"/><path d="M3.1281 33.4232C3.1281 33.4232 3.14875 33.4232 3.15391 33.4335 3.14359 33.4387 3.13842 33.4335 3.1281 33.4232Z" fill="#224188" transform="matrix(1 0 0 1.00353 16.5321 119)"/><path d="M3.09713 33.3922C3.09713 33.3922 3.11778 33.3922 3.12294 33.4025 3.11262 33.4077 3.10745 33.4025 3.09713 33.3922Z" fill="#224188" transform="matrix(1 0 0 1.00353 16.5321 119)"/><path d="M3.06616 33.3613C3.06616 33.3613 3.08681 33.3613 3.09197 33.3716 3.08164 33.3767 3.07132 33.3716 3.06616 33.3613Z" fill="#224188" transform="matrix(1 0 0 1.00353 16.5321 119)"/><path d="M2.65321 32.9328C2.65321 32.9328 2.67386 32.938 2.68934 32.9586 2.67902 32.9586 2.66869 32.9535 2.65321 32.9328Z" fill="#224188" transform="matrix(1 0 0 1.00353 16.5321 119)"/><path d="M2.62224 32.8967C2.62224 32.8967 2.64288 32.8967 2.65321 32.9173 2.64288 32.9173 2.63772 32.9173 2.62224 32.8967Z" fill="#224188" transform="matrix(1 0 0 1.00353 16.5321 119)"/><path d="M2.59127 32.8657C2.59127 32.8657 2.60675 32.8657 2.62224 32.8864 2.61191 32.8864 2.60675 32.8864 2.59127 32.8657Z" fill="#224188" transform="matrix(1 0 0 1.00353 16.5321 119)"/><path d="M3.45846 33.7587C3.45846 33.7587 3.47395 33.7587 3.48943 33.7794 3.48427 33.7794 3.47395 33.7794 3.45846 33.7587Z" fill="#224188" transform="matrix(1 0 0 1.00353 16.5321 119)"/><path d="M2.52416 32.7986C2.52416 32.7986 2.53965 32.7986 2.55513 32.8193 2.54997 32.8193 2.53965 32.8193 2.52416 32.7986Z" fill="#224188" transform="matrix(1 0 0 1.00353 16.5321 119)"/><path d="M0.407789 17.313C0.407789 17.313 0.423274 17.313 0.428436 17.3181 0.418113 17.3181 0.412951 17.3181 0.407789 17.313Z" fill="#233D7E" transform="matrix(1 0 0 1.00353 16.5321 119)"/><path d="M2.49319 32.7676C2.49319 32.7676 2.50868 32.7676 2.52416 32.7883 2.519 32.7883 2.50868 32.7883 2.49319 32.7676Z" fill="#224188" transform="matrix(1 0 0 1.00353 16.5321 119)"/><path d="M2.46222 32.7367C2.46222 32.7367 2.4777 32.7367 2.49319 32.7573 2.48803 32.7573 2.4777 32.7573 2.46222 32.7367Z" fill="#224188" transform="matrix(1 0 0 1.00353 16.5321 119)"/><path d="M2.43125 32.7057C2.43125 32.7057 2.44673 32.7057 2.46222 32.7263 2.45706 32.7263 2.44673 32.7263 2.43125 32.7057Z" fill="#224188" transform="matrix(1 0 0 1.00353 16.5321 119)"/><path d="M2.40028 32.6696C2.40028 32.6696 2.41576 32.6696 2.43125 32.6902 2.42608 32.6902 2.41576 32.6902 2.40028 32.6696Z" fill="#224188" transform="matrix(1 0 0 1.00353 16.5321 119)"/><path d="M2.3693 32.6386C2.3693 32.6386 2.38479 32.6386 2.40028 32.6592 2.39511 32.6592 2.38479 32.6592 2.3693 32.6386Z" fill="#224188" transform="matrix(1 0 0 1.00353 16.5321 119)"/><path d="M2.33833 32.6076C2.33833 32.6076 2.35382 32.6076 2.3693 32.6283 2.36414 32.6283 2.35382 32.6283 2.33833 32.6076Z" fill="#224188" transform="matrix(1 0 0 1.00353 16.5321 119)"/><path d="M2.3022 32.5715C2.3022 32.5715 2.31769 32.5715 2.33317 32.5921 2.32801 32.5921 2.31769 32.5921 2.3022 32.5715Z" fill="#224188" transform="matrix(1 0 0 1.00353 16.5321 119)"/><path d="M17.4007 2.82355C17.4007 2.82355 17.3852 2.82355 17.3697 2.80806 17.3749 2.80806 17.3852 2.80806 17.4007 2.82355Z" fill="#2D78BE" transform="matrix(1 0 0 1.00353 16.5321 119)"/><path d="M17.4317 2.85452C17.4317 2.85452 17.4162 2.85452 17.4007 2.83387 17.4059 2.83387 17.4162 2.83387 17.4317 2.85452Z" fill="#2D78BE" transform="matrix(1 0 0 1.00353 16.5321 119)"/><path d="M4.3876 34.7188C4.3876 34.7188 4.40309 34.7188 4.41857 34.7395 4.41341 34.7395 4.40309 34.7395 4.3876 34.7188Z" fill="#233F87" transform="matrix(1 0 0 1.00353 16.5321 119)"/><path d="M9.0591 0.0516188C9.0591 0.0516188 9.0591 0.0619426 9.0591 0.0619426 9.0591 0.0619426 9.04362 0.0619426 9.04362 0.0567807 9.04362 0.0516188 9.04878 0.0516188 9.06427 0.0516188Z" fill="#218FCE" transform="matrix(1 0 0 1.00353 16.5321 119)"/><path d="M17.3697 2.78742C17.3697 2.78742 17.3542 2.78225 17.3388 2.76161 17.3439 2.76161 17.3542 2.76677 17.3697 2.78742Z" fill="#2D78BE" transform="matrix(1 0 0 1.00353 16.5321 119)"/><path d="M0.252932 17.1323C0.252932 17.1323 0.268418 17.1375 0.278742 17.1529 0.27358 17.1529 0.263256 17.1478 0.252932 17.1323Z" fill="#233D7E" transform="matrix(1 0 0 1.00353 16.5321 119)"/><path d="M15.8986 35.4518C15.8986 35.4518 15.8986 35.4363 15.9141 35.4208 15.9141 35.426 15.9141 35.4363 15.8986 35.4518Z" fill="#243975" transform="matrix(1 0 0 1.00353 16.5321 119)"/><path d="M0.283904 17.1684C0.283904 17.1684 0.299389 17.1736 0.309713 17.1891 0.299389 17.1891 0.294227 17.1839 0.283904 17.1684Z" fill="#233D7E" transform="matrix(1 0 0 1.00353 16.5321 119)"/><path d="M0.309713 17.2046C0.309713 17.2046 0.330361 17.2046 0.335522 17.22 0.325199 17.22 0.314875 17.22 0.309713 17.2046Z" fill="#233D7E" transform="matrix(1 0 0 1.00353 16.5321 119)"/><path d="M4.48052 34.8221C4.48052 34.8221 4.50116 34.8272 4.51149 34.8479 4.50116 34.8479 4.49084 34.8427 4.48052 34.8221Z" fill="#233F87" transform="matrix(1 0 0 1.00353 16.5321 119)"/><path d="M4.44954 34.7859C4.44954 34.7859 4.46503 34.7859 4.48052 34.8066 4.47535 34.8066 4.46503 34.8066 4.44954 34.7859Z" fill="#233F87" transform="matrix(1 0 0 1.00353 16.5321 119)"/><path d="M4.41857 34.755C4.41857 34.755 4.43406 34.755 4.44954 34.7756 4.44438 34.7756 4.43406 34.7756 4.41857 34.755Z" fill="#233F87" transform="matrix(1 0 0 1.00353 16.5321 119)"/><path d="M3.42749 33.7277C3.42749 33.7277 3.44298 33.7277 3.45846 33.7484 3.4533 33.7484 3.44298 33.7484 3.42749 33.7277Z" fill="#224188" transform="matrix(1 0 0 1.00353 16.5321 119)"/><path d="M4.35147 34.6879C4.35147 34.6879 4.36695 34.6879 4.38244 34.7085 4.37728 34.7085 4.36695 34.7085 4.35147 34.6879Z" fill="#233F87" transform="matrix(1 0 0 1.00353 16.5321 119)"/><path d="M4.3205 34.6569C4.3205 34.6569 4.33598 34.6569 4.35147 34.6775 4.34631 34.6775 4.33598 34.6775 4.3205 34.6569Z" fill="#233F87" transform="matrix(1 0 0 1.00353 16.5321 119)"/><path d="M4.28953 34.6259C4.28953 34.6259 4.30501 34.6259 4.3205 34.6466 4.31533 34.6466 4.30501 34.6466 4.28953 34.6259Z" fill="#233F87" transform="matrix(1 0 0 1.00353 16.5321 119)"/><path d="M4.25855 34.5898C4.25855 34.5898 4.27404 34.5898 4.28953 34.6104 4.28436 34.6104 4.27404 34.6104 4.25855 34.5898Z" fill="#233F87" transform="matrix(1 0 0 1.00353 16.5321 119)"/><path d="M4.22758 34.5588C4.22758 34.5588 4.24307 34.5588 4.25855 34.5795 4.25339 34.5795 4.24307 34.5795 4.22758 34.5588Z" fill="#233F87" transform="matrix(1 0 0 1.00353 16.5321 119)"/><path d="M4.12951 34.4659C4.12951 34.4659 4.14499 34.4659 4.16048 34.4865 4.15532 34.4865 4.14499 34.4865 4.12951 34.4659Z" fill="#233F87" transform="matrix(1 0 0 1.00353 16.5321 119)"/><path d="M4.09854 34.4298C4.09854 34.4298 4.11402 34.4298 4.12951 34.4504 4.12434 34.4504 4.11402 34.4504 4.09854 34.4298Z" fill="#233F87" transform="matrix(1 0 0 1.00353 16.5321 119)"/><path d="M17.5917 3.01454C17.5917 3.01454 17.5762 3.01454 17.5607 2.99389 17.5659 2.99389 17.5762 2.99389 17.5917 3.01454Z" fill="#2D78BE" transform="matrix(1 0 0 1.00353 16.5321 119)"/><path d="M3.95916 34.2904C3.95916 34.2904 3.97981 34.2904 3.98497 34.3007 3.97465 34.3059 3.96433 34.3007 3.95916 34.2904Z" fill="#233F87" transform="matrix(1 0 0 1.00353 16.5321 119)"/><path d="M3.48943 33.7948C3.48943 33.7948 3.50492 33.8 3.5204 33.8155 3.51524 33.8155 3.50492 33.8103 3.48943 33.7948Z" fill="#224188" transform="matrix(1 0 0 1.00353 16.5321 119)"/><path d="M17.5607 2.98357C17.5607 2.98357 17.5452 2.98357 17.5298 2.96292 17.5349 2.96292 17.5452 2.96292 17.5607 2.98357Z" fill="#2D78BE" transform="matrix(1 0 0 1.00353 16.5321 119)"/><path d="M0.887844 31.1055C0.887844 31.1055 0.908491 31.1055 0.918815 31.1262 0.908491 31.1262 0.898168 31.1262 0.887844 31.1055Z" fill="#233F85" transform="matrix(1 0 0 1.00353 16.5321 119)"/><path d="M1.53308 31.7766C1.53308 31.7766 1.54856 31.7766 1.56405 31.7972 1.55889 31.7972 1.54856 31.7972 1.53308 31.7766Z" fill="#214289" transform="matrix(1 0 0 1.00353 16.5321 119)"/><path d="M1.50211 31.7404C1.50211 31.7404 1.51759 31.7404 1.53308 31.7611 1.52792 31.7611 1.51759 31.7611 1.50211 31.7404Z" fill="#214289" transform="matrix(1 0 0 1.00353 16.5321 119)"/><path d="M1.47114 31.7094C1.47114 31.7094 1.48662 31.7094 1.50211 31.7301 1.49695 31.7301 1.48662 31.7301 1.47114 31.7094Z" fill="#214289" transform="matrix(1 0 0 1.00353 16.5321 119)"/><path d="M1.37306 31.6114C1.37306 31.6114 1.38855 31.6165 1.40403 31.632 1.39887 31.632 1.38855 31.6269 1.37306 31.6114Z" fill="#214289" transform="matrix(1 0 0 1.00353 16.5321 119)"/><path d="M18.0047 3.43265C18.0047 3.43265 17.9892 3.43265 17.9788 3.412 17.984 3.412 17.9943 3.412 18.0047 3.43265Z" fill="#2D78BE" transform="matrix(1 0 0 1.00353 16.5321 119)"/><path d="M1.26982 31.503C1.26982 31.503 1.28531 31.503 1.29563 31.5081 1.28531 31.5133 1.28015 31.5081 1.26982 31.503Z" fill="#214289" transform="matrix(1 0 0 1.00353 16.5321 119)"/><path d="M1.23885 31.472C1.23885 31.472 1.25434 31.472 1.2595 31.4772 1.24918 31.4823 1.24401 31.4772 1.23885 31.472Z" fill="#214289" transform="matrix(1 0 0 1.00353 16.5321 119)"/><path d="M1.20788 31.441C1.20788 31.441 1.22337 31.441 1.23369 31.4462 1.22337 31.4514 1.2182 31.4462 1.20788 31.441Z" fill="#214289" transform="matrix(1 0 0 1.00353 16.5321 119)"/><path d="M1.17691 31.4101C1.17691 31.4101 1.19239 31.4101 1.20272 31.4204 1.19239 31.4255 1.18723 31.4204 1.17691 31.4101Z" fill="#214289" transform="matrix(1 0 0 1.00353 16.5321 119)"/><path d="M1.14078 31.3739C1.14078 31.3739 1.15626 31.3739 1.16659 31.3791 1.15626 31.3842 1.1511 31.3791 1.14078 31.3739Z" fill="#214289" transform="matrix(1 0 0 1.00353 16.5321 119)"/><path d="M17.6846 3.11262C17.6846 3.11262 17.6691 3.11262 17.6536 3.09713 17.6588 3.09713 17.6691 3.09713 17.6846 3.11262Z" fill="#2D78BE" transform="matrix(1 0 0 1.00353 16.5321 119)"/><path d="M1.11497 31.3068C1.11497 31.3068 1.1098 31.312 1.09432 31.312 1.084 31.312 1.07883 31.312 1.07367 31.3068 1.084 31.3017 1.09432 31.3017 1.1098 31.3068Z" fill="#233F85" transform="matrix(1 0 0 1.00353 16.5321 119)"/><path d="M1.56405 31.8075C1.56405 31.8075 1.57954 31.8075 1.59502 31.8282 1.58986 31.8282 1.57954 31.8282 1.56405 31.8075Z" fill="#214289" transform="matrix(1 0 0 1.00353 16.5321 119)"/><path d="M0.856873 31.0745C0.856873 31.0745 0.87752 31.0745 0.887844 31.0952 0.87752 31.0952 0.867196 31.0952 0.856873 31.0745Z" fill="#233F85" transform="matrix(1 0 0 1.00353 16.5321 119)"/><path d="M0.407789 30.6048C0.407789 30.6048 0.428436 30.6048 0.433598 30.61 0.423274 30.6151 0.418113 30.61 0.407789 30.6048Z" fill="#233F85" transform="matrix(1 0 0 1.00353 16.5321 119)"/><path d="M0.763959 30.9765C0.763959 30.9765 0.784606 30.9765 0.79493 30.9971 0.784606 30.9971 0.774282 30.9971 0.763959 30.9765Z" fill="#233F85" transform="matrix(1 0 0 1.00353 16.5321 119)"/><path d="M0.732987 30.9403C0.732987 30.9403 0.748473 30.9403 0.763959 30.961 0.753635 30.961 0.748473 30.961 0.732987 30.9403Z" fill="#233F85" transform="matrix(1 0 0 1.00353 16.5321 119)"/><path d="M0.702016 30.9094C0.702016 30.9094 0.717502 30.9094 0.732987 30.93 0.727826 30.93 0.717502 30.93 0.702016 30.9094Z" fill="#233F85" transform="matrix(1 0 0 1.00353 16.5321 119)"/><path d="M0.665883 30.8784C0.665883 30.8784 0.681369 30.8784 0.696854 30.899 0.691692 30.899 0.681369 30.899 0.665883 30.8784Z" fill="#233F85" transform="matrix(1 0 0 1.00353 16.5321 119)"/><path d="M0.634912 30.8474C0.634912 30.8474 0.650397 30.8474 0.665883 30.8681 0.660721 30.8681 0.650397 30.8681 0.634912 30.8474Z" fill="#233F85" transform="matrix(1 0 0 1.00353 16.5321 119)"/><path d="M0.60394 30.8113C0.60394 30.8113 0.619426 30.8113 0.634912 30.8319 0.62975 30.8319 0.619426 30.8319 0.60394 30.8113Z" fill="#233F85" transform="matrix(1 0 0 1.00353 16.5321 119)"/><path d="M17.7827 3.20553C17.7827 3.20553 17.7672 3.20553 17.7517 3.18488 17.7569 3.18488 17.7672 3.19004 17.7827 3.20553Z" fill="#2D78BE" transform="matrix(1 0 0 1.00353 16.5321 119)"/><path d="M0.572969 30.7803C0.572969 30.7803 0.588455 30.7803 0.60394 30.801 0.598778 30.801 0.588455 30.801 0.572969 30.7803Z" fill="#233F85" transform="matrix(1 0 0 1.00353 16.5321 119)"/><path d="M0.541998 30.7493C0.541998 30.7493 0.557483 30.7493 0.572969 30.77 0.567807 30.77 0.557483 30.77 0.541998 30.7493Z" fill="#233F85" transform="matrix(1 0 0 1.00353 16.5321 119)"/><path d="M0.511026 30.7184C0.511026 30.7184 0.526512 30.7184 0.541998 30.739 0.536836 30.739 0.526512 30.739 0.511026 30.7184Z" fill="#233F85" transform="matrix(1 0 0 1.00353 16.5321 119)"/><path d="M1.9099 32.1637C1.9099 32.1637 1.93054 32.1637 1.94087 32.1792 1.93054 32.1792 1.92022 32.1792 1.9099 32.1637Z" fill="#224188" transform="matrix(1 0 0 1.00353 16.5321 119)"/><path d="M17.6227 3.04551C17.6227 3.04551 17.6072 3.04551 17.5917 3.02486 17.5969 3.02486 17.6072 3.02486 17.6227 3.04551Z" fill="#2D78BE" transform="matrix(1 0 0 1.00353 16.5321 119)"/><path d="M2.13702 32.4011C2.13702 32.4011 2.15767 32.4011 2.16283 32.4115 2.15251 32.4166 2.14734 32.4115 2.13702 32.4011Z" fill="#224188" transform="matrix(1 0 0 1.00353 16.5321 119)"/><path d="M18.175 3.60816C18.175 3.60816 18.1543 3.60816 18.1492 3.59783 18.1595 3.58751 18.1698 3.59783 18.175 3.60816Z" fill="#2D78BE" transform="matrix(1 0 0 1.00353 16.5321 119)"/><path d="M17.6536 3.08164C17.6536 3.08164 17.6382 3.08164 17.6227 3.061 17.6278 3.061 17.6382 3.061 17.6536 3.08164Z" fill="#2D78BE" transform="matrix(1 0 0 1.00353 16.5321 119)"/><path d="M2.03894 32.3031C2.03894 32.3031 2.05959 32.3031 2.06475 32.3134 2.05443 32.3186 2.04411 32.3134 2.03894 32.3031Z" fill="#224188" transform="matrix(1 0 0 1.00353 16.5321 119)"/><path d="M17.4627 2.88549C17.4627 2.88549 17.4472 2.88549 17.4317 2.86485 17.4368 2.86485 17.4472 2.86485 17.4627 2.88549Z" fill="#2D78BE" transform="matrix(1 0 0 1.00353 16.5321 119)"/><path d="M2.00797 32.2669C2.00797 32.2669 2.02862 32.2669 2.03378 32.2773 2.02346 32.2824 2.01313 32.2773 2.00797 32.2669Z" fill="#224188" transform="matrix(1 0 0 1.00353 16.5321 119)"/><path d="M18.0408 3.46362C18.0408 3.46362 18.0253 3.46362 18.0098 3.44298 18.015 3.44298 18.0253 3.44298 18.0408 3.46362Z" fill="#2D78BE" transform="matrix(1 0 0 1.00353 16.5321 119)"/><path d="M17.7207 3.14359C17.7207 3.14359 17.7053 3.14359 17.6898 3.12294 17.6949 3.12294 17.7053 3.12294 17.7207 3.14359Z" fill="#2D78BE" transform="matrix(1 0 0 1.00353 16.5321 119)"/><path d="M17.4988 2.91646C17.4988 2.91646 17.4833 2.91646 17.4678 2.89582 17.473 2.89582 17.4833 2.89582 17.4988 2.91646Z" fill="#2D78BE" transform="matrix(1 0 0 1.00353 16.5321 119)"/><path d="M19.7649 25.19C19.7649 25.19 19.7545 25.19 19.7494 25.1797 19.7494 25.1797 19.7494 25.1745 19.7597 25.1642 19.7649 25.1642 19.7649 25.1745 19.7649 25.1848Z" fill="#3CB3E7" transform="matrix(1 0 0 1.00353 16.5321 119)"/><path d="M17.5298 2.9526C17.5298 2.9526 17.5143 2.9526 17.4988 2.93195 17.5039 2.93195 17.5143 2.93195 17.5298 2.9526Z" fill="#2D78BE" transform="matrix(1 0 0 1.00353 16.5321 119)"/><path d="M1.81698 32.0708C1.81698 32.0708 1.83763 32.0708 1.84795 32.0863 1.83763 32.0863 1.82731 32.0863 1.81698 32.0708Z" fill="#224188" transform="matrix(1 0 0 1.00353 16.5321 119)"/><path d="M1.72407 31.9727C1.72407 31.9727 1.74472 31.9727 1.75504 31.9934 1.74472 31.9934 1.73439 31.9934 1.72407 31.9727Z" fill="#224188" transform="matrix(1 0 0 1.00353 16.5321 119)"/><path d="M1.6931 31.9366C1.6931 31.9366 1.71375 31.9366 1.72407 31.9572 1.71375 31.9572 1.70342 31.9572 1.6931 31.9366Z" fill="#224188" transform="matrix(1 0 0 1.00353 16.5321 119)"/><path d="M1.66213 31.9056C1.66213 31.9056 1.68277 31.9056 1.6931 31.9262 1.68277 31.9262 1.67761 31.9262 1.66213 31.9056Z" fill="#224188" transform="matrix(1 0 0 1.00353 16.5321 119)"/><path d="M1.62599 31.8746C1.62599 31.8746 1.64664 31.8746 1.65696 31.8953 1.64664 31.8953 1.64148 31.8953 1.62599 31.8746Z" fill="#214289" transform="matrix(1 0 0 1.00353 16.5321 119)"/><path d="M1.59502 31.8385C1.59502 31.8385 1.61051 31.8385 1.62599 31.8591 1.61567 31.8591 1.61051 31.8591 1.59502 31.8385Z" fill="#214289" transform="matrix(1 0 0 1.00353 16.5321 119)"/><path d="M10.1947 10.076C10.1999 9.37914 10.205 8.68229 10.2154 7.99059 10.2154 8.45 10.2154 8.90941 10.2205 9.36366 10.2205 9.42044 10.2412 9.47206 10.2515 9.52884 10.2515 10.0295 10.2515 10.5302 10.2515 11.0309 10.2412 12.3575 10.2309 13.6893 10.2205 15.0159 10.2205 15.1656 10.1947 15.3101 10.1896 15.4598 10.1844 15.8676 10.1637 16.2754 10.3289 16.6729 10.267 16.4819 10.1637 16.2806 10.1637 16.0793 10.1637 14.1797 10.1792 12.2853 10.1999 10.3651 10.205 10.2567 10.1999 10.1637 10.1999 10.076Z" fill="#1654A6" transform="matrix(1 0 0 1.00353 16.5321 119)"/><path d="M10.2515 9.51335C10.2412 9.47206 10.2205 9.41527 10.2205 9.36366 10.2205 8.90425 10.2205 8.45 10.2205 7.97511 10.2205 7.25245 10.2205 6.55043 10.2205 5.82777 10.2309 5.87422 10.2463 5.93617 10.2463 5.99811 10.2463 7.16469 10.2463 8.33128 10.2463 9.51335Z" fill="#194699" transform="matrix(1 0 0 1.00353 16.5321 119)"/><path d="M10.8193 17.1839C10.7677 17.1633 10.7161 17.1271 10.6593 17.0858 10.7057 17.1116 10.7625 17.1426 10.8193 17.1839Z" fill="#1654A6" transform="matrix(1 0 0 1.00353 16.5321 119)"/><path d="M11.7588 17.855C11.7123 17.8343 11.671 17.8085 11.6246 17.7775 11.6659 17.7982 11.7175 17.824 11.7588 17.855Z" fill="#1654A6" transform="matrix(1 0 0 1.00353 16.5321 119)"/><path d="M10.649 17.0652C10.6128 17.0445 10.5767 17.0136 10.5406 16.9774 10.5767 16.9981 10.6128 17.0291 10.649 17.0652Z" fill="#1654A6" transform="matrix(1 0 0 1.00353 16.5321 119)"/><path d="M10.4064 16.7968C10.4064 16.7968 10.3599 16.7451 10.3341 16.709 10.3547 16.7297 10.3805 16.7555 10.4064 16.7968Z" fill="#1654A6" transform="matrix(1 0 0 1.00353 16.5321 119)"/><path d="M11.5316 17.6898C11.5058 17.6898 11.4749 17.6691 11.4387 17.6433 11.4645 17.6485 11.4955 17.664 11.5316 17.6898Z" fill="#1654A6" transform="matrix(1 0 0 1.00353 16.5321 119)"/><path d="M11.1755 17.4368C11.1497 17.4317 11.1187 17.4162 11.0877 17.3904 11.1135 17.3955 11.1445 17.411 11.1755 17.4368Z" fill="#1654A6" transform="matrix(1 0 0 1.00353 16.5321 119)"/><path d="M11.2684 17.5039C11.2426 17.4988 11.2116 17.4781 11.1806 17.4523 11.2064 17.4575 11.2374 17.4781 11.2684 17.5039Z" fill="#1654A6" transform="matrix(1 0 0 1.00353 16.5321 119)"/><path d="M11.4026 17.5969C11.4026 17.5969 11.3613 17.5865 11.3355 17.5659 11.3561 17.5659 11.3768 17.5762 11.4026 17.5969Z" fill="#1654A6" transform="matrix(1 0 0 1.00353 16.5321 119)"/><path d="M11.6246 17.762C11.5988 17.7569 11.5678 17.7362 11.5368 17.7104 11.5626 17.7156 11.5936 17.7311 11.6246 17.762Z" fill="#1654A6" transform="matrix(1 0 0 1.00353 16.5321 119)"/><path d="M11.0826 17.3697C11.0826 17.3697 11.0413 17.3594 11.0155 17.3388 11.0309 17.3388 11.0568 17.3491 11.0826 17.3697Z" fill="#1654A6" transform="matrix(1 0 0 1.00353 16.5321 119)"/><path d="M10.458 16.869C10.458 16.869 10.4218 16.8432 10.4064 16.8123 10.4218 16.8226 10.4425 16.8381 10.458 16.869Z" fill="#1654A6" transform="matrix(1 0 0 1.00353 16.5321 119)"/><path d="M10.9484 17.2768C10.9484 17.2768 10.9071 17.2665 10.8812 17.251 10.8967 17.251 10.9225 17.2613 10.9484 17.2768Z" fill="#1654A6" transform="matrix(1 0 0 1.00353 16.5321 119)"/><path d="M10.5044 16.9207C10.5044 16.9207 10.4786 16.9103 10.4631 16.8948 10.4735 16.8948 10.4889 16.9052 10.5044 16.9207Z" fill="#1654A6" transform="matrix(1 0 0 1.00353 16.5321 119)"/><path d="M10.8709 17.2252C10.8709 17.2252 10.84 17.22 10.8245 17.2046 10.84 17.2046 10.8606 17.2097 10.8709 17.2252Z" fill="#1654A6" transform="matrix(1 0 0 1.00353 16.5321 119)"/><path d="M11.0051 17.3233C11.0051 17.3233 10.9742 17.313 10.9535 17.2975 10.969 17.2975 10.9845 17.3026 11.0051 17.3233Z" fill="#1654A6" transform="matrix(1 0 0 1.00353 16.5321 119)"/><path d="M11.32 17.5452C11.32 17.5452 11.289 17.5401 11.2736 17.5246 11.289 17.5246 11.3097 17.5298 11.32 17.5452Z" fill="#1654A6" transform="matrix(1 0 0 1.00353 16.5321 119)"/><path d="M10.5354 16.9568C10.5354 16.9568 10.5199 16.9568 10.5044 16.9361 10.5096 16.9361 10.5199 16.9361 10.5354 16.9568Z" fill="#1654A6" transform="matrix(1 0 0 1.00353 16.5321 119)"/><path d="M10.0399 30.0576C10.0295 29.9492 10.0295 29.8305 10.0399 29.686 10.0502 29.495 10.0502 29.3247 10.0502 29.1543 10.0502 29.144 10.045 29.1388 10.0502 29.1079 10.0502 29.0459 10.0502 29.0098 10.0502 28.9685 10.0708 27.0534 10.0915 25.1435 10.1225 23.2285 10.1225 23.0943 10.1844 22.9652 10.2257 22.8207 10.0812 23.6466 10.1689 24.488 10.1534 25.3294 10.1328 26.2069 10.1328 27.0844 10.1173 27.9619 10.107 28.6072 10.0966 29.2524 10.0863 29.8976 10.0863 29.9492 10.0605 30.0009 10.0399 30.0576Z" fill="#2599D5" transform="matrix(1 0 0 1.00353 16.5321 119)"/><path d="M15.8263 32.4992C15.6044 32.5302 15.3824 32.5663 15.1553 32.5921 14.6804 32.6489 14.2107 32.7005 13.7358 32.747 13.3899 32.7831 13.0389 32.8141 12.6931 32.8502 12.3369 32.8864 11.9807 32.9328 11.6194 32.9689 11.3613 32.9948 11.1032 33.0154 10.8451 33.0412 10.6541 33.0567 10.4683 33.0825 10.2773 33.098 10.1896 33.1032 10.0966 33.098 10.0089 33.0825 10.1121 33.0619 10.2102 33.0515 10.3083 33.0361 10.7625 32.9948 11.2219 32.9483 11.702 32.9018 12.4195 32.8244 13.1112 32.7573 13.7977 32.685 14.1487 32.6489 14.5049 32.6025 14.8559 32.5612 14.8714 32.5612 14.8869 32.5612 14.923 32.5612 15.1192 32.5405 15.2895 32.5199 15.4598 32.4941 15.4857 32.4941 15.5115 32.4941 15.5579 32.4941 15.6353 32.4837 15.6921 32.4786 15.7541 32.4786 15.7799 32.4889 15.7954 32.4941 15.8108 32.4992Z" fill="#1E3F76" transform="matrix(1 0 0 1.00353 16.5321 119)"/><path d="M14.8559 32.5508C14.5101 32.6025 14.159 32.6489 13.808 32.685 13.1163 32.7573 12.4247 32.8244 11.7226 32.8967 11.7123 32.8812 11.7123 32.8554 11.7123 32.8554 12.0478 32.8193 12.3834 32.7883 12.724 32.7521 13.0802 32.716 13.4364 32.6696 13.7977 32.6334 14.1487 32.5973 14.4997 32.5715 14.8611 32.5457Z" fill="#36B6E9" transform="matrix(1 0 0 1.00353 16.5321 119)"/><path d="M15.8418 32.4992C15.8108 32.4992 15.7902 32.4889 15.7799 32.4786 15.8625 32.4579 15.9399 32.4528 16.0225 32.4424 16.0483 32.4424 16.0689 32.4424 16.1154 32.4373 16.3993 32.4063 16.6574 32.3753 16.9103 32.3392 17.1787 32.3082 17.4472 32.2824 17.7311 32.2514 17.6795 32.2721 17.6175 32.3031 17.5504 32.3134 17.0962 32.3702 16.6367 32.4166 16.1825 32.4682 16.0741 32.4786 15.9605 32.4889 15.8367 32.4992Z" fill="#1D3E73" transform="matrix(1 0 0 1.00353 16.5321 119)"/><path d="M10.3031 33.0309C10.2154 33.0515 10.1173 33.0619 10.0089 33.0774 9.99857 33.0774 9.98824 33.0774 9.97792 33.0567 9.9676 32.9483 9.96243 32.8502 9.96243 32.7573 9.97276 32.5508 9.98824 32.3495 9.99857 32.1327 10.0089 32.2876 10.0192 32.4528 10.0295 32.6179 10.0295 32.6489 10.0295 32.6799 10.0295 32.7109 10.0295 32.9001 10.1225 33.0068 10.3083 33.0309Z" fill="#2DB5E9" transform="matrix(1 0 0 1.00353 16.5321 119)"/><path d="M9.99341 32.0088C9.98308 31.983 9.96243 31.9469 9.96243 31.9108 9.96243 31.5339 9.97276 31.1571 9.98824 30.77 9.99857 31.1262 9.99341 31.4926 9.99341 31.885 9.99341 31.9366 9.99341 31.9572 9.99341 31.983 9.99341 31.983 9.99341 31.9985 9.98824 32.0037Z" fill="#124B90" transform="matrix(1 0 0 1.00353 16.5321 119)"/><path d="M16.9052 32.3289C16.6574 32.3702 16.3993 32.4011 16.1309 32.4321 16.2032 32.4063 16.2857 32.3702 16.3683 32.3598 16.5438 32.3392 16.7193 32.334 16.9052 32.3289Z" fill="#36B6E9" transform="matrix(1 0 0 1.00353 16.5321 119)"/><path d="M15.465 32.4889C15.2998 32.5199 15.1295 32.5405 14.9437 32.5612 14.9437 32.5405 14.9591 32.5095 14.9746 32.5044 15.1346 32.4941 15.2947 32.4837 15.4598 32.4889Z" fill="#36B6E9" transform="matrix(1 0 0 1.00353 16.5321 119)"/><path d="M16.0122 32.4321C15.9451 32.4528 15.8676 32.4631 15.7747 32.4734 15.7076 32.4837 15.6508 32.4889 15.5837 32.4992 15.7179 32.4734 15.8625 32.4476 16.0122 32.4321Z" fill="#36B6E9" transform="matrix(1 0 0 1.00353 16.5321 119)"/><path d="M10.2515 22.8155C10.2773 22.7536 10.3134 22.6916 10.3599 22.6245 10.3341 22.6865 10.298 22.7484 10.2515 22.8155Z" fill="#2599D5" transform="matrix(1 0 0 1.00353 16.5321 119)"/><path d="M18.0201 32.2205C17.9634 32.236 17.8962 32.2514 17.824 32.2566 17.8808 32.2411 17.9427 32.2308 18.0201 32.2205Z" fill="#1D3E73" transform="matrix(1 0 0 1.00353 16.5321 119)"/><path d="M18.2937 32.1998C18.2524 32.2153 18.2008 32.2256 18.144 32.2256 18.1853 32.2102 18.2318 32.205 18.2937 32.1998Z" fill="#1D3E73" transform="matrix(1 0 0 1.00353 16.5321 119)"/><path d="M10.0089 31.983C10.0089 31.983 9.99857 31.9366 9.99857 31.9004 10.0089 31.9211 10.0141 31.9469 10.0089 31.983Z" fill="#2DB5E9" transform="matrix(1 0 0 1.00353 16.5321 119)"/><path d="M10.7006 22.3045C10.7006 22.3045 10.7212 22.2632 10.747 22.2426 10.7419 22.2632 10.7264 22.2838 10.7006 22.3045Z" fill="#2599D5" transform="matrix(1 0 0 1.00353 16.5321 119)"/><path d="M11.0568 21.9845C11.0568 21.9845 11.0774 21.9432 11.1084 21.9225 11.1032 21.9432 11.0877 21.9638 11.0568 21.9845Z" fill="#2599D5" transform="matrix(1 0 0 1.00353 16.5321 119)"/><path d="M10.9845 22.0464C10.9845 22.0464 11.0103 22.0103 11.0361 21.9845 11.0309 22.0051 11.0103 22.0258 10.9845 22.0464Z" fill="#2599D5" transform="matrix(1 0 0 1.00353 16.5321 119)"/><path d="M10.6335 22.3613C10.6335 22.3613 10.6593 22.3251 10.6851 22.3045 10.6799 22.3251 10.6593 22.3458 10.6335 22.3613Z" fill="#2599D5" transform="matrix(1 0 0 1.00353 16.5321 119)"/><path d="M10.8658 22.1496C10.8658 22.1496 10.8761 22.1238 10.8967 22.1083 10.8967 22.1187 10.8864 22.1342 10.8658 22.1496Z" fill="#2599D5" transform="matrix(1 0 0 1.00353 16.5321 119)"/><path d="M10.5819 22.4077C10.5819 22.4077 10.5973 22.3819 10.618 22.3664 10.618 22.3768 10.6077 22.3923 10.5819 22.4077Z" fill="#2599D5" transform="matrix(1 0 0 1.00353 16.5321 119)"/><path d="M10.3754 22.6194C10.3754 22.6194 10.3857 22.5884 10.4012 22.5678 10.4012 22.5832 10.3909 22.5987 10.3754 22.6194Z" fill="#2599D5" transform="matrix(1 0 0 1.00353 16.5321 119)"/><path d="M10.5096 22.4697C10.5096 22.4697 10.5096 22.4542 10.5302 22.4387 10.5302 22.4439 10.5302 22.4542 10.5096 22.4697Z" fill="#2599D5" transform="matrix(1 0 0 1.00353 16.5321 119)"/><path d="M10.0089 30.1196C10.0089 30.1196 10.0192 30.1093 10.0244 30.1041 10.0295 30.1041 10.0244 30.1144 10.0244 30.1196 10.0192 30.1248 10.0141 30.1196 10.0037 30.1196Z" fill="#2599D5" transform="matrix(1 0 0 1.00353 16.5321 119)"/><path d="M10.9535 22.0722C10.9535 22.0722 10.9535 22.0516 10.969 22.0464 10.969 22.0567 10.969 22.0671 10.9535 22.0722Z" fill="#2599D5" transform="matrix(1 0 0 1.00353 16.5321 119)"/><path d="M10.9225 22.1032C10.9225 22.1032 10.9225 22.0825 10.9329 22.0774 10.9329 22.0877 10.9329 22.098 10.9225 22.1032Z" fill="#2599D5" transform="matrix(1 0 0 1.00353 16.5321 119)"/><path d="M10.8348 22.1806C10.8348 22.1806 10.8348 22.1651 10.8554 22.1548 10.8554 22.16 10.8554 22.1703 10.8348 22.1806Z" fill="#2599D5" transform="matrix(1 0 0 1.00353 16.5321 119)"/><path d="M10.7987 22.2116C10.7987 22.2116 10.7987 22.1961 10.8193 22.1858 10.8193 22.1909 10.8193 22.2013 10.7987 22.2116Z" fill="#2599D5" transform="matrix(1 0 0 1.00353 16.5321 119)"/><path d="M10.7677 22.2426C10.7677 22.2426 10.7677 22.2271 10.7883 22.2116 10.7883 22.2167 10.7883 22.2271 10.7677 22.2426Z" fill="#2599D5" transform="matrix(1 0 0 1.00353 16.5321 119)"/><path d="M5.40449 19.5016C5.44579 19.6358 5.50773 19.7803 5.50773 19.9197 5.51805 20.6837 5.50773 21.4528 5.50257 22.2426 5.48708 22.2838 5.48192 22.2993 5.48192 22.3148 5.48192 24.0286 5.48192 25.7372 5.48192 27.4509 5.48192 27.487 5.50257 27.5283 5.51289 27.5645 5.51289 27.5645 5.51289 27.5645 5.51289 27.5696 5.51289 27.5748 5.51289 27.5903 5.51289 27.5903 5.49741 27.5903 5.48708 27.5903 5.46127 27.5954 5.45095 25.1693 5.44579 22.7433 5.46127 20.3172 5.46127 20.0384 5.4716 19.77 5.40965 19.4964Z" fill="#1F2C5F" transform="matrix(1 0 0 1.00353 16.5321 119)"/><path d="M5.30642 11.0413C5.30642 11.7588 5.29609 12.4711 5.28061 13.1989 5.27028 13.2144 5.2548 13.2144 5.2548 13.2144 5.2548 12.5485 5.2548 11.8827 5.2548 11.2116 5.2548 11.16 5.25996 11.1084 5.27544 11.0464 5.28577 11.0361 5.29609 11.0464 5.30642 11.0464Z" fill="#233F85" transform="matrix(1 0 0 1.00353 16.5321 119)"/><path d="M9.95211 32.7676C9.96243 32.8554 9.9676 32.9483 9.97276 33.0567 9.97276 33.0722 9.96243 33.0722 9.94179 33.0722 9.93663 32.9741 9.94179 32.8709 9.95211 32.7625Z" fill="#124B90" transform="matrix(1 0 0 1.00353 16.5321 119)"/><path d="M5.58516 27.6264C5.58516 27.6264 5.62129 27.6316 5.6471 27.6522 5.63161 27.6522 5.61097 27.6522 5.58516 27.6264Z" fill="#0F4F84" transform="matrix(1 0 0 1.00353 16.5321 119)"/><path d="M5.54902 27.6006C5.54902 27.6006 5.56451 27.6006 5.58 27.6109 5.57483 27.6109 5.55935 27.6109 5.54902 27.6006Z" fill="#0F4F84" transform="matrix(1 0 0 1.00353 16.5321 119)"/><path d="M5.51805 27.5954C5.51805 27.5954 5.50773 27.5799 5.50773 27.5748 5.51805 27.5748 5.52838 27.5748 5.54386 27.5903 5.54386 27.6006 5.53354 27.6006 5.51805 27.6006Z" fill="#1B3E70" transform="matrix(1 0 0 1.00353 16.5321 119)"/><path d="M5.2548 13.2299C5.2548 13.2299 5.27028 13.2144 5.27544 13.2144 5.28577 13.4828 5.28577 13.7513 5.27544 14.0403 5.26512 14.5823 5.25996 15.0985 5.2548 15.6147 5.23931 15.7954 5.30125 15.9864 5.17221 16.1619 5.28577 15.465 5.19285 14.7578 5.22383 14.0558 5.23415 13.7874 5.24447 13.5138 5.2548 13.2299Z" fill="#253A7C" transform="matrix(1 0 0 1.00353 16.5321 119)"/><path d="M4.9296 16.518C4.91411 16.5645 4.88314 16.6161 4.84701 16.6677 4.86249 16.6213 4.89347 16.5696 4.9296 16.518Z" fill="#253A7C" transform="matrix(1 0 0 1.00353 16.5321 119)"/><path d="M4.9967 16.4251C4.9967 16.4509 4.97606 16.4819 4.95025 16.518 4.95541 16.4922 4.97089 16.4612 4.9967 16.4251Z" fill="#253A7C" transform="matrix(1 0 0 1.00353 16.5321 119)"/><path d="M5.12059 16.229C5.12059 16.2548 5.09994 16.2857 5.07413 16.3219 5.07413 16.2961 5.09478 16.2651 5.12059 16.229Z" fill="#253A7C" transform="matrix(1 0 0 1.00353 16.5321 119)"/><path d="M4.83152 16.678C4.83152 16.678 4.82636 16.709 4.81087 16.7348 4.81087 16.7193 4.81604 16.7039 4.83152 16.678Z" fill="#253A7C" transform="matrix(1 0 0 1.00353 16.5321 119)"/><path d="M5.15672 16.167C5.15672 16.167 5.15672 16.198 5.13607 16.2238 5.13607 16.2083 5.13607 16.1928 5.15672 16.167Z" fill="#253A7C" transform="matrix(1 0 0 1.00353 16.5321 119)"/><path d="M5.038 16.3632C5.038 16.3632 5.03284 16.3941 5.01219 16.42 5.01219 16.4045 5.01735 16.3838 5.038 16.3632Z" fill="#253A7C" transform="matrix(1 0 0 1.00353 16.5321 119)"/><path d="M5.05865 16.327C5.05865 16.327 5.05865 16.3477 5.04832 16.3632 5.04832 16.358 5.04832 16.3425 5.05865 16.327Z" fill="#253A7C" transform="matrix(1 0 0 1.00353 16.5321 119)"/><path d="M5.51289 27.549C5.51289 27.549 5.48192 27.487 5.48192 27.4457 5.48192 25.732 5.48192 24.0234 5.48192 22.3097 5.48192 22.2942 5.48708 22.2787 5.49741 22.2529 5.50773 22.8981 5.50773 23.5537 5.51289 24.2092 5.51289 25.319 5.51289 26.4237 5.51289 27.549Z" fill="#0F4F84" transform="matrix(1 0 0 1.00353 16.5321 119)"/><path d="M5.25996 15.6044C5.25996 15.0985 5.25996 14.5823 5.27544 14.0558 5.27544 14.5617 5.27028 15.0779 5.25996 15.6044Z" fill="#3A7BB1" transform="matrix(1 0 0 1.00353 16.5321 119)"/><path d="M10.045 29.1698C10.0502 29.3247 10.045 29.495 10.045 29.6705 10.0399 29.5156 10.045 29.3453 10.045 29.1698Z" fill="#41BBEB" transform="matrix(1 0 0 1.00353 16.5321 119)"/><path d="M10.1947 10.0863C10.1999 10.1637 10.205 10.2515 10.205 10.3496 10.1947 10.2721 10.1947 10.1844 10.1947 10.0863Z" fill="#0F68B3" transform="matrix(1 0 0 1.00353 16.5321 119)"/><path d="M10.0502 28.9788C10.0553 29.0098 10.0553 29.0459 10.0502 29.1027 10.045 29.0769 10.0399 29.0304 10.0502 28.9788Z" fill="#41BBEB" transform="matrix(1 0 0 1.00353 16.5321 119)"/><text fill="#FFFFFF" font-family="Segoe UI Historic,Segoe UI Historic_MSFontService,sans-serif" font-weight="400" font-size="60" transform="matrix(0.516188 0 0 0.518009 42.9868 148)">Ba</text><text fill="#FFFFFF" font-family="Segoe UI Historic,Segoe UI Historic_MSFontService,sans-serif" font-weight="400" font-size="60" transform="matrix(0.516188 0 0 0.518009 76.4977 148)">r</text><text fill="#FFFFFF" font-family="Segoe UI Historic,Segoe UI Historic_MSFontService,sans-serif" font-weight="400" font-size="60" transform="matrix(0.516188 0 0 0.518009 86.8576 148)">e</text><text fill="#FFFFFF" font-family="Segoe UI Historic,Segoe UI Historic_MSFontService,sans-serif" font-weight="400" font-size="60" transform="matrix(0.516188 0 0 0.518009 108.285 149)">Count</text><text fill="#FFFFFF" font-family="Segoe UI Historic,Segoe UI Historic_MSFontService,sans-serif" font-weight="400" font-size="15" transform="matrix(0.516188 0 0 0.518009 196.811 134)">TM</text></g></svg>